<svg width="647" height="336" viewBox="0 0 647 336" fill="none" xmlns="http://www.w3.org/2000/svg">
<g clip-path="url(#clip0_130_60)">
<path d="M645 0H2C0.89543 0 0 0.89543 0 2V334C0 335.105 0.89543 336 2 336H645C646.105 336 647 335.105 647 334V2C647 0.89543 646.105 0 645 0Z" fill="white"/>
<path d="M89.5187 252.007V238.015H84.1067V236.607H96.5587V238.015H91.1467V252.007H89.5187ZM104.725 240.347C105.664 240.347 106.485 240.53 107.189 240.897C107.908 241.249 108.465 241.791 108.861 242.525C109.272 243.258 109.477 244.182 109.477 245.297V252.007H107.915V245.451C107.915 244.233 107.607 243.317 106.991 242.701C106.39 242.07 105.539 241.755 104.439 241.755C103.618 241.755 102.899 241.923 102.283 242.261C101.682 242.583 101.213 243.06 100.875 243.691C100.553 244.307 100.391 245.055 100.391 245.935V252.007H98.8295V235.683H100.391V243.625L100.083 243.031C100.45 242.195 101.037 241.542 101.843 241.073C102.65 240.589 103.611 240.347 104.725 240.347ZM120.935 252.007V249.455L120.869 249.037V244.769C120.869 243.786 120.59 243.031 120.033 242.503C119.49 241.975 118.676 241.711 117.591 241.711C116.843 241.711 116.131 241.835 115.457 242.085C114.782 242.334 114.21 242.664 113.741 243.075L113.037 241.909C113.623 241.41 114.327 241.029 115.149 240.765C115.97 240.486 116.835 240.347 117.745 240.347C119.241 240.347 120.392 240.721 121.199 241.469C122.02 242.202 122.431 243.324 122.431 244.835V252.007H120.935ZM116.953 252.117C116.087 252.117 115.332 251.977 114.687 251.699C114.056 251.405 113.572 251.009 113.235 250.511C112.897 249.997 112.729 249.411 112.729 248.751C112.729 248.149 112.868 247.607 113.147 247.123C113.44 246.624 113.909 246.228 114.555 245.935C115.215 245.627 116.095 245.473 117.195 245.473H121.177V246.639H117.239C116.124 246.639 115.347 246.837 114.907 247.233C114.481 247.629 114.269 248.12 114.269 248.707C114.269 249.367 114.525 249.895 115.039 250.291C115.552 250.687 116.271 250.885 117.195 250.885C118.075 250.885 118.83 250.687 119.461 250.291C120.106 249.88 120.575 249.293 120.869 248.531L121.221 249.609C120.927 250.371 120.414 250.98 119.681 251.435C118.962 251.889 118.053 252.117 116.953 252.117ZM132.569 240.347C133.508 240.347 134.329 240.53 135.033 240.897C135.752 241.249 136.309 241.791 136.705 242.525C137.116 243.258 137.321 244.182 137.321 245.297V252.007H135.759V245.451C135.759 244.233 135.451 243.317 134.835 242.701C134.234 242.07 133.383 241.755 132.283 241.755C131.462 241.755 130.743 241.923 130.127 242.261C129.526 242.583 129.056 243.06 128.719 243.691C128.396 244.307 128.235 245.055 128.235 245.935V252.007H126.673V240.457H128.169V243.625L127.927 243.031C128.294 242.195 128.88 241.542 129.687 241.073C130.494 240.589 131.454 240.347 132.569 240.347ZM142.772 249.015L142.816 247.013L150.01 240.457H151.924L146.842 245.319L145.962 246.067L142.772 249.015ZM141.54 252.007V235.683H143.102V252.007H141.54ZM150.494 252.007L145.676 246.001L146.688 244.791L152.408 252.007H150.494ZM160.599 256.385C160.056 256.385 159.536 256.297 159.037 256.121C158.553 255.945 158.135 255.681 157.783 255.329L158.509 254.163C158.802 254.441 159.118 254.654 159.455 254.801C159.807 254.962 160.196 255.043 160.621 255.043C161.134 255.043 161.574 254.896 161.941 254.603C162.322 254.324 162.682 253.825 163.019 253.107L163.767 251.413L163.943 251.171L168.695 240.457H170.235L164.449 253.393C164.126 254.141 163.767 254.735 163.371 255.175C162.99 255.615 162.572 255.923 162.117 256.099C161.662 256.289 161.156 256.385 160.599 256.385ZM163.679 252.337L158.355 240.457H159.983L164.691 251.061L163.679 252.337ZM176.821 252.117C175.706 252.117 174.701 251.867 173.807 251.369C172.927 250.855 172.23 250.159 171.717 249.279C171.203 248.384 170.947 247.365 170.947 246.221C170.947 245.062 171.203 244.043 171.717 243.163C172.23 242.283 172.927 241.593 173.807 241.095C174.687 240.596 175.691 240.347 176.821 240.347C177.965 240.347 178.977 240.596 179.857 241.095C180.751 241.593 181.448 242.283 181.947 243.163C182.46 244.043 182.717 245.062 182.717 246.221C182.717 247.365 182.46 248.384 181.947 249.279C181.448 250.159 180.751 250.855 179.857 251.369C178.962 251.867 177.95 252.117 176.821 252.117ZM176.821 250.731C177.657 250.731 178.397 250.547 179.043 250.181C179.688 249.799 180.194 249.271 180.561 248.597C180.942 247.907 181.133 247.115 181.133 246.221C181.133 245.311 180.942 244.519 180.561 243.845C180.194 243.17 179.688 242.649 179.043 242.283C178.397 241.901 177.664 241.711 176.843 241.711C176.021 241.711 175.288 241.901 174.643 242.283C173.997 242.649 173.484 243.17 173.103 243.845C172.721 244.519 172.531 245.311 172.531 246.221C172.531 247.115 172.721 247.907 173.103 248.597C173.484 249.271 173.997 249.799 174.643 250.181C175.288 250.547 176.014 250.731 176.821 250.731ZM190.68 252.117C189.697 252.117 188.839 251.933 188.106 251.567C187.372 251.2 186.8 250.65 186.39 249.917C185.994 249.183 185.796 248.267 185.796 247.167V240.457H187.358V246.991C187.358 248.223 187.658 249.154 188.26 249.785C188.876 250.401 189.734 250.709 190.834 250.709C191.64 250.709 192.337 250.547 192.924 250.225C193.525 249.887 193.98 249.403 194.288 248.773C194.61 248.142 194.772 247.387 194.772 246.507V240.457H196.334V252.007H194.838V248.839L195.08 249.411C194.713 250.261 194.141 250.929 193.364 251.413C192.601 251.882 191.706 252.117 190.68 252.117ZM206.709 252.007V239.005C206.709 237.978 207.009 237.149 207.611 236.519C208.212 235.888 209.077 235.573 210.207 235.573C210.647 235.573 211.072 235.631 211.483 235.749C211.893 235.866 212.238 236.049 212.517 236.299L211.989 237.465C211.769 237.274 211.512 237.135 211.219 237.047C210.925 236.944 210.61 236.893 210.273 236.893C209.613 236.893 209.107 237.076 208.755 237.443C208.403 237.809 208.227 238.352 208.227 239.071V240.831L208.271 241.557V252.007H206.709ZM204.641 241.755V240.457H211.791V241.755H204.641ZM218.414 252.117C217.3 252.117 216.295 251.867 215.4 251.369C214.52 250.855 213.824 250.159 213.31 249.279C212.797 248.384 212.54 247.365 212.54 246.221C212.54 245.062 212.797 244.043 213.31 243.163C213.824 242.283 214.52 241.593 215.4 241.095C216.28 240.596 217.285 240.347 218.414 240.347C219.558 240.347 220.57 240.596 221.45 241.095C222.345 241.593 223.042 242.283 223.54 243.163C224.054 244.043 224.31 245.062 224.31 246.221C224.31 247.365 224.054 248.384 223.54 249.279C223.042 250.159 222.345 250.855 221.45 251.369C220.556 251.867 219.544 252.117 218.414 252.117ZM218.414 250.731C219.25 250.731 219.991 250.547 220.636 250.181C221.282 249.799 221.788 249.271 222.154 248.597C222.536 247.907 222.726 247.115 222.726 246.221C222.726 245.311 222.536 244.519 222.154 243.845C221.788 243.17 221.282 242.649 220.636 242.283C219.991 241.901 219.258 241.711 218.436 241.711C217.615 241.711 216.882 241.901 216.236 242.283C215.591 242.649 215.078 243.17 214.696 243.845C214.315 244.519 214.124 245.311 214.124 246.221C214.124 247.115 214.315 247.907 214.696 248.597C215.078 249.271 215.591 249.799 216.236 250.181C216.882 250.547 217.608 250.731 218.414 250.731ZM227.499 252.007V240.457H228.995V243.603L228.841 243.053C229.164 242.173 229.707 241.505 230.469 241.051C231.232 240.581 232.178 240.347 233.307 240.347V241.865C233.249 241.865 233.19 241.865 233.131 241.865C233.073 241.85 233.014 241.843 232.955 241.843C231.738 241.843 230.785 242.217 230.095 242.965C229.406 243.698 229.061 244.747 229.061 246.111V252.007H227.499ZM246.883 252.117C245.739 252.117 244.713 251.867 243.803 251.369C242.909 250.855 242.205 250.159 241.691 249.279C241.178 248.384 240.921 247.365 240.921 246.221C240.921 245.062 241.178 244.043 241.691 243.163C242.205 242.283 242.909 241.593 243.803 241.095C244.713 240.596 245.739 240.347 246.883 240.347C247.866 240.347 248.753 240.537 249.545 240.919C250.337 241.3 250.961 241.872 251.415 242.635L250.249 243.427C249.853 242.84 249.362 242.407 248.775 242.129C248.189 241.85 247.551 241.711 246.861 241.711C246.04 241.711 245.299 241.901 244.639 242.283C243.979 242.649 243.459 243.17 243.077 243.845C242.696 244.519 242.505 245.311 242.505 246.221C242.505 247.13 242.696 247.922 243.077 248.597C243.459 249.271 243.979 249.799 244.639 250.181C245.299 250.547 246.04 250.731 246.861 250.731C247.551 250.731 248.189 250.591 248.775 250.313C249.362 250.034 249.853 249.609 250.249 249.037L251.415 249.829C250.961 250.577 250.337 251.149 249.545 251.545C248.753 251.926 247.866 252.117 246.883 252.117ZM258.998 252.117C257.884 252.117 256.879 251.867 255.984 251.369C255.104 250.855 254.408 250.159 253.894 249.279C253.381 248.384 253.124 247.365 253.124 246.221C253.124 245.062 253.381 244.043 253.894 243.163C254.408 242.283 255.104 241.593 255.984 241.095C256.864 240.596 257.869 240.347 258.998 240.347C260.142 240.347 261.154 240.596 262.034 241.095C262.929 241.593 263.626 242.283 264.124 243.163C264.638 244.043 264.894 245.062 264.894 246.221C264.894 247.365 264.638 248.384 264.124 249.279C263.626 250.159 262.929 250.855 262.034 251.369C261.14 251.867 260.128 252.117 258.998 252.117ZM258.998 250.731C259.834 250.731 260.575 250.547 261.22 250.181C261.866 249.799 262.372 249.271 262.738 248.597C263.12 247.907 263.31 247.115 263.31 246.221C263.31 245.311 263.12 244.519 262.738 243.845C262.372 243.17 261.866 242.649 261.22 242.283C260.575 241.901 259.842 241.711 259.02 241.711C258.199 241.711 257.466 241.901 256.82 242.283C256.175 242.649 255.662 243.17 255.28 243.845C254.899 244.519 254.708 245.311 254.708 246.221C254.708 247.115 254.899 247.907 255.28 248.597C255.662 249.271 256.175 249.799 256.82 250.181C257.466 250.547 258.192 250.731 258.998 250.731ZM282.515 240.347C283.454 240.347 284.268 240.53 284.957 240.897C285.661 241.249 286.204 241.791 286.585 242.525C286.981 243.258 287.179 244.182 287.179 245.297V252.007H285.617V245.451C285.617 244.233 285.324 243.317 284.737 242.701C284.165 242.07 283.351 241.755 282.295 241.755C281.503 241.755 280.814 241.923 280.227 242.261C279.655 242.583 279.208 243.06 278.885 243.691C278.577 244.307 278.423 245.055 278.423 245.935V252.007H276.861V245.451C276.861 244.233 276.568 243.317 275.981 242.701C275.395 242.07 274.573 241.755 273.517 241.755C272.74 241.755 272.058 241.923 271.471 242.261C270.885 242.583 270.43 243.06 270.107 243.691C269.799 244.307 269.645 245.055 269.645 245.935V252.007H268.083V240.457H269.579V243.581L269.337 243.031C269.689 242.195 270.254 241.542 271.031 241.073C271.823 240.589 272.755 240.347 273.825 240.347C274.955 240.347 275.915 240.633 276.707 241.205C277.499 241.762 278.013 242.605 278.247 243.735L277.631 243.493C277.969 242.554 278.563 241.799 279.413 241.227C280.279 240.64 281.313 240.347 282.515 240.347ZM297.377 252.117C296.38 252.117 295.478 251.889 294.671 251.435C293.865 250.965 293.219 250.298 292.735 249.433C292.266 248.553 292.031 247.482 292.031 246.221C292.031 244.959 292.266 243.896 292.735 243.031C293.205 242.151 293.843 241.483 294.649 241.029C295.456 240.574 296.365 240.347 297.377 240.347C298.477 240.347 299.46 240.596 300.325 241.095C301.205 241.579 301.895 242.268 302.393 243.163C302.892 244.043 303.141 245.062 303.141 246.221C303.141 247.394 302.892 248.421 302.393 249.301C301.895 250.181 301.205 250.87 300.325 251.369C299.46 251.867 298.477 252.117 297.377 252.117ZM291.415 256.275V240.457H292.911V243.933L292.757 246.243L292.977 248.575V256.275H291.415ZM297.267 250.731C298.089 250.731 298.822 250.547 299.467 250.181C300.113 249.799 300.626 249.271 301.007 248.597C301.389 247.907 301.579 247.115 301.579 246.221C301.579 245.326 301.389 244.541 301.007 243.867C300.626 243.192 300.113 242.664 299.467 242.283C298.822 241.901 298.089 241.711 297.267 241.711C296.446 241.711 295.705 241.901 295.045 242.283C294.4 242.664 293.887 243.192 293.505 243.867C293.139 244.541 292.955 245.326 292.955 246.221C292.955 247.115 293.139 247.907 293.505 248.597C293.887 249.271 294.4 249.799 295.045 250.181C295.705 250.547 296.446 250.731 297.267 250.731ZM313.499 252.007V249.455L313.433 249.037V244.769C313.433 243.786 313.154 243.031 312.597 242.503C312.054 241.975 311.24 241.711 310.155 241.711C309.407 241.711 308.696 241.835 308.021 242.085C307.346 242.334 306.774 242.664 306.305 243.075L305.601 241.909C306.188 241.41 306.892 241.029 307.713 240.765C308.534 240.486 309.4 240.347 310.309 240.347C311.805 240.347 312.956 240.721 313.763 241.469C314.584 242.202 314.995 243.324 314.995 244.835V252.007H313.499ZM309.517 252.117C308.652 252.117 307.896 251.977 307.251 251.699C306.62 251.405 306.136 251.009 305.799 250.511C305.462 249.997 305.293 249.411 305.293 248.751C305.293 248.149 305.432 247.607 305.711 247.123C306.004 246.624 306.474 246.228 307.119 245.935C307.779 245.627 308.659 245.473 309.759 245.473H313.741V246.639H309.803C308.688 246.639 307.911 246.837 307.471 247.233C307.046 247.629 306.833 248.12 306.833 248.707C306.833 249.367 307.09 249.895 307.603 250.291C308.116 250.687 308.835 250.885 309.759 250.885C310.639 250.885 311.394 250.687 312.025 250.291C312.67 249.88 313.14 249.293 313.433 248.531L313.785 249.609C313.492 250.371 312.978 250.98 312.245 251.435C311.526 251.889 310.617 252.117 309.517 252.117ZM319.238 252.007V240.457H320.734V243.603L320.58 243.053C320.902 242.173 321.445 241.505 322.208 241.051C322.97 240.581 323.916 240.347 325.046 240.347V241.865C324.987 241.865 324.928 241.865 324.87 241.865C324.811 241.85 324.752 241.843 324.694 241.843C323.476 241.843 322.523 242.217 321.834 242.965C321.144 243.698 320.8 244.747 320.8 246.111V252.007H319.238ZM327.896 252.007V240.457H329.458V252.007H327.896ZM328.688 237.905C328.365 237.905 328.094 237.795 327.874 237.575C327.654 237.355 327.544 237.091 327.544 236.783C327.544 236.475 327.654 236.218 327.874 236.013C328.094 235.793 328.365 235.683 328.688 235.683C329.01 235.683 329.282 235.785 329.502 235.991C329.722 236.196 329.832 236.453 329.832 236.761C329.832 237.083 329.722 237.355 329.502 237.575C329.296 237.795 329.025 237.905 328.688 237.905ZM339.7 240.347C340.639 240.347 341.46 240.53 342.164 240.897C342.883 241.249 343.44 241.791 343.836 242.525C344.247 243.258 344.452 244.182 344.452 245.297V252.007H342.89V245.451C342.89 244.233 342.582 243.317 341.966 242.701C341.365 242.07 340.514 241.755 339.414 241.755C338.593 241.755 337.874 241.923 337.258 242.261C336.657 242.583 336.187 243.06 335.85 243.691C335.527 244.307 335.366 245.055 335.366 245.935V252.007H333.804V240.457H335.3V243.625L335.058 243.031C335.425 242.195 336.011 241.542 336.818 241.073C337.625 240.589 338.585 240.347 339.7 240.347ZM353.599 256.385C352.543 256.385 351.531 256.231 350.563 255.923C349.595 255.615 348.81 255.175 348.209 254.603L349.001 253.415C349.544 253.899 350.211 254.28 351.003 254.559C351.81 254.852 352.66 254.999 353.555 254.999C355.022 254.999 356.1 254.654 356.789 253.965C357.478 253.29 357.823 252.234 357.823 250.797V247.915L358.043 245.935L357.889 243.955V240.457H359.385V250.599C359.385 252.593 358.894 254.053 357.911 254.977C356.943 255.915 355.506 256.385 353.599 256.385ZM353.313 251.567C352.213 251.567 351.223 251.332 350.343 250.863C349.463 250.379 348.766 249.711 348.253 248.861C347.754 248.01 347.505 247.035 347.505 245.935C347.505 244.835 347.754 243.867 348.253 243.031C348.766 242.18 349.463 241.52 350.343 241.051C351.223 240.581 352.213 240.347 353.313 240.347C354.34 240.347 355.264 240.559 356.085 240.985C356.906 241.41 357.559 242.041 358.043 242.877C358.527 243.713 358.769 244.732 358.769 245.935C358.769 247.137 358.527 248.157 358.043 248.993C357.559 249.829 356.906 250.467 356.085 250.907C355.264 251.347 354.34 251.567 353.313 251.567ZM353.467 250.181C354.318 250.181 355.073 250.005 355.733 249.653C356.393 249.286 356.914 248.787 357.295 248.157C357.676 247.511 357.867 246.771 357.867 245.935C357.867 245.099 357.676 244.365 357.295 243.735C356.914 243.104 356.393 242.613 355.733 242.261C355.073 241.894 354.318 241.711 353.467 241.711C352.631 241.711 351.876 241.894 351.201 242.261C350.541 242.613 350.02 243.104 349.639 243.735C349.272 244.365 349.089 245.099 349.089 245.935C349.089 246.771 349.272 247.511 349.639 248.157C350.02 248.787 350.541 249.286 351.201 249.653C351.876 250.005 352.631 250.181 353.467 250.181ZM369.578 256.385C369.035 256.385 368.514 256.297 368.016 256.121C367.532 255.945 367.114 255.681 366.762 255.329L367.488 254.163C367.781 254.441 368.096 254.654 368.434 254.801C368.786 254.962 369.174 255.043 369.6 255.043C370.113 255.043 370.553 254.896 370.92 254.603C371.301 254.324 371.66 253.825 371.998 253.107L372.746 251.413L372.922 251.171L377.674 240.457H379.214L373.428 253.393C373.105 254.141 372.746 254.735 372.35 255.175C371.968 255.615 371.55 255.923 371.096 256.099C370.641 256.289 370.135 256.385 369.578 256.385ZM372.658 252.337L367.334 240.457H368.962L373.67 251.061L372.658 252.337ZM385.799 252.117C384.684 252.117 383.68 251.867 382.785 251.369C381.905 250.855 381.208 250.159 380.695 249.279C380.182 248.384 379.925 247.365 379.925 246.221C379.925 245.062 380.182 244.043 380.695 243.163C381.208 242.283 381.905 241.593 382.785 241.095C383.665 240.596 384.67 240.347 385.799 240.347C386.943 240.347 387.955 240.596 388.835 241.095C389.73 241.593 390.426 242.283 390.925 243.163C391.438 244.043 391.695 245.062 391.695 246.221C391.695 247.365 391.438 248.384 390.925 249.279C390.426 250.159 389.73 250.855 388.835 251.369C387.94 251.867 386.928 252.117 385.799 252.117ZM385.799 250.731C386.635 250.731 387.376 250.547 388.021 250.181C388.666 249.799 389.172 249.271 389.539 248.597C389.92 247.907 390.111 247.115 390.111 246.221C390.111 245.311 389.92 244.519 389.539 243.845C389.172 243.17 388.666 242.649 388.021 242.283C387.376 241.901 386.642 241.711 385.821 241.711C385 241.711 384.266 241.901 383.621 242.283C382.976 242.649 382.462 243.17 382.081 243.845C381.7 244.519 381.509 245.311 381.509 246.221C381.509 247.115 381.7 247.907 382.081 248.597C382.462 249.271 382.976 249.799 383.621 250.181C384.266 250.547 384.992 250.731 385.799 250.731ZM399.658 252.117C398.675 252.117 397.817 251.933 397.084 251.567C396.351 251.2 395.779 250.65 395.368 249.917C394.972 249.183 394.774 248.267 394.774 247.167V240.457H396.336V246.991C396.336 248.223 396.637 249.154 397.238 249.785C397.854 250.401 398.712 250.709 399.812 250.709C400.619 250.709 401.315 250.547 401.902 250.225C402.503 249.887 402.958 249.403 403.266 248.773C403.589 248.142 403.75 247.387 403.75 246.507V240.457H405.312V252.007H403.816V248.839L404.058 249.411C403.691 250.261 403.119 250.929 402.342 251.413C401.579 251.882 400.685 252.117 399.658 252.117ZM409.665 252.007V240.457H411.161V243.603L411.007 243.053C411.33 242.173 411.873 241.505 412.635 241.051C413.398 240.581 414.344 240.347 415.473 240.347V241.865C415.415 241.865 415.356 241.865 415.297 241.865C415.239 241.85 415.18 241.843 415.121 241.843C413.904 241.843 412.951 242.217 412.261 242.965C411.572 243.698 411.227 244.747 411.227 246.111V252.007H409.665ZM429.181 256.385C428.125 256.385 427.113 256.231 426.145 255.923C425.177 255.615 424.393 255.175 423.791 254.603L424.583 253.415C425.126 253.899 425.793 254.28 426.585 254.559C427.392 254.852 428.243 254.999 429.137 254.999C430.604 254.999 431.682 254.654 432.371 253.965C433.061 253.29 433.405 252.234 433.405 250.797V247.915L433.625 245.935L433.471 243.955V240.457H434.967V250.599C434.967 252.593 434.476 254.053 433.493 254.977C432.525 255.915 431.088 256.385 429.181 256.385ZM428.895 251.567C427.795 251.567 426.805 251.332 425.925 250.863C425.045 250.379 424.349 249.711 423.835 248.861C423.337 248.01 423.087 247.035 423.087 245.935C423.087 244.835 423.337 243.867 423.835 243.031C424.349 242.18 425.045 241.52 425.925 241.051C426.805 240.581 427.795 240.347 428.895 240.347C429.922 240.347 430.846 240.559 431.667 240.985C432.489 241.41 433.141 242.041 433.625 242.877C434.109 243.713 434.351 244.732 434.351 245.935C434.351 247.137 434.109 248.157 433.625 248.993C433.141 249.829 432.489 250.467 431.667 250.907C430.846 251.347 429.922 251.567 428.895 251.567ZM429.049 250.181C429.9 250.181 430.655 250.005 431.315 249.653C431.975 249.286 432.496 248.787 432.877 248.157C433.259 247.511 433.449 246.771 433.449 245.935C433.449 245.099 433.259 244.365 432.877 243.735C432.496 243.104 431.975 242.613 431.315 242.261C430.655 241.894 429.9 241.711 429.049 241.711C428.213 241.711 427.458 241.894 426.783 242.261C426.123 242.613 425.603 243.104 425.221 243.735C424.855 244.365 424.671 245.099 424.671 245.935C424.671 246.771 424.855 247.511 425.221 248.157C425.603 248.787 426.123 249.286 426.783 249.653C427.458 250.005 428.213 250.181 429.049 250.181ZM439.314 252.007V240.457H440.876V252.007H439.314ZM440.106 237.905C439.783 237.905 439.512 237.795 439.292 237.575C439.072 237.355 438.962 237.091 438.962 236.783C438.962 236.475 439.072 236.218 439.292 236.013C439.512 235.793 439.783 235.683 440.106 235.683C440.428 235.683 440.7 235.785 440.92 235.991C441.14 236.196 441.25 236.453 441.25 236.761C441.25 237.083 441.14 237.355 440.92 237.575C440.714 237.795 440.443 237.905 440.106 237.905ZM445.486 252.007V239.005C445.486 237.978 445.787 237.149 446.388 236.519C446.989 235.888 447.855 235.573 448.984 235.573C449.424 235.573 449.849 235.631 450.26 235.749C450.671 235.866 451.015 236.049 451.294 236.299L450.766 237.465C450.546 237.274 450.289 237.135 449.996 237.047C449.703 236.944 449.387 236.893 449.05 236.893C448.39 236.893 447.884 237.076 447.532 237.443C447.18 237.809 447.004 238.352 447.004 239.071V240.831L447.048 241.557V252.007H445.486ZM443.418 241.755V240.457H450.568V241.755H443.418ZM456.329 252.117C455.244 252.117 454.408 251.823 453.821 251.237C453.234 250.65 452.941 249.821 452.941 248.751V237.905H454.503V248.663C454.503 249.337 454.672 249.858 455.009 250.225C455.361 250.591 455.86 250.775 456.505 250.775C457.194 250.775 457.766 250.577 458.221 250.181L458.771 251.303C458.463 251.581 458.089 251.787 457.649 251.919C457.224 252.051 456.784 252.117 456.329 252.117ZM450.873 241.755V240.457H458.023V241.755H450.873ZM464.717 252.117C463.763 252.117 462.861 251.985 462.011 251.721C461.16 251.442 460.493 251.097 460.009 250.687L460.713 249.455C461.182 249.807 461.783 250.115 462.517 250.379C463.25 250.628 464.02 250.753 464.827 250.753C465.927 250.753 466.719 250.584 467.203 250.247C467.687 249.895 467.929 249.433 467.929 248.861C467.929 248.435 467.789 248.105 467.511 247.871C467.247 247.621 466.895 247.438 466.455 247.321C466.015 247.189 465.523 247.079 464.981 246.991C464.438 246.903 463.895 246.8 463.353 246.683C462.825 246.565 462.341 246.397 461.901 246.177C461.461 245.942 461.101 245.627 460.823 245.231C460.559 244.835 460.427 244.307 460.427 243.647C460.427 243.016 460.603 242.451 460.955 241.953C461.307 241.454 461.82 241.065 462.495 240.787C463.184 240.493 464.02 240.347 465.003 240.347C465.751 240.347 466.499 240.449 467.247 240.655C467.995 240.845 468.611 241.102 469.095 241.425L468.413 242.679C467.899 242.327 467.349 242.077 466.763 241.931C466.176 241.769 465.589 241.689 465.003 241.689C463.961 241.689 463.191 241.872 462.693 242.239C462.209 242.591 461.967 243.045 461.967 243.603C461.967 244.043 462.099 244.387 462.363 244.637C462.641 244.886 463.001 245.084 463.441 245.231C463.895 245.363 464.387 245.473 464.915 245.561C465.457 245.649 465.993 245.759 466.521 245.891C467.063 246.008 467.555 246.177 467.995 246.397C468.449 246.602 468.809 246.903 469.073 247.299C469.351 247.68 469.491 248.186 469.491 248.817C469.491 249.491 469.3 250.078 468.919 250.577C468.552 251.061 468.009 251.442 467.291 251.721C466.587 251.985 465.729 252.117 464.717 252.117ZM480.469 252.007L476.113 240.457H477.609L481.569 251.171H480.887L484.957 240.457H486.299L490.325 251.171H489.643L493.669 240.457H495.099L490.721 252.007H489.247L485.375 241.931H485.837L481.943 252.007H480.469ZM497.45 252.007V240.457H499.012V252.007H497.45ZM498.242 237.905C497.92 237.905 497.648 237.795 497.428 237.575C497.208 237.355 497.098 237.091 497.098 236.783C497.098 236.475 497.208 236.218 497.428 236.013C497.648 235.793 497.92 235.683 498.242 235.683C498.565 235.683 498.836 235.785 499.056 235.991C499.276 236.196 499.386 236.453 499.386 236.761C499.386 237.083 499.276 237.355 499.056 237.575C498.851 237.795 498.58 237.905 498.242 237.905ZM507.011 252.117C505.925 252.117 505.089 251.823 504.503 251.237C503.916 250.65 503.623 249.821 503.623 248.751V237.905H505.185V248.663C505.185 249.337 505.353 249.858 505.691 250.225C506.043 250.591 506.541 250.775 507.187 250.775C507.876 250.775 508.448 250.577 508.903 250.181L509.453 251.303C509.145 251.581 508.771 251.787 508.331 251.919C507.905 252.051 507.465 252.117 507.011 252.117ZM501.555 241.755V240.457H508.705V241.755H501.555ZM518.192 240.347C519.131 240.347 519.952 240.53 520.656 240.897C521.375 241.249 521.932 241.791 522.328 242.525C522.739 243.258 522.944 244.182 522.944 245.297V252.007H521.382V245.451C521.382 244.233 521.074 243.317 520.458 242.701C519.857 242.07 519.006 241.755 517.906 241.755C517.085 241.755 516.366 241.923 515.75 242.261C515.149 242.583 514.679 243.06 514.342 243.691C514.019 244.307 513.858 245.055 513.858 245.935V252.007H512.296V235.683H513.858V243.625L513.55 243.031C513.917 242.195 514.503 241.542 515.31 241.073C516.117 240.589 517.077 240.347 518.192 240.347ZM537.695 252.117C536.712 252.117 535.854 251.933 535.121 251.567C534.388 251.2 533.816 250.65 533.405 249.917C533.009 249.183 532.811 248.267 532.811 247.167V240.457H534.373V246.991C534.373 248.223 534.674 249.154 535.275 249.785C535.891 250.401 536.749 250.709 537.849 250.709C538.656 250.709 539.352 250.547 539.939 250.225C540.54 249.887 540.995 249.403 541.303 248.773C541.626 248.142 541.787 247.387 541.787 246.507V240.457H543.349V252.007H541.853V248.839L542.095 249.411C541.728 250.261 541.156 250.929 540.379 251.413C539.616 251.882 538.722 252.117 537.695 252.117ZM550.804 252.117C549.851 252.117 548.949 251.985 548.098 251.721C547.248 251.442 546.58 251.097 546.096 250.687L546.8 249.455C547.27 249.807 547.871 250.115 548.604 250.379C549.338 250.628 550.108 250.753 550.914 250.753C552.014 250.753 552.806 250.584 553.29 250.247C553.774 249.895 554.016 249.433 554.016 248.861C554.016 248.435 553.877 248.105 553.598 247.871C553.334 247.621 552.982 247.438 552.542 247.321C552.102 247.189 551.611 247.079 551.068 246.991C550.526 246.903 549.983 246.8 549.44 246.683C548.912 246.565 548.428 246.397 547.988 246.177C547.548 245.942 547.189 245.627 546.91 245.231C546.646 244.835 546.514 244.307 546.514 243.647C546.514 243.016 546.69 242.451 547.042 241.953C547.394 241.454 547.908 241.065 548.582 240.787C549.272 240.493 550.108 240.347 551.09 240.347C551.838 240.347 552.586 240.449 553.334 240.655C554.082 240.845 554.698 241.102 555.182 241.425L554.5 242.679C553.987 242.327 553.437 242.077 552.85 241.931C552.264 241.769 551.677 241.689 551.09 241.689C550.049 241.689 549.279 241.872 548.78 242.239C548.296 242.591 548.054 243.045 548.054 243.603C548.054 244.043 548.186 244.387 548.45 244.637C548.729 244.886 549.088 245.084 549.528 245.231C549.983 245.363 550.474 245.473 551.002 245.561C551.545 245.649 552.08 245.759 552.608 245.891C553.151 246.008 553.642 246.177 554.082 246.397C554.537 246.602 554.896 246.903 555.16 247.299C555.439 247.68 555.578 248.186 555.578 248.817C555.578 249.491 555.388 250.078 555.006 250.577C554.64 251.061 554.097 251.442 553.378 251.721C552.674 251.985 551.816 252.117 550.804 252.117ZM558.511 247.387L558.203 236.607H560.051L559.721 247.387H558.511ZM559.127 252.117C558.804 252.117 558.525 252.007 558.291 251.787C558.071 251.552 557.961 251.281 557.961 250.973C557.961 250.65 558.071 250.386 558.291 250.181C558.525 249.961 558.804 249.851 559.127 249.851C559.464 249.851 559.735 249.961 559.941 250.181C560.161 250.386 560.271 250.65 560.271 250.973C560.271 251.281 560.161 251.552 559.941 251.787C559.735 252.007 559.464 252.117 559.127 252.117Z" fill="#820263"/>
<path d="M297.217 116.246H286.96V117.111H297.217V130.121C297.217 134.06 298.683 137.724 301.214 140.463C297.885 142.462 294.221 143.269 290.558 143.269C277.638 143.269 269.513 131.655 269.513 113.972C269.513 96.2888 276.035 85.6187 289.027 85.6187C297.819 85.6187 307.743 92.1597 310.144 105.707H311.08C308.751 91.2946 298.356 83.5542 284.304 83.5542C265.444 83.5476 252.262 97.1605 252.262 114.843C252.262 134.866 269.382 145.608 286.162 145.608C291.958 145.608 297.42 144.343 301.947 141.27C304.747 143.937 308.541 145.608 312.669 145.608V131.727C312.669 123.187 305.741 116.246 297.217 116.246Z" fill="#820263"/>
<path d="M332.916 87.6831C332.916 83.3443 329.717 79.7461 324.791 79.7461C319.865 79.7461 316.797 83.3443 316.797 87.6831C316.797 92.0219 319.996 95.6201 324.791 95.6201C329.586 95.6201 332.916 91.9498 332.916 87.6831ZM317.602 102.502V130.927C317.602 139.067 324.13 145.608 332.255 145.608V117.177C332.255 109.036 325.661 102.495 317.602 102.495V102.502Z" fill="#820263"/>
<path d="M397.458 130.324C397.19 139.801 392.394 142.738 389.464 142.738C386.33 142.738 385.336 140.935 385.336 136.662V103.361H397.458V102.495H385.336C385.336 96.2887 380.338 91.2879 374.149 91.2879H370.689V102.495H364.827H354.903V90.4818C354.903 83.4099 358.9 79.2743 364.624 79.2743C368.955 79.2743 372.416 81.6075 373.881 85.9463L374.679 85.6121C372.481 80.0739 367.817 77 360.359 77C349.964 77 340.243 83.0101 340.243 101.093V102.495H332.982V103.361H340.243L340.308 131.052C340.308 139.061 346.831 145.602 354.897 145.602V103.367H367.084H370.682V132.264C370.682 143.275 378.009 146.408 384.538 146.408C391.066 146.408 398.321 142.004 398.321 130.324H397.458Z" fill="#820263"/>
<path d="M258.588 195.007C257.397 195.007 256.292 194.803 255.278 194.391C254.27 193.978 253.394 193.407 252.661 192.667C251.922 191.92 251.346 191.041 250.927 190.032C250.515 189.016 250.312 187.909 250.312 186.716C250.312 185.523 250.522 184.422 250.941 183.412C251.366 182.397 251.948 181.512 252.687 180.765C253.426 180.017 254.29 179.434 255.291 179.015C256.298 178.589 257.391 178.372 258.575 178.372C259.759 178.372 260.963 178.615 262.022 179.093C263.089 179.565 264.005 180.253 264.776 181.145L262.349 183.504C261.885 182.96 261.342 182.534 260.714 182.22C260.093 181.912 259.412 181.754 258.666 181.754C257.986 181.754 257.358 181.879 256.782 182.121C256.207 182.364 255.71 182.711 255.284 183.144C254.866 183.583 254.539 184.107 254.316 184.717C254.087 185.32 253.976 185.969 253.976 186.67C253.976 187.371 254.094 188.04 254.329 188.649C254.565 189.252 254.892 189.776 255.31 190.222C255.736 190.668 256.239 191.015 256.822 191.258C257.41 191.507 258.058 191.625 258.758 191.625C259.51 191.625 260.204 191.467 260.845 191.146C261.479 190.832 262.022 190.399 262.467 189.862L264.894 192.169C264.129 193.073 263.213 193.768 262.14 194.259C261.067 194.751 259.883 195 258.581 195L258.588 195.007Z" fill="#820263"/>
<path d="M281.576 195.007C280.405 195.007 279.319 194.79 278.318 194.364C277.317 193.938 276.454 193.348 275.714 192.601C274.975 191.854 274.393 190.982 273.968 189.98C273.549 188.97 273.34 187.876 273.34 186.689C273.34 185.503 273.549 184.422 273.968 183.412C274.393 182.397 274.975 181.512 275.714 180.765C276.454 180.017 277.317 179.434 278.318 179.015C279.319 178.589 280.405 178.372 281.576 178.372C282.747 178.372 283.813 178.589 284.821 179.015C285.828 179.434 286.705 180.017 287.437 180.765C288.177 181.512 288.752 182.397 289.171 183.412C289.596 184.422 289.812 185.516 289.812 186.689C289.812 187.863 289.596 188.97 289.171 189.98C288.752 190.982 288.177 191.854 287.437 192.601C286.698 193.348 285.828 193.938 284.821 194.364C283.813 194.79 282.727 195.007 281.576 195.007ZM281.576 191.631C282.237 191.631 282.845 191.507 283.401 191.264C283.951 191.015 284.428 190.674 284.834 190.229C285.246 189.783 285.56 189.259 285.789 188.656C286.024 188.046 286.142 187.391 286.142 186.689C286.142 185.988 286.024 185.352 285.789 184.749C285.56 184.14 285.246 183.616 284.834 183.176C284.435 182.737 283.957 182.397 283.401 182.141C282.845 181.885 282.237 181.761 281.576 181.761C280.915 181.761 280.3 181.892 279.738 182.141C279.182 182.397 278.704 182.744 278.292 183.176C277.893 183.616 277.579 184.14 277.35 184.749C277.121 185.352 277.01 186.001 277.01 186.689C277.01 187.378 277.121 188.046 277.35 188.656C277.572 189.259 277.886 189.776 278.292 190.216C278.704 190.655 279.182 191.002 279.738 191.251C280.3 191.507 280.915 191.631 281.576 191.631Z" fill="#820263"/>
<path d="M299.566 178.431H301.352L307.907 187.076L314.409 178.431H316.195V194.679H312.722V185.791L308.548 191.297H307.174L303.046 185.824V194.685H299.572V178.438L299.566 178.431Z" fill="#820263"/>
<path d="M326.898 178.713H331.726C332.576 178.713 333.368 178.851 334.081 179.126C334.807 179.395 335.428 179.768 335.945 180.26C336.468 180.745 336.881 181.309 337.175 181.964C337.476 182.619 337.626 183.34 337.626 184.12C337.626 184.9 337.476 185.615 337.175 186.277C336.881 186.932 336.481 187.502 335.978 187.981C335.474 188.453 334.866 188.826 334.153 189.101C333.446 189.37 332.674 189.495 331.85 189.495H330.378V194.672H326.904V178.713H326.898ZM331.726 186.237C332.452 186.237 333.04 186.054 333.485 185.68C333.93 185.307 334.153 184.789 334.153 184.12C334.153 183.452 333.93 182.947 333.485 182.56C333.04 182.174 332.452 181.971 331.726 181.971H330.378V186.231H331.726V186.237Z" fill="#820263"/>
<path d="M352.234 178.431H354.445L360.725 194.679H357.062L356.094 191.992H350.599L349.644 194.679H345.947L352.228 178.431H352.234ZM355.014 188.983L353.353 184.284L351.665 188.983H355.021H355.014Z" fill="#820263"/>
<path d="M369.891 178.713H374.882C375.706 178.713 376.472 178.844 377.172 179.093C377.878 179.349 378.487 179.709 378.997 180.175C379.507 180.633 379.9 181.177 380.181 181.813C380.469 182.449 380.619 183.144 380.619 183.891C380.619 184.841 380.39 185.7 379.926 186.473C379.468 187.24 378.84 187.836 378.029 188.276L381.764 194.679H377.715L374.62 189.082H373.364V194.679H369.891V178.72V178.713ZM374.718 186.008C375.464 186.008 376.053 185.824 376.491 185.451C376.93 185.077 377.145 184.566 377.145 183.911C377.145 183.255 376.923 182.783 376.478 182.462C376.033 182.147 375.445 181.984 374.718 181.984H373.371V186.014H374.718V186.008Z" fill="#820263"/>
<path d="M391.047 178.713H400.153V181.977H394.527V184.913H398.642V188.177H394.527V191.415H400.277V194.679H391.053V178.72L391.047 178.713Z" fill="#820263"/>
<mask id="mask0_130_60" style="mask-type:luminance" maskUnits="userSpaceOnUse" x="263" y="157" width="37" height="19">
<path d="M299.965 157.576H263.377V175.351H299.965V157.576Z" fill="white"/>
</mask>
<g mask="url(#mask0_130_60)">
<mask id="mask1_130_60" style="mask-type:luminance" maskUnits="userSpaceOnUse" x="264" y="157" width="36" height="18">
<path d="M279.07 173.614C261.25 171.307 265.967 156.973 273.817 163.377C277.788 166.614 279.986 173.391 279.986 173.391C279.986 173.391 281.596 172.231 283.336 173.391C283.336 173.391 285.534 166.614 289.505 163.377C297.355 156.973 302.071 171.307 284.252 173.614C285.135 173.837 286.07 174.132 287.051 174.197C287.817 174.25 288.608 174.106 289.38 174.073C289.38 174.073 296.066 172.362 298.408 166.739C301.43 159.464 293.783 154.443 287.83 159.929C284.696 162.806 282.858 167.532 281.661 170.167C280.464 167.512 278.632 162.806 275.505 159.929C269.545 154.45 261.898 159.47 264.92 166.739C267.256 172.362 273.948 174.066 273.948 174.066C274.707 174.099 275.466 174.328 276.212 174.283C277.212 174.21 278.181 173.837 279.083 173.607L279.07 173.614Z" fill="white"/>
</mask>
<g mask="url(#mask1_130_60)">
<path d="M261.25 154.45V174.335H301.908V154.45H261.25Z" fill="#820263"/>
</g>
</g>
<mask id="mask2_130_60" style="mask-type:luminance" maskUnits="userSpaceOnUse" x="276" y="167" width="11" height="8">
<path d="M286.659 167.571H276.683V174.237H286.659V167.571Z" fill="white"/>
</mask>
<g mask="url(#mask2_130_60)">
<mask id="mask3_130_60" style="mask-type:luminance" maskUnits="userSpaceOnUse" x="277" y="168" width="10" height="7">
<path d="M286.378 168.2H277.082V174.053H286.378V168.2Z" fill="white"/>
</mask>
<g mask="url(#mask3_130_60)">
<mask id="mask4_130_60" style="mask-type:luminance" maskUnits="userSpaceOnUse" x="276" y="167" width="11" height="8">
<path d="M286.659 167.571H276.683V174.237H286.659V167.571Z" fill="white"/>
</mask>
<g mask="url(#mask4_130_60)">
<mask id="mask5_130_60" style="mask-type:luminance" maskUnits="userSpaceOnUse" x="277" y="168" width="9" height="6">
<path d="M285.547 168.685H277.788V173.863H285.547V168.685Z" fill="white"/>
</mask>
<g mask="url(#mask5_130_60)">
<path fill-rule="evenodd" clip-rule="evenodd" d="M277.965 168.764C279.293 171.222 279.986 173.385 279.986 173.385C279.986 173.385 281.596 172.224 283.336 173.385C283.336 173.385 284.036 171.235 285.357 168.77C283.009 171.589 280.307 171.602 277.965 168.764Z" fill="#820263"/>
</g>
</g>
<mask id="mask6_130_60" style="mask-type:luminance" maskUnits="userSpaceOnUse" x="276" y="167" width="11" height="8">
<path d="M286.659 167.571H276.683V174.237H286.659V167.571Z" fill="white"/>
</mask>
<g mask="url(#mask6_130_60)">
<mask id="mask7_130_60" style="mask-type:luminance" maskUnits="userSpaceOnUse" x="277" y="168" width="9" height="6">
<path d="M285.547 168.685H277.788V173.863H285.547V168.685Z" fill="white"/>
</mask>
<g mask="url(#mask7_130_60)">
<path fill-rule="evenodd" clip-rule="evenodd" d="M277.965 168.764C279.293 171.222 279.986 173.385 279.986 173.385C279.986 173.385 281.596 172.224 283.336 173.385C283.336 173.385 284.036 171.235 285.357 168.77C283.009 171.589 280.307 171.602 277.965 168.764Z" fill="#820263"/>
</g>
</g>
</g>
</g>
<mask id="mask8_130_60" style="mask-type:luminance" maskUnits="userSpaceOnUse" x="283" y="170" width="17" height="6">
<path d="M299.965 170.907H283.336V175.351H299.965V170.907Z" fill="white"/>
</mask>
<g mask="url(#mask8_130_60)">
<mask id="mask9_130_60" style="mask-type:luminance" maskUnits="userSpaceOnUse" x="284" y="171" width="16" height="5">
<path d="M284.252 173.614C284.252 173.614 290.074 177.278 299.736 173.797C299.736 173.797 296.602 173.961 297.917 171.445C295.117 173.778 288.785 174.754 284.252 173.607V173.614Z" fill="white"/>
</mask>
<g mask="url(#mask9_130_60)">
<path d="M284.252 171.451V176.897H299.736V171.451H284.252Z" fill="#820263"/>
</g>
</g>
<mask id="mask10_130_60" style="mask-type:luminance" maskUnits="userSpaceOnUse" x="293" y="170" width="6" height="6">
<path d="M298.853 170.907H293.312V175.351H298.853V170.907Z" fill="white"/>
</mask>
<g mask="url(#mask10_130_60)">
<mask id="mask11_130_60" style="mask-type:luminance" maskUnits="userSpaceOnUse" x="293" y="171" width="6" height="4">
<path d="M298.591 171.13H293.547V174.322H298.591V171.13Z" fill="white"/>
</mask>
<g mask="url(#mask11_130_60)">
<mask id="mask12_130_60" style="mask-type:luminance" maskUnits="userSpaceOnUse" x="293" y="170" width="6" height="6">
<path d="M298.853 170.907H293.312V175.351H298.853V170.907Z" fill="white"/>
</mask>
<g mask="url(#mask12_130_60)">
<mask id="mask13_130_60" style="mask-type:luminance" maskUnits="userSpaceOnUse" x="293" y="171" width="6" height="4">
<path d="M298.349 171.156H293.561V174.178H298.349V171.156Z" fill="white"/>
</mask>
<g mask="url(#mask13_130_60)">
<path fill-rule="evenodd" clip-rule="evenodd" d="M297.852 173.227C297.551 172.88 297.459 172.329 297.924 171.451C296.962 172.251 295.582 172.893 293.999 173.345C294.797 173.181 295.909 173.09 295.726 173.916C296.413 173.732 297.126 173.503 297.859 173.234L297.852 173.227Z" fill="#820263"/>
</g>
</g>
<mask id="mask14_130_60" style="mask-type:luminance" maskUnits="userSpaceOnUse" x="293" y="170" width="6" height="6">
<path d="M298.853 170.907H293.312V175.351H298.853V170.907Z" fill="white"/>
</mask>
<g mask="url(#mask14_130_60)">
<mask id="mask15_130_60" style="mask-type:luminance" maskUnits="userSpaceOnUse" x="293" y="171" width="6" height="4">
<path d="M298.349 171.156H293.561V174.178H298.349V171.156Z" fill="white"/>
</mask>
<g mask="url(#mask15_130_60)">
<path fill-rule="evenodd" clip-rule="evenodd" d="M297.852 173.227C297.551 172.88 297.459 172.329 297.924 171.451C296.962 172.251 295.582 172.893 293.999 173.345C294.797 173.181 295.909 173.09 295.726 173.916C296.413 173.732 297.126 173.503 297.859 173.234L297.852 173.227Z" fill="#820263"/>
</g>
</g>
</g>
</g>
<mask id="mask16_130_60" style="mask-type:luminance" maskUnits="userSpaceOnUse" x="282" y="172" width="20" height="5">
<path d="M301.901 172.015H282.224V176.459H301.901V172.015Z" fill="white"/>
</mask>
<g mask="url(#mask16_130_60)">
<mask id="mask17_130_60" style="mask-type:luminance" maskUnits="userSpaceOnUse" x="282" y="172" width="21" height="5">
<path d="M302.183 172.015H282.224V176.459H302.183V172.015Z" fill="white"/>
</mask>
<g mask="url(#mask17_130_60)">
<mask id="mask18_130_60" style="mask-type:luminance" maskUnits="userSpaceOnUse" x="282" y="172" width="20" height="4">
<path d="M301.509 172.991H282.655V175.652H301.509V172.991Z" fill="white"/>
</mask>
<g mask="url(#mask18_130_60)">
<mask id="mask19_130_60" style="mask-type:luminance" maskUnits="userSpaceOnUse" x="282" y="172" width="21" height="5">
<path d="M302.183 172.015H282.224V176.459H302.183V172.015Z" fill="white"/>
</mask>
<g mask="url(#mask19_130_60)">
<path fill-rule="evenodd" clip-rule="evenodd" d="M284.252 173.614C284.252 173.614 290.074 177.278 299.736 173.797C299.736 173.797 298.408 173.87 297.845 173.227C289.583 176.268 284.245 173.614 284.245 173.614H284.252Z" fill="#820263"/>
</g>
<mask id="mask20_130_60" style="mask-type:luminance" maskUnits="userSpaceOnUse" x="282" y="172" width="21" height="5">
<path d="M302.183 172.015H282.224V176.459H302.183V172.015Z" fill="white"/>
</mask>
<g mask="url(#mask20_130_60)">
<path fill-rule="evenodd" clip-rule="evenodd" d="M284.252 173.614C284.252 173.614 290.074 177.278 299.736 173.797C299.736 173.797 298.408 173.87 297.845 173.227C289.583 176.268 284.245 173.614 284.245 173.614H284.252Z" fill="#820263"/>
</g>
</g>
</g>
</g>
<path fill-rule="evenodd" clip-rule="evenodd" d="M289.505 163.37C294.66 159.169 298.46 163.901 295.425 168.305C299.553 163.717 295.608 158.12 290.139 162.57C289.289 163.259 288.523 164.117 287.843 165.028C288.353 164.419 288.909 163.855 289.505 163.37Z" fill="#820263"/>
<mask id="mask21_130_60" style="mask-type:luminance" maskUnits="userSpaceOnUse" x="282" y="155" width="20" height="16">
<path d="M301.071 155.354H282.224V170.907H301.071V155.354Z" fill="white"/>
</mask>
<g mask="url(#mask21_130_60)">
<mask id="mask22_130_60" style="mask-type:luminance" maskUnits="userSpaceOnUse" x="283" y="156" width="18" height="15">
<path d="M300.717 156.226H283.192V170.062H300.717V156.226Z" fill="white"/>
</mask>
<g mask="url(#mask22_130_60)">
<mask id="mask23_130_60" style="mask-type:luminance" maskUnits="userSpaceOnUse" x="282" y="155" width="20" height="16">
<path d="M301.071 155.354H282.224V170.907H301.071V155.354Z" fill="white"/>
</mask>
<g mask="url(#mask23_130_60)">
<path fill-rule="evenodd" clip-rule="evenodd" d="M287.333 160.702C293.292 155.23 300.933 160.244 297.917 167.512C297.747 167.925 297.551 168.312 297.335 168.685C297.747 168.095 298.114 167.447 298.408 166.739C301.43 159.464 293.783 154.443 287.83 159.929C286.659 161.004 285.678 162.328 284.834 163.711C285.56 162.616 286.391 161.574 287.339 160.702H287.333Z" fill="#820263"/>
</g>
<mask id="mask24_130_60" style="mask-type:luminance" maskUnits="userSpaceOnUse" x="282" y="155" width="20" height="16">
<path d="M301.071 155.354H282.224V170.907H301.071V155.354Z" fill="white"/>
</mask>
<g mask="url(#mask24_130_60)">
<path fill-rule="evenodd" clip-rule="evenodd" d="M287.333 160.702C293.292 155.23 300.933 160.244 297.917 167.512C297.747 167.925 297.551 168.312 297.335 168.685C297.747 168.095 298.114 167.447 298.408 166.739C301.43 159.464 293.783 154.443 287.83 159.929C286.659 161.004 285.678 162.328 284.834 163.711C285.56 162.616 286.391 161.574 287.339 160.702H287.333Z" fill="#820263"/>
</g>
</g>
</g>
<path fill-rule="evenodd" clip-rule="evenodd" d="M273.817 163.37C268.662 159.169 264.862 163.901 267.897 168.305C263.762 163.717 267.714 158.12 273.183 162.57C274.033 163.259 274.799 164.117 275.479 165.028C274.969 164.419 274.406 163.855 273.817 163.37Z" fill="#820263"/>
<mask id="mask25_130_60" style="mask-type:luminance" maskUnits="userSpaceOnUse" x="263" y="170" width="18" height="6">
<path d="M280.006 170.907H263.377V175.351H280.006V170.907Z" fill="white"/>
</mask>
<g mask="url(#mask25_130_60)">
<mask id="mask26_130_60" style="mask-type:luminance" maskUnits="userSpaceOnUse" x="263" y="171" width="17" height="5">
<path d="M279.07 173.614C279.07 173.614 273.248 177.278 263.579 173.797C263.579 173.797 266.713 173.961 265.398 171.445C268.204 173.778 274.53 174.754 279.07 173.607V173.614Z" fill="white"/>
</mask>
<g mask="url(#mask26_130_60)">
<path d="M263.579 171.451V176.897H279.07V171.451H263.579Z" fill="#820263"/>
</g>
</g>
<mask id="mask27_130_60" style="mask-type:luminance" maskUnits="userSpaceOnUse" x="264" y="170" width="7" height="6">
<path d="M270.03 170.907H264.489V175.351H270.03V170.907Z" fill="white"/>
</mask>
<g mask="url(#mask27_130_60)">
<mask id="mask28_130_60" style="mask-type:luminance" maskUnits="userSpaceOnUse" x="264" y="171" width="6" height="4">
<path d="M269.912 171.13H264.868V174.322H269.912V171.13Z" fill="white"/>
</mask>
<g mask="url(#mask28_130_60)">
<mask id="mask29_130_60" style="mask-type:luminance" maskUnits="userSpaceOnUse" x="264" y="170" width="7" height="6">
<path d="M270.03 170.907H264.489V175.351H270.03V170.907Z" fill="white"/>
</mask>
<g mask="url(#mask29_130_60)">
<mask id="mask30_130_60" style="mask-type:luminance" maskUnits="userSpaceOnUse" x="264" y="171" width="6" height="4">
<path d="M269.761 171.156H264.973V174.178H269.761V171.156Z" fill="white"/>
</mask>
<g mask="url(#mask30_130_60)">
<path fill-rule="evenodd" clip-rule="evenodd" d="M265.476 173.227C265.777 172.88 265.862 172.329 265.404 171.451C266.373 172.251 267.753 172.893 269.33 173.345C268.531 173.181 267.426 173.09 267.609 173.916C266.922 173.732 266.209 173.503 265.476 173.234V173.227Z" fill="#820263"/>
</g>
</g>
<mask id="mask31_130_60" style="mask-type:luminance" maskUnits="userSpaceOnUse" x="264" y="170" width="7" height="6">
<path d="M270.03 170.907H264.489V175.351H270.03V170.907Z" fill="white"/>
</mask>
<g mask="url(#mask31_130_60)">
<mask id="mask32_130_60" style="mask-type:luminance" maskUnits="userSpaceOnUse" x="264" y="171" width="6" height="4">
<path d="M269.761 171.156H264.973V174.178H269.761V171.156Z" fill="white"/>
</mask>
<g mask="url(#mask32_130_60)">
<path fill-rule="evenodd" clip-rule="evenodd" d="M265.476 173.227C265.777 172.88 265.862 172.329 265.404 171.451C266.373 172.251 267.753 172.893 269.33 173.345C268.531 173.181 267.426 173.09 267.609 173.916C266.922 173.732 266.209 173.503 265.476 173.234V173.227Z" fill="#820263"/>
</g>
</g>
</g>
</g>
<mask id="mask33_130_60" style="mask-type:luminance" maskUnits="userSpaceOnUse" x="261" y="172" width="21" height="5">
<path d="M281.111 172.015H261.244V176.459H281.111V172.015Z" fill="white"/>
</mask>
<g mask="url(#mask33_130_60)">
<mask id="mask34_130_60" style="mask-type:luminance" maskUnits="userSpaceOnUse" x="261" y="172" width="21" height="5">
<path d="M281.118 172.015H261.159V176.459H281.118V172.015Z" fill="white"/>
</mask>
<g mask="url(#mask34_130_60)">
<mask id="mask35_130_60" style="mask-type:luminance" maskUnits="userSpaceOnUse" x="261" y="172" width="20" height="4">
<path d="M280.804 172.991H261.95V175.652H280.804V172.991Z" fill="white"/>
</mask>
<g mask="url(#mask35_130_60)">
<mask id="mask36_130_60" style="mask-type:luminance" maskUnits="userSpaceOnUse" x="261" y="172" width="21" height="5">
<path d="M281.118 172.015H261.159V176.459H281.118V172.015Z" fill="white"/>
</mask>
<g mask="url(#mask36_130_60)">
<path fill-rule="evenodd" clip-rule="evenodd" d="M279.07 173.614C279.07 173.614 273.248 177.278 263.579 173.797C263.579 173.797 264.907 173.87 265.47 173.227C273.732 176.268 279.07 173.614 279.07 173.614Z" fill="#820263"/>
</g>
<mask id="mask37_130_60" style="mask-type:luminance" maskUnits="userSpaceOnUse" x="261" y="172" width="21" height="5">
<path d="M281.118 172.015H261.159V176.459H281.118V172.015Z" fill="white"/>
</mask>
<g mask="url(#mask37_130_60)">
<path fill-rule="evenodd" clip-rule="evenodd" d="M279.07 173.614C279.07 173.614 273.248 177.278 263.579 173.797C263.579 173.797 264.907 173.87 265.47 173.227C273.732 176.268 279.07 173.614 279.07 173.614Z" fill="#820263"/>
</g>
</g>
</g>
</g>
</g>
<defs>
<clipPath id="clip0_130_60">
<rect width="647" height="336" fill="white"/>
</clipPath>
</defs>
</svg>
