<?xml version="1.0" encoding="UTF-8"?>
<svg id="Objects" xmlns="http://www.w3.org/2000/svg" viewBox="0 0 800 800">
  <defs>
    <style>
      .cls-1, .cls-2 {
        fill: #575756;
        stroke-width: 0px;
      }

      .cls-2 {
        stroke: #e61d73;
        stroke-linecap: round;
        stroke-linejoin: round;
      }
    </style>
  </defs>
  <path class="cls-1" d="M521.61,319.52c-1.64-4.21-5.74-7.25-10.15-6.58.29-2.27.18-4.72-.44-7.33-2.87-12.14-15.27-18.61-27.13-17.1-14.21,1.81-27.86,14.84-35.74,26.06-.07.1-.1.21-.13.31-.63-.54-1.32-.99-2.02-1.3-1.35-.58-2.8-.76-4.19-.57-1.34-10.54-8.18-19.36-17.06-25.13-8.66-5.63-22.96-10.64-30.92-1.7-6.32,7.11-7.99,16.76-3.95,24.7-2.87-1.99-6.56-1.66-9.7.34-4.68,2.99-5.88,8.74-6.29,13.9-1.42,17.78-1.44,35.78-2.15,53.61-.72,17.81-1.43,35.62-2.15,53.44-.42,10.47-2.9,26.81,10.58,30.05,7.47,1.79,15.74,1.74,23.37,2.39,8.76.75,17.52,1.41,26.29,1.96,17.33,1.1,34.73,2.02,52.09,2.16,10.83.09,23.64-1.53,28.23-12.93,2.72-6.76,2.53-14.82,3.17-21.97.79-8.93,1.58-17.86,2.36-26.8,1.78-20.18,3.56-40.36,5.34-60.54.44-4.96.88-9.92,1.31-14.89.35-4.02.79-8.25-.71-12.1ZM449.94,315.94c7.96-8.74,17.53-18.91,28.95-22.91,11.15-3.91,25.48.43,28.75,12.8,2.39,9.03-2.05,15.22-8.65,19.17.02-.06.04-.12.06-.18,1.13-4.69-3.37-7.97-7.34-8.85-13.14-2.9-28.84.52-41.37,5.24.59-1.69.05-3.48-1.04-4.95.23-.02.45-.11.64-.31ZM494.22,327.2c-.26.17-.53.32-.81.47-1.02.39-2.06.73-3.1,1.04-.32.05-.64.1-.97.12-.24.03-.4.15-.5.29-.3.08-.6.16-.9.23-12.65,3.06-24.89,1.03-35.78-5.72,7.12-2.58,14.49-4.34,22.06-5.09,3.89-.38,7.82-.51,11.73-.37,1.87.07,3.91.09,5.73.59,3.86.69,4.71,3.5,2.54,8.44ZM448.67,324.84c.07.08.14.15.23.22,3.78,2.88,7.88,5.01,12.16,6.49-.09.2-.11.42.02.64,4.58,7.67,8.44,16.62,8.05,25.75-.35,8.21-5.18,15.19-7.23,22.97-1.23,4.67-2.09,11.09,2.67,14.09,4.52,2.86,9.71.62,13.69-2.21-1.63,2.43-3.26,4.86-4.89,7.29-.43.64-.13,1.63.52,2,1.88,1.05,3.67,2.16,5.59,3.06-3.56,1.51-6.89,3.03-11,3.11-5.45.11-10.59-2.1-13.53-6.82-6.32-10.15-.58-22.61,1.26-33.17,2.65-15.24-.45-32.85-13.01-42.91,1.6-.11,3.18-.5,4.48-1.22.19.39.53.68.99.71ZM470.86,365.13c.25-.9.49-1.8.67-2.72,1.15-5.95.34-12.22-1.76-18.04,1.43.57,2.96.97,4.56,1.28.05.11.11.22.19.33,7.47,9.45,2,17.44-1.13,27.02-2.03,6.21-1.33,12.76,1.45,18.57-2.17,1.16-4.55,2.09-6.78,1.62-2.06-3.44.6-10.05,1.28-13.78.78-4.29,1.59-8.59,2.26-12.9.1-.65-.27-1.15-.74-1.38ZM465.98,392.28c-3.72-2.68-1.53-9.44-.46-12.8.68-2.13,1.52-4.2,2.37-6.27-.78,4.36-1.5,8.73-2.1,13.1-.28,1.98-.75,4.36.2,5.96ZM449.79,381.65c.21-3.02.43-6.04.68-9.06.43-5.25.94-10.49,1.45-15.73.3-3.02.75-6.1.97-9.17.53,2.55.86,5.16.97,7.81.39,9.05-2.56,17.46-4.08,26.15ZM444.18,315.56c2.16.53,5.73,3.75,2.88,5.81-2.54,1.84-6.08,1.01-8.91.81-.03,0-.06.01-.09.01,0-.05,0-.1-.01-.15.6-.46.84-1.3.09-1.93-.02-.02-.05-.04-.07-.06.43-2.91,2.62-5.36,6.12-4.5ZM397.37,287.56c6.92-6.9,20.88-.46,27.5,4.28,7.36,5.27,12.58,13.02,15.88,21.39-1.45.42-2.76,1.28-3.7,2.62-.53.76-.9,1.61-1.12,2.48-5.58-4.36-11.81-8.21-18.4-10.72-4.91-1.88-13.2-3.21-16.22,2.57-2.03,3.88.69,7.24,3.96,9.3-1.76-.66-3.47-1.49-5.1-2.55-10.7-6.97-11.85-20.34-2.8-29.37ZM432.22,344.2c.4,11.69,1.41,23.51.9,35.21-.46,10.78-2.98,22.15-10.6,30.24-.97,1.03-2.04,1.97-3.17,2.82-.34.09-.65.3-.83.6-6.88,4.78-16.06,6.21-23.43,1.81,2.06-1.12,4.12-2.25,6.14-3.45.74-.44.87-1.29.53-2.03-1.03-2.28-1.8-4.62-2.45-7,4.57,3.14,11.06,2.57,15.75-.23,6.35-3.78,9.18-11.39,9.59-18.45.55-9.57-3.14-18.71-5.06-27.93-1.19-5.71-1.67-11.51-.19-17.22,1.34-5.19,4.48-12,9.77-14.17,1.42-.16,2.83-.34,4.22-.53.68-.09,1.02-.63,1.06-1.21.22-.03.45-.05.66-.08.39-.05.68-.24.87-.49.2.7.54,1.36.98,1.96-5.03,5.32-4.98,13.19-4.74,20.14ZM403.41,363.95c-2.06-6.66-5.92-17.83,3.22-21.22.55-.2.81-.65.85-1.12,1.09.05,2.18.09,3.26.12-2.8,2.61-4.49,6.17-5.01,10.05-.95,7.11,3.25,12.23,5.02,18.75,2.49,9.17-5.36,13.37-7.68,21.22-.91,3.07-1.08,7.79,2,9.53-1.86-.24-3.79-.89-5.73-2.03-.29-.17-.59-.2-.86-.14-.19-.53-.97-.33-1.02.21-.31,3.58.15,6.78,1.22,10.11-.62.32-1.23.65-1.85.97,0-.01,0-.02-.02-.03-8.54-10.49,5.2-22.33,7.8-32.29,1.26-4.82.25-9.48-1.2-14.13ZM415.66,349.4c-.34,0-.66.16-.83.55-1.52,3.42-1.83,7.08-.54,10.66,1.72,4.8,6.97,8.17,5.21,13.85-1.31,4.25-4.81,7.53-6.38,11.7-1.54,4.08-1.7,8.42-.66,12.63.11.46.56.65.96.6-2.18,1.35-4.66,2.08-7.31,1.96,0-.03,0-.05,0-.08-.86-2.67-1.8-4.74-1.12-7.63.7-2.98,2.4-5.38,4.13-7.84,2.72-3.87,5.16-7.72,4.68-12.63-.48-4.91-3.49-9.01-4.91-13.63-2.04-6.63-.38-13.34,5.25-17.6.06-.05.11-.1.16-.15.38,0,.76.02,1.13.02.13,0,.25-.02.36-.05-.33,2.52-.34,5.07-.15,7.61ZM416.24,354.14c.24,1.41.53,2.81.86,4.21.24,1.02.5,2.05.78,3.08-1.17-2.29-1.86-4.52-1.63-7.29ZM417.27,383.58c1.34-2.28,3.08-4.46,4.2-6.89.47,3.46.54,6.94-.13,10.43-.96,5.01-3.63,9.31-7.25,11.84.06-.11.09-.24.08-.4-.55-5.47.29-10.21,3.1-14.99ZM419.23,319.76c-3.15-.28-21.62-3.02-13.51-9.84,4.26-3.59,12.87,1.1,16.74,3.13,3.96,2.08,7.66,4.51,11.25,7.15-4.83-.07-9.65-.02-14.48-.45ZM435.28,340.19c-.18-.15-.38-.25-.59-.31.21-4.69,1.06-9.21,3.29-13.07-.34,4.77-.64,9.55-.91,14.32-.65-.2-1.26-.5-1.79-.94ZM436.9,343.92c-.36,6.37-.69,12.74-1.03,19.1-.04-.86-.07-1.71-.11-2.57-.22-5.33-1.08-11.49-1.13-17.51.71.43,1.46.76,2.27.97ZM377.09,330.25c.15-3.59.09-7.36,1.23-10.81,1.62-4.88,7.02-8.9,11.92-5.48.55.38,1.07.12,1.32-.34.74,1.02,1.56,2,2.52,2.93,8.22,7.94,19.43,9.07,30.33,8.31-3.22,2.29-5.42,6.44-6.8,9.89-.59,1.48-1.04,2.98-1.37,4.49-.12-.07-.26-.12-.43-.15-12.73-1.86-26.08-2.78-38.97-3.05.08-1.93.15-3.86.23-5.8ZM376.75,338.74c2.09.29,4.21.55,6.33.8-2.73,2.29-5.13,5.12-6.69,8.28.12-3.03.24-6.06.36-9.09ZM375.83,362.01c1.24,4.23,2.64,8.17,2.42,12.88-.21,4.42-1.45,8.69-3.42,12.61.33-8.49.66-16.99,1-25.48ZM373.56,416.73c2.97,5.48,3.19,11.44,1.26,17.68-.7,2.27-1.5,4.47-2.11,6.69.06-8.11.44-16.25.86-24.37ZM381.1,458.85c-5.46-1.47-7.47-5.63-8.13-10.39,1-6.7,4.51-12.68,5.32-19.42.71-5.9-1.04-11.52-4.53-16.25.19-3.77.37-7.54.52-11.3.14-3.54.28-7.09.42-10.63,4.6-6.06,6.66-13.55,5.7-21.23-.62-4.99-3.62-9.62-3.74-14.63-.16-6.53,5.04-10.61,8.79-15.18.74.08,1.48.17,2.22.26-2.99,3.41-5.72,7.39-6.79,11.75-1.37,5.57.59,10.7,2.63,15.84,2.85,7.18,3.26,12.97-.21,20.02-2.3,4.66-5.29,9.15-6.14,14.38-.8,4.93.88,9.4,2.84,13.85,1.52,3.44,3.3,6.89,3.6,10.7.3,3.78-.98,7.42-2.2,10.93-2.3,6.66-5.07,16.17.46,21.5-.25-.06-.52-.11-.77-.18ZM385.03,459.67c-9.68-7.5,1.26-22.22,1.46-31.42.1-4.43-1.66-8.42-3.42-12.39-2.77-6.25-4.42-11.5-1.71-18.13,3.41-8.36,9.26-15.3,6.94-24.85-1.32-5.43-4.83-10.43-5.12-16.11-.34-6.61,3.91-11.45,7.65-16.37,2.03.2,4.07.38,6.11.55-8.01,5.31-10.61,15.18-6.68,23.95,1.59,3.55,3.95,6.89,4.21,10.89.24,3.69-1.23,7.21-2.83,10.43-2.44,4.91-5.65,9.72-6.44,15.26-1.8,12.66,11.61,23.06,6.12,35.6-2.1,4.79-4.48,8.64-3.86,14.08.4,3.51,1.8,6.71,4.07,9.23-2.19-.16-4.38-.38-6.49-.73ZM394.22,460.58c-3.77-4.59-5.64-10.37-3.67-16.3,1.62-4.88,4.83-8.49,4.73-13.88-.21-10.65-9.91-19.29-7.23-30.28,2.15-8.82,10.31-16.2,8.79-25.87-.83-5.27-4.66-9.42-5.76-14.59-1.44-6.74,2.06-13.59,7.78-17.09.58-.36.68-.96.48-1.46,1.41.1,2.81.19,4.21.28-12.35,6.97,1.14,25.73-1.45,35.99-2.51,9.94-17.3,23.69-6.58,33.7-1.41.75-2.82,1.52-4.23,2.28-1.15.62-.88,2.05,0,2.73,2.46,1.89,5.23,3.15,8.12,3.85-.54.27-.92.82-.66,1.46,2.23,5.46-1.06,9.85-2.87,14.82-1.06,2.92-1.61,6.01-1.58,9.12.05,5.74,2.01,11.06,5.44,15.55-1.81-.11-3.65-.22-5.52-.33ZM402.56,461.1c-.14-.01-.28-.02-.42-.03-4.67-6.56-6.5-14.88-4.13-22.71,1.9-6.28,6.12-11.27,3.13-17.95-.02-.04-.05-.08-.07-.12,2.45.41,4.97.43,7.46.09.93,8.93-6.64,15.01-7.07,23.7-.32,6.56,2.83,12.82,7.23,17.55-2.04-.18-4.09-.35-6.12-.52ZM411.3,461.85c-5.42-7.46-9.41-15.55-5.15-24.62,2.59-5.53,6.65-10.93,4.74-17.3,1.59-.37,3.15-.88,4.66-1.55,1.15-.51,2.24-1.1,3.29-1.76.38,4.77-1.73,9.06-3.57,13.55-1.64,4-2.77,8.09-3,12.42-.38,6.96,1.52,14.03,5.43,19.79-2.13-.18-4.27-.35-6.4-.53ZM419.69,462.54c-4.28-8.13-6.11-17.32-3.57-26.39,1.98-7.07,7.04-13.87,5.31-21.38,1.76-1.41,3.34-3.04,4.76-4.8,6.41,10.18-4.86,21.64-6.45,31.86-.85,5.48.07,11.04,1.43,16.35.3,1.16.54,3.13,1.22,4.57-.9-.08-1.8-.15-2.71-.22ZM424.04,462.9c-.9-1.95-1.1-5.84-1.3-7.12-.53-3.32-.91-6.68-.75-10.05.31-6.74,3.62-12.21,6.25-18.24,2.84-6.53,4.07-13.78-.35-19.76,2.28-3.3,4.06-6.97,5.31-10.72.17-.5.31-1,.47-1.51-.96,10.73-2.06,21.45-3.33,32.14-.76,6.4-1.58,12.79-2.46,19.18-.72,5.24-2.06,10.68-1.95,15.98,0,.09.03.17.05.25-.65-.05-1.29-.11-1.93-.16ZM445.88,402.16c-.9,20.65-1.41,41.61-.06,62.26-6-.34-11.99-.75-17.97-1.21.02-.05.05-.08.07-.13,1.83-5.47,2.13-11.74,2.91-17.46.68-5.01,1.33-10.02,1.94-15.03,1.43-11.74,2.67-23.5,3.67-35.29,1.97-23.12,3.85-46.65,3.11-69.86,0-.14-.04-.25-.09-.35.41.09.83.16,1.27.21,0,.19.08.38.24.54,4.92,4.69,8.38,10.37,10.49,16.59-2.88,8.72-2.76,19.21-3.53,28.2-.9,10.5-1.58,21.01-2.04,31.54ZM448.37,409.95c1.31,2.45,2.48,4.98,3.01,7.69.89,4.52-.73,8.31-2.65,12.28-.17.35-.36.72-.57,1.12-.03-7.03.02-14.06.21-21.09ZM448.59,464.58c-.11-8.16-.26-16.3-.35-24.44.1-.17.08-.33,0-.44,0-.53,0-1.07-.02-1.6.33-1.11.62-2.49.85-3,.68-1.55,1.5-3.02,2.26-4.52,1.27-2.52,2.49-5.1,2.9-7.92.9-6.17-2.18-11.91-5.11-17.09-.16-.28-.36-.46-.59-.56.02-.62.04-1.24.06-1.85.14-3.39.31-6.77.49-10.15.5,4.99,2.3,9.81,5.74,13.28-.41.49-.52,1.22.09,1.8,4.94,4.75,7.12,11.56,5.27,18.25-1.59,5.76-5.65,10.5-8.01,15.93-3.56,8.21-1.88,17.67,5.95,22.74.02.01.04.01.06.02-3.19-.12-6.39-.26-9.59-.43ZM458.7,465.02c.39-.18.63-.74.24-1.1-5.21-5.01-7.31-11.58-4.9-18.55,1.87-5.41,5.65-9.93,7.88-15.18,2.94-6.94,2.24-14.4-1.8-20.34,2.95,1.25,6.55,1.77,10.12,1.52,1.88,6.1,2.89,11.88.11,17.99-2.2,4.84-6.7,8.15-8.83,13.02-3.85,8.79,1.66,17.42,8.38,22.91-3.73-.04-7.46-.13-11.2-.26ZM472.12,465.32c.06-.29.02-.59-.2-.83-4.08-4.43-8.86-9.57-8.69-16.06.17-6.44,5.14-10.04,8.31-15.04,4.04-6.38,5.04-15.67.99-22.28,2.47-.41,4.85-1.19,6.92-2.37,3.77,12.26-5.92,21.67-9.24,33.05-2.69,9.21,1.1,17.62,8.07,23.53-2.05.02-4.1.02-6.16,0ZM485.39,465.18c-1.58.05-3.17.07-4.75.09-4.38-4.74-8.67-9.98-8.72-16.8-.05-6.4,3.42-12.19,6.27-17.69,3.58-6.89,7.47-16.1,3.36-23.5.43-.35.84-.71,1.22-1.11.15-.16.23-.35.26-.55.31-.49.3-1.19-.32-1.5-2.1-1.05-4.32-2.08-6.17-3.56l4.94-7.36c.71-1.06-.22-2.07-1.22-2.13.41-.95-.83-2.2-1.89-1.58-.84.49-1.77,1.07-2.76,1.64-1.51-4.69-1.85-9.47-.61-14.33,1.13-4.46,3.57-8.41,5.09-12.72,2.19-6.22,1.41-12.54-2.04-17.89,1.58.16,3.19.26,4.78.33,0,.28.1.58.34.84,8.12,9.08-3.27,21.46-3.22,31.41.03,5.12,2.32,9.76,4.18,14.41,2.23,5.58,3.49,11.43,3.05,17.47-.78,10.88-7.38,20.28-7.83,31.22-.34,8.25,2.17,16.91,7.57,23.24-.52.02-1.03.05-1.54.06ZM489.21,464.96c-6.21-10.01-8.91-20.73-5.31-32.33,3.18-10.26,7.49-19.24,5.81-30.28-.82-5.44-3.1-10.19-5.03-15.28-2.38-6.25-2.05-11.58.26-17.8,2.72-7.34,6.12-15.81.96-22.63,1.68.06,3.31.13,4.83.24,1.65.13,3.29.25,4.94.38,5.08,12.46-7.95,20.77-8.32,32.77-.14,4.45,1.83,8.46,3.61,12.43,3.11,6.94,3.81,13.6,2.53,21.09-2.51,14.65-13.5,38.99,2.13,50.32-2.09.58-4.26.92-6.42,1.1ZM497.41,463.29c-16.63-17.88,1.85-41.07-.63-61.45-.57-4.68-2.51-8.67-4.41-12.9-3.12-6.98-2.51-12.52,1.14-19.2,3.39-6.21,9.01-15.25,5.01-22.25,2.73.21,5.46.4,8.19.58,1.48,6.34.31,12.4-3.29,17.9-2.46,3.75-5.53,7.24-6.39,11.79-.75,3.99.46,7.89,1.96,11.54,2.61,6.33,5.26,11.72,4.4,18.8-1.41,11.61-8.96,21.57-9.79,33.31-.52,7.31,2.16,15.56,8.98,19.02-1.55,1.27-3.31,2.18-5.17,2.87ZM503.73,459.36c-19.81-14.94,5.85-40.79,2.22-59.52-.94-4.85-3.6-9.07-5.19-13.69-2.08-6.05-.53-10.7,2.97-15.72,4.87-6.99,7.6-13.85,5.94-22.17,1.63.1,3.26.19,4.88.29,2.99,9.17-4.66,17.3-5.98,26.14-.72,4.82.74,9.21,2.2,13.75,1.98,6.17,2.26,11.88.49,18.17-4.1,14.54-18.69,34.85-4.75,48.55-.68,1.53-1.57,2.95-2.77,4.2ZM508.84,443.77c-.29,3.07-.62,6.3-1.55,9.27-9.24-11.81-1.1-26.1,4.26-39.59-.89,10.11-1.77,20.21-2.71,30.32ZM513.73,388.82c-.27-.91-.56-1.81-.85-2.73-1.78-5.5-2.24-10.36-.31-15.91,1.03-2.96,2.48-5.97,3.62-9.02l-2.46,27.65ZM518.55,334.6c-.34,3.77-.67,7.54-1.01,11.31-7.93-.8-15.88-1.39-23.83-1.96-3.98-.29-7.96-.62-11.95-.83-4.21-.22-8.74.12-12.79-1.08-.05-.02-.1,0-.15-.01-1.54-3.58-3.55-6.94-5.89-9.88,9.64,2.86,20.11,2.43,30.03-.72,8.01-2.54,15-7.55,17.59-14.7,0,0,0,0,0,0,10.29-3.92,8.46,12.61,7.99,17.88Z"/>
  <path class="cls-1" d="M744.81,116.36c.51-7.19,0-14.61-.62-21.77-.62-7.19-1.37-14.63-3.17-21.64-1.61-6.25-5.45-8.61-11.68-9.35-13.59-1.64-27.87-.05-40.89,4.1.66-3.31.72-6.69.16-9.72-1.9-10.23-14.34-10.61-21.84-6.94-7.15,3.49-13.65,8.74-19.41,14.65,3.24-7.32,5.08-15.28,4.57-23.06-.64-9.68-8.22-20.83-19.27-18.32-11.96,2.72-14.69,18.69-13.7,28.88.46,4.81,1.83,9.87,4.02,14.53-5.21-6.78-10.67-13.41-17.57-18.09-8.1-5.48-22.59-9.09-27.15,2.62-2.25,5.79-.67,11.67,2.64,16.69-5.08-.94-10.23-.93-15.45-.99-3.09-.03-6.18-.04-9.27-.03-3.21.02-7.42-.6-10.38,1.01-3.72,2.03-3.25,6.14-2.95,9.76.68,8.3,1.61,16.59,2.66,24.85,1.21,9.53.31,26.67,12.94,28.01,6.59.7,13.69-.45,20.29-.75,7.81-.36,15.62-.7,23.42-1.01,30.58-1.23,61.18-2.1,91.79-2.62,7.81-.13,15.63-.24,23.44-.33,6.56-.07,14.62,1.21,20.92-.72,4.53-1.39,6.18-5.37,6.48-9.76ZM740.37,92.31c.25,2.48.44,4.96.59,7.45-.1-.01-.2-.02-.3-.01-15.63.95-31.27,2.78-46.83,4.54-9.27,1.04-18.56,2.08-27.82,3.35,1.01-4.36.8-9.59-.76-14.23,12.04.3,24.18-.68,36.18-1.46,12.82-.83,25.79-1.52,38.54-3.2.14,1.19.27,2.38.39,3.57ZM653.48,97.46c-.63,1.97-1.39,3.82-2.24,5.64-.98-3.94-2.58-7.66-4.89-11.08-1.07-1.58-2.39-3.35-3.9-4.92-.1-.27-.28-.43-.49-.51-.98-.96-2.03-1.83-3.15-2.51,5.75.77,11.55,1.16,17.35,1.24,2.43,3.18,4.99,5.69,6.36,9.6,1.05,3.01,1.36,6.08,1.06,9.15-2.34-2.71-4.94-5.08-7.93-7.19-.68-.48-1.87-.34-2.16.57ZM639.53,80.98s0,0,0-.01c.65-.24,3.31-2.06,3.18-1.97,1.32-.93,2.68-1.77,4.09-2.55,3.26-1.8,6.71-3.18,10.34-4.02,2.95-.68,6.21-1.2,9.24-.96,4.51.35,10.9,3.69,7.45,9.24-.06.1-.11.2-.15.31-1.73.4-3.54.62-5.36.76-9.59.73-19.24.16-28.8-.78ZM688.77,70.84c10.93-3.1,22.11-4.79,33.49-4.32,2.46.1,4.97.23,7.41.6,5.2.79,7.3,3.56,8.27,8.28.72,3.53,1.27,7.11,1.73,10.7-12.54.79-25.04,2.18-37.58,2.97-12.54.79-25.19.9-37.7,2.07-1.01-2.2-2.36-4.19-4.08-5.78,5.49.03,11.38.01,16.49-1.89,5.39-2.01,9.05-7.03,10.87-12.7.32.14.7.19,1.11.08ZM660.71,57.95c4.28-3.09,9.23-6.49,14.72-6.63,6.56-.17,10.93,4.17,10.58,10.65-.25,4.59-1.06,9.78-3.72,13.63-1.29,1.86-2.9,3.15-4.71,4.05,2.06-5.87-6.05-10.83-11.55-11.02-5.13-.18-10.37.97-15.12,2.86-2.94,1.17-6.77,2.89-9.65,5.19,5.62-7.08,12.11-13.41,19.46-18.72ZM624.15,95.12c.07-.15.15-.3.21-.45.5,5.98.99,11.94,1.43,17.92-.99-.32-2.02-.57-3.06-.78.26-.25.43-.58.4-.95-.55-5.64-1.29-10.26,1.02-15.74ZM620.9,111.51c-4.01-.55-8.23-.51-12.07-.74-.8-.05-1.6-.08-2.4-.12,1.58-1.91,3.21-3.78,4.95-5.54,2.47,2.44,5.5,5.66,8.71,6.27.23.04.46-.02.66-.15.05.09.1.18.14.28ZM619.53,107.99c-.63-.54-1.32-1.03-2.04-1.6-1.8-1.44-3.53-2.96-5.22-4.53-.61-.57-1.6-.29-2.08.27-2.05,2.37-4.02,4.77-5.85,7.29.06-4.58.4-8.68,2.65-13.07,2.47-4.82,6.27-8.66,10.9-11.38,4.15-.15,8.31-.63,12.37-1.29-7.61,5-12.96,15.51-10.73,24.31ZM636.84,81.32c-1-1.05-1.98-2.1-2.92-3.17-.91-3.95-1.62-7.92-1.76-12-.1-2.81,0-5.64.31-8.44.25-2.3.62-8.11,2.71-9.31,2.02.18,4.03.36,6.05.54.05.46.09.91.14,1.37.36,1.18-.09,3.14-.18,4.41-.18,2.54-.48,5.07-.85,7.58-.8,5.4-2.04,10.71-3.62,15.93-.13.18-.27.36-.4.54-.58.78-.15,1.63.52,1.96.14.11.3.2.46.26-.17.08-.33.19-.45.32ZM622.81,58.33c-2.25-9.42-1.83-23.8,7.19-29.78,5.36-3.55,12.23-.87,15.74,3.97,3.38,4.66,3.85,10.71,3.29,16.26-.84,8.25-3.78,16.11-8.04,23.17,1.31-5.54,2.22-11.17,2.66-16.88.31-3.99.93-11.85-5.15-11.58-6.72.29-8.23,9.68-8.6,14.67-.43,5.71.08,11.55,1.59,17.1-3.97-4.96-7.09-10.32-8.67-16.93ZM628.5,78.76c-5.77.57-11.54.32-17.24-.91-3.18-.68-6.3-1.66-9.3-2.91-1.33-.56-3.03-1.17-4.23-1.97-1.93-1.29-4.68-4.5-1.28-5.66,5.78-1.96,13.35.13,18.67,2.53,5.01,2.26,9.13,5.64,13.39,8.91ZM581.34,52.72c6.05-12.95,23.93-.27,29.9,6.08,2.89,3.07,5.45,6.52,8.08,9.9-2.56-1.42-5.22-2.58-7.9-3.41-5.31-1.65-16.27-3.72-20.09,2.01-4.16,6.24,8.59,10.15,12.41,11.45,5.91,2.01,12.03,2.98,18.19,3.03-7.49.66-15.04.43-22.21-2.08-9.68-3.4-23.96-15.04-18.39-26.96ZM554.75,71.56c3.09-.04,6.17-.06,9.26-.05,6.16.02,12.34.44,18.41-.48,2.89,3.64,6.62,6.69,10.24,8.71,6.68,3.72,14.06,5.13,21.54,5.26-3.91,2.22-7.36,5.66-9.78,9.67-.19-.58-.69-1.08-1.46-1.08-10.55.02-21.1.2-31.65.38-5.27.09-10.54.21-15.81.35-2.67.07-5.19-.04-7.58.7-.69-5.89-1.24-11.8-1.59-17.69-.35-5.89,3.93-5.71,8.41-5.76ZM550.26,112.38c-.75-5.04-1.46-10.1-2.07-15.17,3.61-1.04,7.96-.36,11.57-.37,4.95,0,9.9,0,14.85-.06,9.56-.1,19.12-.15,28.68-.37.06,0,.11-.01.17-.02-2.24,4.4-3.24,9.33-2.27,14.05-3.63-.11-7.26-.17-10.88-.18-13.33-.03-26.7.56-39.94,2.09-.04,0-.07.02-.1.02ZM621.28,125.5c-12.37.44-24.73.94-37.09,1.49-5.86.26-11.71.54-17.56.83-2.7.13-5.7.59-8.37.13-5.96-1.04-6.62-6.54-7.38-11.48-.07-.48-.14-.96-.22-1.44,0,0,0,0,0,0,12.7-1.07,25.39-1.88,38.14-1.96,4.46-.03,8.92.04,13.39.16.21.75,1.21,1.21,1.84.4.09-.12.19-.23.28-.35,1.38.04,2.77.08,4.15.13,5.61.19,11.82,1.33,17.43.49.25,3.52.49,7.05.67,10.58.02.36.15.64.34.83-1.87.06-3.75.12-5.62.19ZM628.87,125.25c.27-.25.45-.62.44-1.08-.36-10.77-1.39-21.67-3.48-32.25,2.25-3.64,5.41-6.51,9.18-8.69,0,.08.02.16.07.22,1.52,2.35,3.66,4.21,5.64,6.23-.06,4.74.45,9.52.74,14.23.34,5.48.57,10.99,1.12,16.45-.1.06-.19.12-.29.18-.66.41-.73.56-.7,1.3.04.9-.01,2.01.12,3.03-4.28.13-8.56.24-12.84.38ZM730.66,123.15c-12.37.14-24.75.25-37.12.46-16.61.28-33.21.71-49.81,1.2-.07-.33-.16-.66-.24-.98-.05-.21-.11-.43-.16-.64.78.47,2.07-.04,2.04-1.25-.13-5.8-.72-11.6-1.16-17.38-.3-3.9-.46-7.89-.88-11.82.08.12.17.22.25.34,2.92,4.38,4.65,9.2,5.38,14.4,0,.05.02.09.03.13-.16.31-.32.61-.48.92-.46.88.83,1.48,1.42.82.17-.19.32-.38.48-.57.87.04,1.78-.56,1.62-1.67-.02-.13-.04-.25-.06-.37,1.38-2.02,2.5-4.22,3.43-6.48,2.84,2.29,5.32,4.86,7.54,7.8-5.26.75-10.51,1.59-15.72,2.56-1.19.22-1.01,2.01.22,1.89,15.6-1.52,31.13-3.8,46.71-5.56,15.59-1.75,31.22-2.95,46.82-4.61.05,0,.09-.02.13-.03.1,2.05.17,4.1.21,6.15.05,2.92.27,6.04-.19,8.94-.83,5.22-6.13,5.69-10.45,5.74Z"/>
  <path class="cls-1" d="M177.35,420.67c.37-.29.61-.76.5-1.32-1.01-5.26-3.82-10.49-6.03-15.36-1.11-2.44-2.22-4.89-3.54-7.22-.46-.82-.83-1.95-1.56-2.54-.27-.22-.48-.38-.67-.5,1.69-2.79,3.39-5.58,5.08-8.38.51-.84.03-1.61-.67-1.92-.03-.07-.05-.15-.09-.22-1.38-2.65-2.81-5.27-4.1-7.98-.88-1.85-1.63-4.11-2.79-5.91.03-.58-.44-1.11-1-1.3,0,0-.02-.02-.02-.03-.19-.2-.47-.25-.73-.2-.05-.02-.11-.04-.17-.04-8.28-.04-16.54,1.25-24.75,2.3-3-5.11-9.14-6.87-14.67-5.14-6.6,2.07-10.36,8.12-11.55,14.64,0,.03,0,.05,0,.07-.31-1.2-.44-2.61-.5-4.01.06-.02.12-.04.18-.06,1.48-.57,1.07-2.73-.23-2.8,0-.55,0-1.07,0-1.53-.06-3.64.49-7.24,1.9-10.61,3.11-7.4,9.06-10.19,16.63-11.05.07,0,.14-.03.21-.05.04.08.08.16.16.23,1.47,1.51,3.18,2.82,4.93,3.98,1.4.93,2.89,2.01,4.55,2.32.03.33.29.67.66.65,5.5-.31,10.71-1.82,16.03-3.16,5.78-1.46,11.76-2.73,17.35-4.81.31-.11.52-.34.66-.61.13-.16.24-.36.31-.6,1.74-6.46-.83-13.85-6.51-17.51-.65-.42-1.32.08-1.46.7-5.01.71-9.99,1.76-14.91,2.87-1.94.44-13.3,2.2-15.86,4.19-.07-.12-.13-.19-.3-.35-.33-.31-.83-.22-1.07.15-.47.73-.48.93-.17,1.73.04.09.09.17.13.25-1.72,2.45-3.07,5.49-4.34,8.17-.05-.03-.1-.06-.16-.08-7.76-2.41-15.97,4.4-19.09,11-1.98,4.18-2.65,8.89-2.42,13.48.02.43.04.88.06,1.35-2.7.63-5.26.64-8.18.75-2.41.09-4.19,4.14-5.36,5.98-.07.12-.11.23-.12.34-1.68.18-3.31.56-4.82,1.2-3.98,1.68-5.73,5.94-4.82,9.84-3.04,3.33-5.99,6.72-9.27,9.84-2.83,2.7-8.34,5.5-9.88,9.19-1.2,2.87.65,5.34,1.44,8.11.97,3.37-.07,7.81,1.51,10.8.22.42.77.72,1.23.68.23-.02.46-.04.68-.06.34-.03.6-.17.81-.38.89.12,1.79.21,2.69.31.38,5.35,3.51,10.96,5.39,15.87,2.33,6.11,4.6,12.25,7.11,18.29.35.85,1.22,1.09,1.92.9,10.76,1.07,21.62.5,32.39-.13,11-.64,22.07-1.41,32.98-2.95.93-.13,1.34-1.01,1.21-1.72.2,0,.39-.08.56-.25,5.14-5.54,9.37-11.76,13.13-18.31,3.58-6.25,7.91-13.4,9.46-20.49.05-.22.02-.41-.04-.59ZM135.61,340.36c.04-.09.06-.18.07-.26,4.54-.11,9.6-2.24,13.87-3.28,5.72-1.38,11.5-2.61,17.2-4.12,3.41,3.88,4.9,8.64,3.85,13.87-5.21.89-10.36,2.37-15.46,3.7-5.03,1.31-10.07,2.44-14.84,4.47-.03-.24-.13-.48-.3-.67-1.22-1.36-3.2-1.94-4.79-2.79-1.6-.85-3.15-1.8-4.72-2.7,1.76-2.53,3.92-5.4,5.11-8.23ZM161.77,372.06c.55,1.45,1.3,2.87,1.9,4.18,1.32,2.85,2.7,5.7,4.29,8.41.05.08.1.15.16.22-3.94,6.4-7.88,12.81-11.8,19.22-2.05,3.36-4.12,6.71-6.13,10.09-1.32,2.22-2.86,4.41-3.72,6.83-2.3-4.49-5.1-8.73-7.92-12.9.46-.3.63-.86.52-1.37,4.12-5.12,7.14-11.63,10.65-17.09,3.85-5.99,7.99-11.76,12.05-17.59ZM112.12,379.91c1.43-4.35,3.69-8.63,7.7-11.12,5.05-3.14,12.26-2.62,15.08,3.19,2.71,5.59-1.71,10.59-6.97,12.19-4.38,1.33-9.05.49-13.46-.18-.06-.57-.23-1.13-.46-1.66.89-2.02,2.03-3.8,3.73-5.25,1.47-1.26,5.11-3.64,7.19-2.86.87.33,1.34,1.56.93,2.44-.22.48-.93,1.02-1.3,1.35-.87.77-1.86,1.43-2.9,1.96-2.16,1.12-4.44,1.07-6.63,1.89-.92.35-.98,1.7.04,1.97,3.21.85,7.48-1.34,9.96-3.24,1.97-1.51,5.34-4.79,2.95-7.39-2.14-2.34-6.31-.85-8.61.4-2.89,1.58-5.2,4.24-6.28,7.35-.33-.33-.71-.6-1.12-.8.05-.07.1-.14.13-.24ZM119.98,392.51c.43.93.86,1.86,1.29,2.79-1.69-.38-3.39-.73-5.1-.94-.96-2.07-2.02-4.11-3.26-5.99.59-.53,1.01-1.2,1.27-1.93,1.64.27,3.33.53,5.02.69-.21.42-.15.95.41,1.23,1.94.99,3.66,1.82,5.22,3.08-1.22-.06-2.42-.24-3.65-.58-1.01-.28-1.59.84-1.22,1.65ZM114.8,396.83c-.77-.53-1.53-1.06-2.3-1.59-.38-.26-1.02-.14-1.31.19-.68.76-1.24,1.57-1.72,2.42-.45-2.79-.17-5.57.67-8.36.24,0,.49-.04.74-.1,1.33,2.48,2.69,4.92,3.92,7.44ZM109.41,382.29c1.09-.63,2.09-.11,2.54,1.02.36.92.33,2.13-.29,2.93-.09.12-.18.22-.28.31-.47-.17-.98.04-1.23.44-.18-.03-.38-.09-.58-.18,0-.49-.02-.98-.09-1.49.23-.48.17-1.14-.37-1.44-.14-.08-.29-.15-.44-.23-.06-.52.15-1.02.73-1.36ZM107.86,385.66c-.1.76-.33,1.51-.65,2.24-2.51.86-9.18,3.91-9.56,2.52-.13-.47,1.43-1.81,1.78-2.13.69-.61,1.5-1.14,2.33-1.56,1.79-.91,3.82-1.32,5.82-1.17.09.03.18.06.28.1ZM99.29,376.92c2.82.3,5.6.13,8.31-.54.21,1.35.59,2.64,1.32,3.67-.22.09-.44.2-.65.34-.78.51-1.35,1.4-1.47,2.34-3.31-1.45-7.17-2.35-10.91-2.33,1.17-1.12,2.29-2.29,3.4-3.47ZM95.69,383.3c2.51-.1,4.94.24,7.32.83-1.01.18-2,.49-2.97.96-2.02.97-5.05,3.23-5.21,5.69-.25,3.9,5.6,2.81,9.79.82-5,5.05-14.24,7.36-17.34.18-2.63-6.08,3.68-8.28,8.41-8.47ZM71.07,408.51c5.26-4.26,10.14-9.12,13.71-14.89.18.35.37.69.6,1.02,5.08,7.32,17.11,4.81,22.04-1.75-.55,2.91-.27,5.94.78,8.81.36.98,1.85,1.07,2.12-.05.36-1.53.96-2.81,1.87-4,1.56,1.07,3.11,2.14,4.67,3.21.75.52,1.92-.39,1.57-1.25-.45-1.1-.91-2.22-1.4-3.34,1.94.6,3.94,1.05,5.88,1.57.72.19,1.61-.58,1.29-1.34-.43-1.01-.89-2.02-1.34-3.02,1.55.25,3.1.31,4.7.14,1.02-.1,1.38-1.17.76-1.93-1.41-1.72-3.29-3.41-5.41-4.4,3.69-.04,7.29-.79,10.41-3.03,3.87-2.78,5.81-7.35,4.57-11.76,7.64-.91,15.36-1.68,22.84-3.5-4.68,5.87-8.95,12.09-13.06,18.37-3.68,5.61-8.43,11.84-10.83,18.29-11.88-.37-23.92.78-35.73,1.88-10.83,1.01-21.8,1.85-32.53,3.71.46-.84,1.25-1.73,2.52-2.76ZM70.94,427.9c-.3-.45-.94-.71-1.4-.36,1.66-1.28.49-5.96-.03-8.19-.6-2.59-1.49-4.36-1.49-6.03,11.39-.3,22.77-1.87,34.11-2.91,11.43-1.05,22.83-1.49,34.28-2.03.21.25.52.38.84.29.01.04.01.08.04.13,2.23,4.54,4.39,9.14,6.91,13.53-.04,0-.08,0-.12,0-12.51,2.09-25.1,3.61-37.75,4.41-11.78.75-23.61.38-35.38,1.16ZM175.35,420.44c-3.86,6.23-6.33,13.44-10.01,19.84-3.36,5.85-7.14,11.44-10.8,17.09-.62-3.89-3.72-9.65-4.52-11.51-2.72-6.31-5.65-14.12-10.43-19.15-.7-.74-2.01.06-1.69,1.02,1.94,5.83,5.85,11.24,8.43,16.85,1.55,3.38,2.96,6.81,4.4,10.24.19.46,1.67,3.25,2.41,4.55-.06,0-.11,0-.17,0-11.01.77-21.98,1.88-33,2.54-10.5.64-21.01.72-31.52,1.22-2.28-6.38-4.8-12.67-7.26-18.99-1.71-4.39-3.05-9.85-5.79-13.87,10.59.93,21.38.33,31.94-.39,12.61-.86,25.15-2.43,37.58-4.65.75-.13,1.07-.66,1.07-1.22.41-.06.79-.33,1-.7,5.01-3.88,8.16-11.66,11.37-16.94,2.22-3.65,4.43-7.31,6.64-10.96,1.16,3.48,2.49,6.8,4.01,10.25,2.11,4.78,3.73,10.16,6.47,14.61-.05.06-.11.1-.15.17Z"/>
  <path class="cls-2" d="M567.98,39.77s.01-.02,0-.02"/>
  <path class="cls-1" d="M471.64,225.75c.02-4.61,1.63-12.95-3.13-15.96-2.2-1.39-5.29-1.04-7.73-1.07-4.25-.06-8.51-.11-12.76-.12-1.11,0-2.21.01-3.32.01,8.2-2.78,16.39-6.84,22.46-12.08,6.94-5.99,7.95-15.83.04-21.61-8.84-6.45-20.87-1.73-28.26,4.63-4.85,4.17-8.56,9.45-11.78,14.94-1.5,2.56-3.71,5.59-4.81,8.72-1.02-10.8-7.05-20.93-14.3-28.82-6.87-7.47-19.65-13.4-27.97-4.49-7.06,7.56-4.57,19.12,1.73,26.19,5.97,6.69,15.21,11.46,24.55,13.15-4.11.13-8.21.28-12.32.45-4.25.18-8.5.38-12.75.6-2.65.14-6.29-.19-8.68,1.32-2.38,1.51-2.56,4.11-2.93,6.64-.57,3.94-.98,7.92-1.28,11.89-.67,8.9-.99,18.06-.01,26.95.08.73.55,1.34,1.35,1.35,1.01.01,1.74-.12,2.36-.47.11.04.21.08.34.09,16.59,1.24,33.47.54,50.08.04,8.18-.25,16.36-.58,24.53-1.01s16.25-.09,23.85-1.83c1.09-.25,1.07-1.47.41-2.06.03-.12.05-.25.05-.4.14-9.02.23-18.05.28-27.07ZM430.32,194.29c2.4-3.76,5.02-7.4,8.2-10.55,6.58-6.52,18.33-12.79,26.98-6.27,10.29,7.75.39,16.95-7.14,21.13-8.09,4.48-16.63,7.39-25.42,10.11-.34,0-.68.01-1.02.02,7.25-1.97,14.06-5.21,20.15-9.82,3.52-2.67,14.62-11.3,7.48-16.14-6.37-4.32-18.23,4.54-23.06,8.05-3.46,2.52-6.67,5.39-9.57,8.54,1.23-1.9,2.53-3.67,3.41-5.04ZM438.47,192.58c2.45-1.71,5.01-3.26,7.67-4.62.93-.48,2.64-1.51,4.43-2.36.07.06.14.12.21.18.42.36.94-.14.67-.57.37-.16.74-.31,1.11-.43,1.77.16,3.27,1.02,4.54,2.29.27.77.55,1.54.82,2.31-.81,1.09-1.71,2.08-2.72,2.98-1.11,1.09-2.33,2.07-3.54,3.04-2.49,1.97-5.14,3.73-7.93,5.26-6.25,3.41-12.99,5.6-20.03,6.57.43-3.66,13.48-13.74,14.77-14.64ZM390.1,199.09c-8.12-5.57-15.36-16.66-8.44-26.08,7.84-10.67,21.16-1.1,27.06,6.26,6.4,7.99,11.3,17.52,11.02,27.89-4.06-5.22-9.01-9.91-13.98-14.17-4.4-3.77-10.16-9.87-16.4-9.33-.61.05-1.13.47-1.13,1.13-.02,7.05,5.36,12.05,10.59,16.08,2.7,2.08,5.54,3.89,8.51,5.43-6.06-1.46-11.89-3.56-17.22-7.21ZM417.17,208.23c-.46-.08-.92-.15-1.38-.23-4.1-1.7-8.08-3.69-11.78-6.14-5.49-3.62-12.72-8.91-13.45-15.97,6.12.32,12.78,7.8,16.83,11.66,3.52,3.36,6.63,7.03,9.79,10.69ZM468.41,219.95c.02,3.87-.01,7.73-.04,11.6-.04,7.07-.12,14.15-.22,21.22-7.26-.22-14.87.97-22.07,1.34-8.17.41-16.35.73-24.53.96-15.94.44-31.93-.01-47.85.63-.2-.35-.69-.57-1.1-.35-2.37,1.26-1.74-7.53-1.75-8.84-.02-3.53.05-7.06.22-10.59.17-3.53.44-7.05.8-10.56.45-4.39.06-11.24,5.52-11.79,13.92-1.39,28.2-1.26,42.18-1.52,6.87-.13,13.74-.18,20.61-.19,7.11,0,14.52-.51,21.59.15,2.68.25,5.66.56,6.47,3.65.36,1.36.17,2.89.17,4.28Z"/>
  <g>
    <path class="cls-1" d="M782.49,371.28c-4.37-42.29-10.29-84.43-17.6-126.31-.02-.09-.04-.17-.07-.25.22-1.01-.31-2.13-1.6-1.97-20.03,2.51-40.1,4.63-60.21,6.34,11.61-4.96,22.95-10.94,31.06-20.83,7.96-9.71,11.49-22.21,7.4-34.35-3.74-11.12-12.93-20.63-24.48-23.46-13.65-3.34-22.45,4.4-26.91,16.65-3.35,9.2-5.72,18.79-8.58,28.15-2.98,9.74-7.25,19.14-17.2,23.16-.04-.03-.07-.07-.11-.1-4-3.41-9.36-2.44-13.85-.65-1.98.79-4.63,1.81-6.29,3.45-7.81-15.19-5.34-32.63-11.16-48.38-4.27-11.54-14.52-22.13-27.8-20.14-14.08,2.11-23.72,15.86-29.57,27.66-3.01,6.08-6.78,13.53-5.63,20.51,1,6.05,5.8,11.18,9.98,15.34,8.04,7.98,18.03,13.87,28.84,17.1-14.93,1.18-30.07-1.53-42.88-9.62-12.48-7.89-20.72-19.53-26.09-33.07-.04-.11-.11-.19-.17-.28,4.6-6.36,7.11-14.01,7.57-21.84.02-.3-.03-.55-.12-.76.08-.24.08-.5,0-.78-2.44-7.31-5.34-14.49-8.41-21.55-3.16-7.27-6.11-15.63-10.69-22.13-.15-.22-.35-.38-.57-.49-3.32-7.21-17.64,1.3-22.03,3.29-2.83,1.28-16.67,6.48-13.32,11.64.01.05.02.09.04.14,2.74,7.59,6.93,14.88,10.52,22.1,3.85,7.73,7.76,15.49,12.18,22.92.3.5.74.65,1.15.57,5.59,4.78,14.06,7.22,21.18,8.16.09.01.17.01.25,0,6.74,22.1,26.48,38.54,48.64,43.02-.03,0-.05,0-.08,0-8.5.06-17.23-.46-25.69.44-.89.09-1.26.78-1.17,1.41-.14.18-.25.4-.25.7-.68,38.61,1.39,77.39,2.33,115.98.23,9.58.47,19.17.7,28.75.15,6-.78,13.66,4.51,17.83,4.95,3.9,12.42,3.06,18.28,3,9.61-.1,19.21-.24,28.82-.41,38.76-.69,77.5-1.93,116.22-3.74,9.6-.45,19.19-.93,28.79-1.45,6.65-.36,15.3.44,20.86-3.99,4.63-3.68,5.62-9.86,5.56-15.43-.09-8.77-1.44-17.64-2.34-26.35ZM537.42,208.84c-3.43-.68-6.8-1.49-10.07-2.73-3.63-1.38-6.76-3.51-10.25-5.12-.21-.09-.42-.13-.63-.12-3.28-7.4-6.93-14.65-10.5-21.92-3.64-7.4-6.82-15.37-11.1-22.41-.03-.05-.06-.09-.1-.13.82-1.26,2.3-2.59,2.96-3.05.97-.7,2.28-1.16,3.35-1.68,2.74-1.34,5.52-2.61,8.33-3.8,3.07-1.31,12.6-6.9,15.67-3.67.01.05.02.09.03.13,2.34,7.23,6.53,14.08,9.6,21.04,3.25,7.34,6.29,14.77,9.45,22.15-.17.23-.3.51-.34.85-.88,7.33-3.06,13.93-6.3,20.49-.04-.01-.07-.03-.11-.04ZM775.84,342.51c-7.79-.16-15.85,1.06-23.6,1.51-8.48.5-16.97.93-25.46,1.29-16.85.72-33.85.44-50.65,1.79-.08-3.63-.14-7.26-.17-10.89-.04-5.01.03-10.02.13-15.01,5.83,2.29,14.42.84,20.28.6,8.58-.35,17.15-1.03,25.71-1.64,16.82-1.18,33.69-2.13,50.49-3.63,1.16,8.65,2.24,17.3,3.27,25.97ZM761.73,246.4c3.92,22.33,7.4,44.72,10.45,67.17-16.71.86-33.4,2.26-50.09,3.43-8.57.6-17.13,1.27-25.71,1.64-3.96.17-7.93.25-11.9.28-2.81.02-5.66-.28-8.34.38.5-21.39,2-42.69,2.96-64.1.01-.33-.14-.59-.36-.77,27.73-1.92,55.41-4.6,83-8.03ZM687.52,206.21c2.53-8.37,4.27-18,9-25.49,5.76-9.14,16.5-9.56,25.49-4.97,14.36,7.32,21.67,25.23,15.55,40.27-7.4,18.19-26.85,26.32-43.71,33.35-.29.12-.51.3-.68.52-2.5.2-5,.37-7.5.56,6.22-1.95,12.19-4.99,17.63-8.26,10.67-6.4,22.24-14.4,28.24-25.64,3.73-6.99,6.35-21.72-5.36-22.62-12.89-.99-18.43,15.51-23.27,24.37-7.49,13.72-20.66,22.77-35.81,25.87.02-.39,0-.8-.08-1.22-.22-1.21-.77-2.31-1.52-3.26,14.54-3.02,18.34-21.33,22.02-33.47ZM666.27,247.52c.17.03.35.04.55,0,12.44-1.91,24.1-8.5,32.22-18.12,4.07-4.82,6.87-10.28,9.63-15.92,3.23-6.59,8.1-16.95,16.81-16.6,12.01.49,5.14,16.79,1.4,22.19-4.29,6.19-10.28,11.07-16.37,15.38-13.53,9.59-27.87,16.28-44.7,16.16-.14,0-.25.05-.35.12.08-1.13.45-2.18.83-3.22ZM655.17,239.05c2.15-.43,4.45-.41,6.38.78,2.86,1.76,2.88,4.18,1.9,7.13-.64,1.95-1.1,2.82-.65,4.83.02.07.04.14.07.2-.33.02-.65.04-.98.06-2.98.17-5.96.33-8.94.48-2.12-1.38-4.74-2.99-5.98-4.99-3.48-5.57,4.96-7.85,8.2-8.5ZM646.19,250.65c.98.78,2.08,1.48,3.18,2.07-1.9.09-3.8.17-5.7.26.21-.26.02-.73-.37-.77-7.19-.58-14.17-.77-21.23-2.51-6.99-1.72-13.71-4.41-20.06-7.78-5.87-3.13-12.04-6.72-16.5-11.75-2.57-2.89-4.69-6.53-4.57-10.53.22-7.21,8.09-7.07,12.89-4.59,9.93,5.13,15.01,16.8,23.43,23.85,8.2,6.86,18.22,11.22,28.93,11.76ZM579.38,231.04c-2.99-3.36-6.17-7.23-6.53-11.91-.36-4.67,1.99-9.8,3.86-13.97,3.5-7.83,8.07-15.58,14.34-21.51,6.34-6,15.11-10.23,23.81-6.84,8.17,3.18,13.24,11.27,15.74,19.3,4.71,15.15,2.52,32.62,12.32,46.01.06.08.13.14.2.19-.57.96-.81,2.09-.49,3.45.15.62.41,1.21.74,1.78-7.44-1.05-14.41-3.78-20.64-8.1-6.12-4.25-10.55-9.84-15.28-15.48-3.87-4.62-8.15-9.36-13.86-11.67-4.5-1.82-10.74-2.47-13.65,2.29-7.32,11.98,10.32,23.47,18.57,28.16,8.8,5,19.57,9.54,30.3,10.88-1.85.07-3.7.14-5.55.2-.21-.42-.6-.76-1.17-.84-16.38-2.09-31.65-9.5-42.69-21.91ZM561.12,257.56c8.14.91,16.57.47,24.74.41,8.56-.06,17.12-.2,25.69-.4,11.07-.27,22.14-.67,33.2-1.18-.02.08-.04.16-.04.26-.21,13.49,1.12,27.09,1.78,40.57.37,7.59.7,15.18,1,22.77-14.1.86-28.18,1.95-42.3,2.62-13.82.66-27.83.5-41.62,1.72-.4-22.29-.98-44.58-2.44-66.77ZM563.6,326.94c13.78.7,27.83-.35,41.58-1,14.14-.67,28.32-1.36,42.42-2.67.18,4.85.37,9.7.53,14.55.13,4.08.24,8.16.35,12.24-.21-.11-.47-.17-.77-.16-14.4.73-28.79,1.46-43.19,2.2-7.2.37-14.4.72-21.6,1.15-5.92.35-13.13-.2-18.86,1.65-.16-9.31-.29-18.63-.45-27.95ZM630.29,418.57c-17.3.39-34.69,1.08-52,.81-3.39-.05-7.42-.2-10.1-2.53-3.74-3.25-2.96-9.56-3.07-14.04-.21-8.59-.42-17.18-.62-25.77-.17-6.81-.29-13.63-.41-20.45,5.88,1.26,12.92,0,18.83-.26,7.2-.31,14.4-.69,21.6-1.06,14.4-.74,28.79-1.47,43.19-2.21.34-.02.62-.13.85-.29.58,21.76.89,43.54.92,65.31-6.39.17-12.78.35-19.18.49ZM652.81,417.99c0-27.06-.42-54.12-1.33-81.17-.46-13.54-1.02-27.07-1.7-40.6-.63-12.58-.93-25.36-2.61-37.86.24-.67.18-1.39-.25-2.07,4.99-.24,9.99-.49,14.98-.78,5.07-.29,10.14-.62,15.21-.96-.07.1-.12.22-.14.37-3.89,26.43-4.36,53.66-4.28,80.33.08,27.33,1.43,54.79,4.59,81.95,0,.01,0,.02,0,.04-8.16.28-16.31.54-24.47.77ZM781.37,399.77c-.19,4.02-1.12,8.18-4.48,10.71-3.78,2.85-9,2.63-13.53,2.88-8.93.5-17.86.97-26.8,1.4-18.65.91-37.32,1.69-55.98,2.34-2.22-22.55-3.82-45.09-4.39-67.72,17.09,1.02,34.48-.15,51.57-.88,8.49-.36,16.98-.8,25.46-1.3,7.54-.45,15.49-.36,22.98-1.62.21,1.76.43,3.51.63,5.27,1,8.74,1.92,17.49,2.8,26.25.74,7.45,2.1,15.16,1.74,22.66Z"/>
    <path class="cls-1" d="M526.76,162c-2.63-1.61-5.78-.74-7.32,1.92-.74,1.28-.94,2.63-.77,3.96-.95-.47-1.99-.7-3.01-.57-2.5.33-4.45,2.57-4.78,5.01-.37,2.69,1.26,5.26,3.45,6.72,2.99,1.98,6.68,1.78,9.96.76.13-.04.24-.11.34-.18.35.25.81.32,1.3,0,5.27-3.42,6.67-14.04.84-17.62Z"/>
  </g>
  <g>
    <path class="cls-1" d="M273.23,141.85c.39-.52.48-1.27-.05-1.9-9.24-10.83-19.16-21.4-30.1-30.54-.29-.24-.59-.29-.87-.23-.16-.31-.47-.55-.95-.65-4.62-.9-9.26-1.68-13.91-2.41-1.68-.26-3.37-.52-5.06-.74-1.24-.16-2.47-.3-3.71-.42-.24,0-.43.08-.61.18-.01-.02-.01-.03-.02-.05-4.61-6.39-5.69-14.52-11-20.54-4.29-4.86-10.33-7.39-16.74-7.84-12.27-.86-26.28,4.79-33.54,15.01,2.42-12.69,11.7-23.12,13-36.18,1-9.97-3.59-19.88-13.81-22.54-24.81-6.45-37.11,24.25-41.36,43.04-1.93-.59-4.05-.57-6.07.17-1.34-4.64-6.83-5.22-11.49-3.6-3.4-11.16-12.07-21.61-20.97-28.87-7.76-6.33-18.73-14.35-29.23-10.38-10.4,3.94-15.15,15.07-14.71,25.59.61,14.46,8.77,27.11,11.91,40.99.02.11.06.2.1.3-2.97.16-5.95.32-8.92.47-4.47.23-11.16-.67-13.42,4.27-1.19,2.6-.76,5.9-.7,8.65.09,4.16.31,8.32.66,12.47.68,8.12,1.68,16.31,3.81,24.18.04.15.11.28.18.39-.22,1.02.35,2.27,1.7,2.36,2.44.15,4.87.27,7.31.4.78,30.86,2.91,61.73,4.5,92.56.79,15.2,1.57,30.39,2.36,45.59.24,4.66-.44,10.83,1.98,15.09,2.62,4.62,7.56,3.81,12.15,3.6,30.54-1.41,61.57-1.38,91.91-5.28,9.35-1.2,22.36-1.88,28.72-9.98,3.38-4.3,3.13-9.56,2.98-14.74-.23-7.97-.49-15.93-.77-23.89-1.23-35.17-2.89-70.33-4.92-105.47-.12-2.15-3.48-2.16-3.36,0,1.58,27.85,2.92,55.7,4,83.57.54,13.93,1.04,27.87,1.46,41.81.2,6.69,1.49,14.5-4.64,18.98-4.63,3.38-10.78,4.29-16.28,5.2-8.64,1.43-17.36,2.39-26.13,3.08-.65-36.68-1.48-73.36-2.51-110.03-.38-13.44-.75-26.89-1.21-40.33,13.14-.76,26.27-1.82,39.36-3.22,8.44-.9,22.94-.94,24.04-12,.68-6.8.15-13.97.21-20.81.05-5.47,1.73-13.56-2.07-18.22-2.52-3.09-6.64-3.8-10.38-4.22-6.53-.74-13.15-.67-19.72-.42,7.72-10.33,23.8-16.34,36.37-14.16,7.52,1.31,12.81,6.16,16.06,12.9,1.93,4.01,2.73,9.53,6.21,12.57-.01.04-.04.07-.04.11-.62,4.51-.48,9.11-.49,13.66,0,4.54-.39,9.3.47,13.77.09.44.43.72.83.82,4.73,4.95,9.72,9.65,14.53,14.52,4.77,4.82,9.08,10.81,14.4,14.97.4.32.9.34,1.31.19.05.14.1.28.15.41.2.57.73.91,1.34.76,11.31-2.71,19.15-12.5,25.93-21.27.45-.59.27-1.26-.18-1.73ZM105.73,78.49c0,1.1,1.29,1.94,2.27,1.3,5.98-3.88,11.59,2.36,9.96,8.47-1.23,4.61-4.84,6.46-8.89,8.26-.11.05-.2.11-.29.17-4.02.22-8.04.45-12.05.68-1.97-3.21-4.2-5.68-4.89-9.83-.59-3.6-.18-7.51,2.54-10.21,2.24-2.23,11.32-5.5,11.35,1.17ZM112.08,100.96c8.26,14.19,8.52,29.77,9.01,45.75.03,1,.06,2,.09,3-2.24.12-4.48.24-6.72.34-6.44.29-12.89.49-19.34.62-.04-.81-.07-1.63-.1-2.44-.7-15.72-1.47-31.85-7.28-46.63,8.09-.43,16.18-.86,24.26-1.29-.06.2-.04.43.08.65ZM36.68,67.25c-2.59-11.14-1.07-26.42,11.63-30.71,9.89-3.34,21.22,6.06,28.1,12.24,7.99,7.19,13.12,15.59,18.64,24.62-1.11.56-2.1,1.26-2.92,2.05-5.08-9.45-12.21-17.9-20.31-24.89-4.26-3.67-14.67-13.25-19.84-5.57-4.65,6.9,6.37,16.46,10.75,20.39,7.56,6.8,16.62,12.11,26.4,14.96.05.01.09.02.14.03-1.04,3.57-.6,7.57.6,11.05.69,2.02,1.79,4.52,3.45,6.14-10.84.61-21.67,1.23-32.5,1.81-4.62.25-9.24.49-13.86.73.12-.28.17-.62.09-1-2.29-11-7.82-20.93-10.36-31.85ZM90.91,76.87c-.16.24-.32.48-.46.72-.14-.11-.3-.2-.49-.27-6.85-2.33-13.32-5.27-19.28-9.43-3.11-2.17-6.02-4.62-8.72-7.29-2.04-2.02-6.53-5.86-7.2-8.73-2.37-10.04,5.05-6.53,8.1-4.81,1.82,1.03,3.43,2.51,5.05,3.84,3.04,2.48,5.94,5.15,8.69,7.95,5.4,5.53,9.96,11.64,14.31,18.01ZM28.49,149.47c-1.67-12.58-3.64-25.02-3.78-37.75,0-.62-.23-2.6.01-3.4,1.21-4.09,3.31-3.45,6.44-3.67,2.63-.18,5.27-.29,7.91-.43,6.92-.38,13.84-.75,20.75-1.12,8.64-.46,17.29-.92,25.93-1.38,4.2,15.87,5.46,32.02,6.15,48.38,0,.22.02.44.03.65-21.15.36-42.31-.09-63.43-1.27ZM71.44,306.25c-3.29.16-6.58.31-9.88.47-3.14.15-6.79.88-9.88.47-1.64-.22-4.19-.7-5.37-2.15-1.07-1.32-.98-3.91-1.11-5.51-.33-3.95-.4-7.94-.6-11.89-.7-13.87-1.4-27.75-2.1-41.62-1.55-30.79-2.58-61.67-4.95-92.4,18.16.9,36.35,1.18,54.52.86.66,16.04,1.27,32.07,1.81,48.11,1.16,34.22,2,68.46,2.77,102.69-8.43.31-16.85.58-25.21.98ZM124.94,303.85c-8.29.59-16.62.98-24.94,1.29-.63-34.86-1.67-69.71-2.92-104.55-.55-15.4-1.15-30.8-1.82-46.2,8.03-.17,16.05-.45,24.08-.86.65-.03,1.29-.08,1.94-.11.45,15.03.88,30.07,1.29,45.1.96,35.1,1.74,70.21,2.36,105.32ZM175.12,98.35c3.02.31,7.11.67,8.93,3.56,1.76,2.79.84,8.13.81,11.38-.06,6.49-.12,12.98-.18,19.47-.03,3.73.51,7.64-3.2,9.94-2.88,1.79-6.49,2.33-9.78,2.77-6.35.85-12.76,1.4-19.13,1.98-9.26.85-18.53,1.53-27.8,2.07-.12-3.47-.25-6.94-.39-10.41-.53-13.29-1.45-28.4-10.63-38.9,8.05-.43,16.1-.86,24.14-1.29,12.34-.66,24.89-1.83,37.23-.58ZM152.55,94.48c-12.16.53-24.31,1.15-36.47,1.81,3.67-2.86,5.98-7.37,5.26-12.14,8.45-6.53,16.07-14.03,22.71-22.39,2.97-3.74,14.76-15.77,7.81-20.28-6.32-4.1-15.9,4.73-19.66,8.97-7.01,7.9-10.74,18.02-13.69,28.02-.62-.61-1.3-1.14-2.05-1.57,3.11-9.91,6.67-20.16,12.66-28.73,6.05-8.65,16.72-15.39,27.48-11.3,12.42,4.73,10.43,19.78,6.19,29.57-3.98,9.2-9.66,17.84-10.25,28.05ZM119.78,80.01s.05-.07.07-.11c3.22-8.05,6.09-16.36,11.11-23.52,2.01-2.87,4.37-5.53,7.08-7.76,1.88-1.54,3.96-2.93,6.18-3.94,2.16-.99,7.4-3.07,6.2,2.84-.63,3.12-4.75,7.07-6.63,9.5-2.39,3.09-4.91,6.06-7.55,8.93-4.96,5.37-10.34,10.26-16,14.86-.14-.27-.3-.54-.47-.79ZM260.5,153.68c-1.97,1.9-4.07,3.67-6.33,5.22-.33.23-6.45,3.54-6.46,3.37-.02-.52-.67-.82-1.05-.44-.04.04-.07.07-.11.11-3.46-5.84-9.33-10.83-14.11-15.59-4.78-4.75-9.76-9.32-15.15-13.36.69-4.44.2-9.11.07-13.59-.12-4.22-.12-8.5-.72-12.68.17.05.34.04.5,0,2.97,1.78,6.94,2.02,10.31,2.61,4.33.76,8.67,1.47,13.02,2.08.56.08,1.02-.12,1.35-.44,9.41,10.54,19.41,20.61,29.15,30.86-3.34,4.08-6.67,8.18-10.47,11.84Z"/>
    <path class="cls-1" d="M251.43,152.05c-.03-.36-.18-.76-.53-.93-.1-.05-.2-.09-.29-.14-.25-.11-.51-.14-.74-.09-1.28-2.1-4.16-5.15-4.41-5.43-1.99-2.27-4.02-4.5-6.09-6.7-4.15-4.4-8.53-8.57-13.19-12.41-.76-.63-1.77.34-1.09,1.09,5.07,5.59,10.35,11,15.45,16.56,2.43,2.65,4.69,5.57,7.23,8.11,1.07,1.07,1.34,1.57,2.85,1.34.46-.07.89-.66.85-1.12,0-.09-.02-.19-.02-.28Z"/>
    <path class="cls-1" d="M258.29,142.79c-5.78-9.64-15.49-17.84-24.64-24.17-.67-.46-1.49.6-.87,1.13,4.29,3.72,8.48,7.55,12.42,11.65,3.94,4.1,7.32,8.73,11.24,12.81.93.96,2.54-.28,1.85-1.43Z"/>
  </g>
  <path class="cls-1" d="M685.89,449.36c-9.79-12.8-26.37-20.15-42.42-17.43-16.38,2.77-30.69,15.45-34.88,31.47-3.99-15.25-19.02-24.47-34.36-25.37-15.49-.91-30.7,6.27-40.81,17.87-10.61,12.18-14.65,27.97-11.61,43.8,3.51,18.23,15.23,33.52,29.51,44.87,15.14,12.04,35.6,24.12,55.54,24.81.11.69.62,1.27,1.54,1.18,38.65-3.49,71.76-30.18,82.79-67.51,5.18-17.53,6.37-38.45-5.3-53.7ZM600.15,471.55c.17-5.64.72-11.57.07-17.18,2.75,3.53,4.77,7.75,5.76,12.64.21,1.04,1.07,1.34,1.85,1.14.35.89,1.73,1.13,2.03-.03,1.71-6.55,4.88-12.68,9.16-17.85-.09,12.22.65,24.49,2.39,36.59-1.5,1.33-2.91,2.93-4.24,4.62.72-2.35.93-4.8.25-7.38-1.24-4.68-5.55-7.89-10.44-7.09-3.63.59-6.47,3.46-7.25,6.96.17-4.13.31-8.27.43-12.4ZM610.11,501.51c-2.54,1.29-3.23,5.79-3.68,8.28-.54,3.01-.81,6.4-.12,9.47-.9.15-1.97.1-3.28-.2-2.57-.59-4.8-2.67-4.49-5.72.1-1.04,2.78-4.16,3.12-4.58,2.23-2.78,4.84-5.14,7.72-7.23.34-.24.51-.62.55-1.01.39-.1.75-.39.94-.75-.01.49.41.86.87.88-.35.17-.63.51-.71.98-.26-.24-.61-.27-.92-.12ZM610.94,503.06c-.15,3.04-.29,6.08-.46,9.12-.14,2.65-.63,4.95-2.11,6.19-.06-2.66-.23-5.26.24-7.99.25-1.49.62-2.95,1.07-4.39.07-.23.82-2.26,1.26-2.93ZM608.08,499.26c-6.81-1.31-14.34-1.47-19.38,3.87-.79-1.62-.44-3.91-.18-5.8,1.87-13.08,14.61-3.74,19.56,1.93ZM601.95,486.04c4.69,1.25,5.3,7.61,7.98,11.31-2.55-3.18-7.29-7.38-7.98-11.31ZM605,500.49c-2.38.94-4.75,1.88-7.13,2.82-.69.27-1.56.75-2.45,1.16-1.53-.07-3.06-.12-4.6-.16,3.89-3.47,9.05-3.87,14.17-3.82ZM610.19,493.57c-.85-1.76-1.67-3.56-2.67-5.24-1.28-2.15-2.99-4.02-5.52-4.35.33-1.3,1.26-2.54,3.06-3.66,6.46-4.03,10.81,3.78,9.94,9.23-.46,2.86-1.75,5.54-3.12,8.1-.27-1.44-1.06-2.76-1.69-4.09ZM616.57,499.6c-.64.01-1.27.03-1.91.02,2.34-3.37,9.63-14.83,14.12-11.59,1.5,1.09,2.8,3.24,2.89,5.35-5.62-1.25-11.62,1.88-15.1,6.22ZM631.43,495.14c-.27.79-.76,1.53-1.57,2.13-1.11.83-3,1.1-4.32,1.38-2.16.46-4.32.71-6.49.85,3.49-3.09,7.53-4.05,12.38-4.36ZM623.3,505.73c1.13.53,2.78,1.03,3.66,1.89,1.35,1.32,1.99,5.79.81,7.5-.5.73-2.09,1.36-3.75,1.7-.61-5.34-4.85-12.27-9.74-13.4-.13-.38-.25-.76-.38-1.14,3.22.93,6.36,2.03,9.39,3.45ZM599.59,487.04c.15,1.13.51,2.16,1.01,3.13-.44-.22-.87-.43-1.31-.62.12-.12.2-.27.21-.49.03-.67.05-1.35.09-2.02ZM529.62,467.05c6.71-12.28,18.74-21.66,32.43-24.74,13.64-3.07,28.59.86,37.26,10.97-.32-.02-.62.13-.69.56-.88,5.45-.56,11.22-.61,16.74-.05,6.15-.09,12.3.01,18.45-4-1.46-7.87-1.34-10.17,2.06-.18-.23-.44-.41-.81-.44-20.87-1.63-41.93-3.28-62.88-2.88.2-7.14,1.91-14.22,5.46-20.72ZM526.36,504.43c-1.41-4.91-2.19-9.97-2.21-15.02,20.89,1.58,41.87,2.05,62.79,3.43-.3.74-.56,1.57-.76,2.52-.54,2.67-.96,6.17.1,8.86-7.56-.08-15.14.08-22.65.03-12.37-.09-24.83-.52-37.19.15-.03,0-.05.01-.07.02ZM529.74,513.41c-1.17-2.48-2.15-5.04-2.97-7.65,12.24.92,24.58.78,36.85.97,8.36.13,16.81.51,25.22.55.14.08.27.17.42.24,1.96.95,3.88.43,5.77-.29,1.52-.03,3.05-.08,4.57-.15-4.28,5.08-6.75,11.01.58,13.98.81.33,1.73.61,2.69.81-1.39,6.98-.43,14.83-.36,21.86.06,7.4-.56,15.33.61,22.65-29.39-8.03-59.94-24.42-73.38-52.99ZM608.4,567.3c-.31.03-.56.14-.78.28-.86-.21-1.73-.43-2.6-.66,0-.03.03-.05.03-.09,1.09-7.46.25-15.54.15-23.07-.1-6.97.67-14.73-.8-21.62,2.79.3,5.7-.21,7.26-2.49,1.16-1.69,1.28-3.77,1.43-5.75.11-1.34.18-2.68.25-4.03,1.2,3.8,2.78,7.54,5.57,9.71.52.41,1.07.73,1.62.98-.28,7.41-.07,14.85.05,22.25.11,7.37-.18,14.95.47,22.31-4.16,1-8.38,1.74-12.64,2.18ZM619.69,516.73c-1.31-.83-2.09-3.69-2.62-5.13-.79-2.14-1.51-4.32-2.23-6.5,1.52,1.76,3.31,3.26,4.55,5.33,1.31,2.18,1.83,4.36,2.41,6.65-.9.02-1.68-.08-2.11-.35ZM661.24,544.06c-10.76,9.75-23.83,16.69-37.79,20.45.33-7.19-.22-14.52-.36-21.7-.15-7.22-.21-14.49-.72-21.7,2.21.32,4.42-.51,6.09-2.44,2.53-2.92,5.08-7.51,2.54-11.1,18.13,1.1,36.6-.14,54.75.02-5.09,13.9-13.53,26.52-24.51,36.47ZM687.82,501.28c-.38,1.33-.8,2.64-1.24,3.95-.05,0-.08-.03-.13-.03-18.76-.3-38.23-1.42-56.94.76-2.02-1.74-4.92-3.06-7.84-4.09,6.98-.86,14.71-3.33,12.96-9.6,18.48-2.24,36.69-.38,55.21.51-.55,2.9-1.23,5.74-2.02,8.51ZM690.23,490.54c-18.08-1.47-38.35-4.35-56.07.44-.3-.68-.7-1.39-1.22-2.15-2.09-3.08-4.87-6.18-8.61-4.11-.46.26-.91.56-1.36.88-.86-12.18-1.54-24.34-1.83-36.55,0-.36-.16-.62-.38-.79,5.11-5.49,11.57-9.68,18.93-11.81,15.11-4.37,31.65,1.57,41.77,13.33,9.72,11.3,11.07,26.46,8.77,40.75Z"/>
  <path class="cls-1" d="M427.1,122.59c-2.1-14.21-7.33-28.7-11.94-42.25-2.31-6.81-4.79-13.57-7.44-20.26-2.01-5.09-3.71-12.44-8.3-15.84-6.38-4.73-15.68-1.48-23.5,1.77,4.15-5.03,7.22-10.94,6.67-17.66-.61-7.37-5.5-13.82-13.12-14.62-7.64-.8-15.22,3.9-18.62,10.66-2.24,4.46-2.3,9.54-2.27,14.42.02,4.22.06,8.55.56,12.78-4.65-8.43-11.78-15.5-20.62-19.51-8.17-3.71-20.46-4.28-25.48,4.8-4.61,8.34,3.74,17.45,10.74,21.01,6.23,3.16,14.06,4.07,21.54,3.28-5,1.83-10,3.66-15,5.51-4.72,1.75-11.35,3.34-13.74,8.35-.71,1.49-.97,3.09-.78,4.59-.35.3-.57.8-.34,1.34.28.67.58,1.37.91,2.06,1.86,4.47,3,8.96,4.33,13.67.09.32.34.5.62.55.9,3.5,2.11,6.94,3.9,10.07,2.06,7.22,4.25,14.4,6.26,21.55,1.98,7.05,3.96,14.1,5.94,21.15,1.29,4.58,2.41,10.39,6.34,13.6,3.6,2.94,7.53,1.76,11.57.58,7.56-2.21,15.1-4.49,22.62-6.85,13.65-4.29,27.19-8.98,40.35-14.62,9.07-3.89,20.56-8.18,18.8-20.1ZM386.51,46.29c2.52-.64,5.2-1.17,7.78-.59,3.4.78,5.03,3.15,6.29,5.92-5.49,1.11-11.05,4.13-16.19,6.21-5.17,2.09-10.24,4.36-15.19,6.92-2.31-3.33-4.82-6.53-7.56-9.56,3.5-1.28,7.01-2.56,10.51-3.84,4.73-1.73,9.47-3.81,14.36-5.06ZM359.1,52.49c-.13-.13-.26-.27-.39-.41-.74-.75-1.69.21-1.3,1.02-1.18.43-2.37.86-3.55,1.29,2.75-2.88,4.5-7.02,6.52-10.37,1.38-2.3,2.81-4.57,4.37-6.75,1.29-1.79,3.79-5.86,5.92-6.71.8-1.27,1.48-1.14,2.03.39.96.46,1.25,1.05.88,1.78.12,1.17-1.41,3.57-1.91,4.59-1.04,2.14-2.26,4.2-3.6,6.17-2.12,3.1-4.56,5.84-7.25,8.36-.57.21-1.15.42-1.72.63ZM365.15,16.84c8.9-1.6,14.99,5.81,14.36,14.25-.54,7.23-5.61,13.08-10.66,17.84-.13.05-.26.1-.38.14-.5.18-1,.36-1.49.54,2.11-2.5,3.98-5.2,5.55-8.12,1.66-3.09,6.24-10.64,2.58-13.87-7.02-6.21-22.1,22.7-22.97,27.19-.01.07-.01.14,0,.2-.26.09-.52.19-.77.28.61-13.14-4.25-35.22,13.79-38.46ZM320.36,56.98c-6.84-1.92-19.81-10.34-14.28-19.19,5.83-9.33,19.25-4.92,26.44-.2,7.04,4.62,12.33,11.2,15.8,18.82-.08.03-.16.06-.23.09-.03-.31-.19-.62-.53-.85-3.6-2.43-35.65-19.06-36.08-10.17-.21,4.36,9.82,8.91,12.9,10.24,2.25.97,4.6,1.72,6.98,2.24-3.61.21-7.25.07-11-.98ZM328.89,54.85c-2.58-.83-5.06-1.92-7.4-3.27-.99-.57-7.29-4.2-7.11-5.29.69-4.22,22.92,6.7,30.06,10.35-.86.06-1.71.14-2.56.22-4.42-.1-8.71-.64-12.99-2.02ZM311.52,83c-.14-1.58-.37-3.15-.77-4.68.24-1.32.41-2.65.64-3.94.61-.53,1.23-.99,1.79-1.31,2.46-1.4,5.37-2.2,8.04-3.16,4.55-1.64,9.08-3.3,13.62-4.96.84,3.35,3.05,6.48,4.65,9.48.16.3.32.6.48.89-9.15,3.38-18.33,7.34-26.81,12.19-.53-1.52-1.07-3.02-1.64-4.52ZM367.94,153.76c-5.11,1.62-10.23,3.18-15.36,4.72-5.48,1.65-14.76,6.48-18.54.2-3.02-5.02-3.94-11.71-5.5-17.28-1.8-6.41-3.59-12.82-5.39-19.23-3.02-10.8-5.72-21.87-9.29-32.55,9.22-3.68,18.31-7.86,27.36-11.94,1.22,2.29,2.45,4.58,3.64,6.88,3.8,7.35,7.48,14.77,10.96,22.27,6.78,14.61,13.69,29.63,15.77,45.75-1.22.39-2.43.8-3.65,1.18ZM374.53,151.62c-1.82-15.09-8.17-29.17-14.43-42.89-3.7-8.1-7.59-16.13-11.74-24.01-2.08-3.94-4.18-7.87-6.39-11.74-1.66-2.9-3.13-6.24-5.49-8.63.47-.17.94-.34,1.41-.52l18.79-6.86c.41.65,1.23,1.07,1.94.54.44-.33.87-.69,1.3-1.03,19.23,26.21,27.67,56.79,33.42,88.54-6.22,2.34-12.5,4.52-18.81,6.59ZM416.61,135.07c-5.27,2.92-11.03,5.14-16.61,7.38-1.26.51-2.53.99-3.8,1.48-4.65-26.39-10.9-55.22-26.17-77.94,5.76-1.68,11.37-3.74,16.96-5.94,4.73-1.86,10.22-3.36,14.57-6.09.13.32.26.63.39.95,4.3,10.41,8.17,20.99,11.65,31.7,3.56,10.96,6.99,22.13,9.43,33.41,1.54,7.11-.02,11.51-6.42,15.05Z"/>
  <path class="cls-1" d="M224.25,516.03c-5.85-10.07-17.26-13.9-28.42-13.19-4.54.29-9.2,1.13-13.78,2.42-.07-.34-.26-.64-.62-.84-8.12-4.46-17.61-6.59-26.69-8.01-8.96-1.4-18.24-2.47-27.32-2.23-11.51-13.11-29.6-20.65-46.4-13.1-9.46,4.25-16.48,14.03-16.95,24.47-.23,4.97,1.2,9.5,3.7,13.39-7.9,5.93-11.93,15.27-12.32,24.91-3.28,1.27-3.12,5.74-3.08,8.84.09,8.28.46,16.56.71,24.83.25,8.28.5,16.55.75,24.83.24,7.94-.23,16.31,1.02,24.15,0,.03.02.04.02.07-1.55,5.15,1.76,10.66,5.47,14.55-1.77,13.45-.68,27.57-.68,41.12,0,13.75,0,27.5.02,41.25,0,.4.12.73.31.99-.58,5.1,4.15,11.07,7.23,14.51,5.1,5.69,11.67,10.17,18.28,13.9,13.54,7.63,28.8,12.11,44.31,13.12,30.05,1.95,62.5-10.3,82.07-33.64.75-.89.36-1.98-.37-2.46,0-.06.02-.11.02-.17.05-17,.15-33.99.7-50.99.54-16.95,2.12-33.95,2.03-50.91,1.89-3.13,3.31-6.56,4.11-10.32,2.15-10.03,1.56-20.95,1.44-31.15-.14-11.59-1.05-23.29-4.6-34.39-.07-.21-.16-.38-.28-.52,2.66-1.49,5.12-3.5,7.29-6.2,6.73-8.35,7.42-19.98,2.04-29.24ZM153.94,499.32c8.62,1.43,16.61,3.98,24.73,6.98-8.25,2.76-16.12,7-22.52,12.33-.34-.39-.71-.76-1.15-1.09-2.81-2.14-7.05-2.48-9.53.2-1.24-1.87-3.27-3.18-5.72-3.2-.72,0-1.4.1-2.04.28.3-.31.45-.75.3-1.3-1.62-6.03-4.63-11.84-8.62-16.96,8.16,1.12,16.41,1.41,24.55,2.76ZM161.99,574.28c.22,2.8.73,5.53,1.45,8.22-18.45-8.24-28.03-27.19-26.76-47.22,1.88.05,3.82-.46,5.39-1.47-.6,2.98,1.8,5.86,5.09,6.13,1.69.14,3.19-.31,4.48-1.13,3.83,11.99,13.62,20.72,23.29,28.39-2.45.06-4.9.12-7.34.18-1.63.04-3.99-.32-5.15,1.14-1.18,1.48-.58,4.06-.45,5.75ZM149.98,536.85c-2.95,1.45-7.28-.44-6-4.23.06-.19.04-.35-.03-.48.55-.69.98-1.47,1.23-2.36.17-.6-.67-1.16-1.1-.64-1.71,2.06-3.8,3.65-6.6,3.7-4.5.08-6.27-3.41-5.11-7.44.78-2.72,2.25-5.91,4.8-7.41,3.95-2.32,7.92,1.28,7.69,5.39-.05.99,1.5,1.2,1.73.23.29-1.24.23-2.5-.1-3.67.09-.06.17-.12.25-.22,1.6-1.81,4.08-2,6.15-.83.78.44,1.37,1.02,1.82,1.68.04.34.23.67.51.91.75,1.67.8,3.69.5,5.53-.4,2.37-1.28,4.71-2.59,6.72-.78,1.19-1.8,2.47-3.13,3.12ZM99.26,551.27c-.93-1.47-3.02-1.98-4.51-2.56-2.1-.83-4.21-1.65-6.32-2.47,6.74-2.54,12.85-6.59,17.42-12.25,8.05-.46,16.14-2.08,23.65-3.7.02,0,.03-.02.05-.02.46,1.57,1.42,2.9,2.91,3.81-2.14,8-9.68,15.04-15.66,20.32-5.64,4.98-11.9,9.05-18.65,12.29.37-2.79.73-5.59,1.1-8.38.27-2.06,1.24-5.09,0-7.04ZM130.6,522.16c-11.7-.63-23.38-1.73-34.67-5.03-4.38-1.28-8.73-2.93-12.54-5.49-4.82-3.26-10.99-10.46-7.62-16.75,5.68-10.6,24.71.98,31.5,4.99,9.36,5.52,16.62,12.73,24.56,19.94-.47.76-.88,1.55-1.23,2.34ZM70.27,494.95c7.39-13.21,23.32-16.33,36.87-11.59,14.06,4.92,23.81,17,28.13,30.92.2.65.71.96,1.23,1-1.24.59-2.33,1.49-3.26,2.57-7.63-9.89-19.4-17.72-30.39-23.25-7.74-3.89-24.26-11.99-29.55-.3-4.62,10.22,6.88,19.43,14.93,22.94,12.7,5.52,27.94,7.58,41.74,6.51-.05.16-.12.32-.17.47-.48,1.48-.67,2.97-.56,4.35-15.58.17-31.53,5.47-46.53-1.19-12.93-5.74-19.72-19.41-12.44-32.43ZM69.16,520.88c3.08,3.95,7.28,7.13,11.94,9.25,6.36,2.91,13.25,3.97,20.26,3.99-5.29,4.89-11.15,8.43-18.34,10.35-1.73.46-1.46,2.68,0,3.25,3.86,1.52,12.46,3.15,13.04,8.21.46,4.02-1.38,9.37-1.97,13.35-.25,1.69,1.18,2.78,2.74,2.1,8.97-3.88,17.3-9.21,24.38-15.97,5.7-5.44,12.29-12.31,13.26-20.47.23.06.44.13.68.18.05.01.11.01.16.02-4.82,22.32,9.1,43.89,30.16,51.63,1.13.42,2.33-.86,1.97-1.97-.78-2.38-1.46-4.76-1.86-7.24-.28-1.71-.45-3.43-.5-5.16-.64-1.55-.38-2.16.79-1.83,1.24-.65,4.81-.06,6.26-.1,2.42-.06,4.84-.12,7.27-.18,1.25-.03,2.29-1.83,1.13-2.73-10.23-7.97-20.16-16.24-25.44-28.23,10.68,7.32,22.77,12.26,35.54,14.61,7.26,1.34,14.51,1.49,20.89-.9-1.49,13.49-10.27,24.68-21.73,31.64-13.5,8.19-29.85,9.8-45.32,9.54-28.52-.47-66.39-3.58-81.46-32.1-7.12-13.48-5.07-30.73,6.16-41.25ZM208.74,677.77c-.67,17.3-1.03,34.65-.78,51.97,0,.64.29,1.09.69,1.37-20.49,19.98-46.39,32.4-75.54,31.4-14.85-.51-29.63-4.39-42.8-11.3-6.52-3.42-12.95-7.47-18.27-12.6-2.51-2.42-4.76-5.1-6.52-8.11-1.11-1.89-1.73-4.06-2.75-5.97.21-.26.35-.61.35-1.05-.02-14.08-.07-28.16-.11-42.24-.04-12.56.83-25.61-.57-38.15,5.65,4.94,12.82,7.82,19.87,10.12,16.61,5.41,34.12,8.39,51.61,8.28,16.85-.11,33.75-3.17,49.21-9.95,10.45-4.59,21.62-10.95,28.69-20.18-2.1,15.32-2.5,30.98-3.09,46.4ZM216.6,605.43c-.38,9.4-2.13,18.33-8.54,25.55-5.18,5.83-12.02,10.22-18.84,13.91-27.49,14.85-60.62,16.12-90.61,9.31-14.35-3.26-42.5-9.75-41.06-29.24.02-.28-.09-.49-.25-.65.37-6.25-.33-12.76-.53-18.98-.22-6.95-.43-13.9-.65-20.86-.21-6.62-.41-13.24-.62-19.86-.11-3.64-.22-7.28-.37-10.92-.09-2.31-.53-4.99.31-7.2.06,2.3.32,4.6.79,6.87,3.08,14.82,14.85,26.45,27.93,33.16,16.02,8.22,34.53,9.92,52.23,10.82,17.46.89,36.07.3,51.9-7.99,12.1-6.33,22.25-17.27,25.5-30.55,3.42,15.22,3.43,31.1,2.79,46.64ZM214.62,548.18c-6.77,4.56-14.61,4.31-22.35,2.98-13.52-2.32-26.31-7.64-37.94-14.83,1.26-1.6,2.22-3.52,2.85-5.29.09-.24.16-.49.24-.74,10.27,7.11,22.9,11.01,35.22,12.33,6.28.67,12.7.69,18.97-.12,4.25-.55,9.35-1.88,10.77-6.54,3.15-10.34-15.26-12.71-21.33-13.62-14.26-2.13-28.71-.97-42.96.66-.1-.61-.24-1.22-.44-1.8,10.86-8.77,25.72-14.98,39.75-15.4,14.48-.44,28.11,8.99,27.46,24.64-.3,7.15-4.36,13.77-10.24,17.74ZM157.9,528.47c.16-.78.28-1.58.34-2.38,10.1-1.12,20.25-2.07,30.42-1.77,5.73.17,11.45.73,17.06,1.91,3.86.81,18.62,3.99,12.33,10.66-3.45,3.67-11.28,3.12-16.02,3.15-5.28.03-10.55-.45-15.75-1.4-10.08-1.84-19.25-5.64-28.38-10.16Z"/>
  <path class="cls-1" d="M339.75,449.13l-.92-13.95c-.63-9.63-1.26-19.26-1.89-28.89-2.52-38.83-4.23-77.82-7.72-116.57,0,0,0,0,0-.01,1.09-.19,2.13-.57,3.03-1.33,2.27-1.92,1.88-4.66,1.78-7.35-.38-9.96-.96-19.93-1.45-29.88-.49-9.85-.24-20.11-1.52-29.88-.66-5.03-3.62-6.4-7.95-6.14.47-9.8-5.61-19.83-15.79-21.55-12.7-2.15-19.5,10.99-27.12,18.49-.71.7-.55,1.57-.03,2.13-.45-.45-.98-.83-1.54-1.13-1.01-.52-2.62-.95-3.72-.46,0,0-.01,0-.02-.01-.21-.08-.43-.11-.65-.12,0-.02,0-.04-.01-.06-4.52-10.3-14.6-18.01-25.15-21.34-10.25-3.24-20.7-1.58-22.82,10.38-1.39,7.85-.77,15.44,3.79,20.91-1.42.06-2.84.84-3.83,2.15-1.45,1.93-1.35,4.67-1.34,6.93,0,4.2.24,8.41.35,12.6.45,15.9,1.12,31.8,3.31,47.57.1.69.93,1.2,1.57,1.2,1.63,0,3.26-.01,4.9-.03-.03.49-.05.98-.07,1.47-.18.3-.22.67-.05,1.01-.33,8.43.52,17.05.91,25.41l1.38,29.73c.89,19.16,1.78,38.31,2.66,57.47.45,9.91.9,19.82,1.35,29.73l.63,13.87c.15,3.36-.19,7.23.88,10.49,1.76,5.36,7.37,6.48,12.36,6.68,9.21.37,18.51.06,27.73.09.05,0,.09,0,.13-.01,0,.03.01.05.02.08,1.84,5.19,10.7,3.4,14.77,3.53.74.02,1.2-.39,1.39-.93.27-.14.49-.38.54-.74.1-.72.16-1.44.22-2.17,9.52.28,19.07,0,28.59-.28,5.66-.17,10.21-1.06,11.5-7.3.78-3.81.08-7.95-.17-11.77ZM336.27,446.15c.01.16.02.31.03.47-5.99-4.24-13.85-6.83-20.49-9.93-5.61-2.62-11.25-5.18-16.95-7.62-.14-4.18-.26-8.36-.41-12.54-.02-.57-.04-1.14-.07-1.72,5.68,4.44,11.94,8.08,18.34,11.39,5.37,2.78,12.47,7.29,18.77,8.2.25,3.91.51,7.83.76,11.74ZM331.99,380.95c.31,4.46.62,8.92.91,13.38.03.48.06.97.09,1.45-6.3-3.44-12.9-6.42-19.35-9.57-5.08-2.48-10.97-6.46-16.7-7.35-.2-4.62-.39-9.24-.61-13.86,6.34,3.73,13.2,6.61,19.89,9.66,3.54,1.61,7.08,3.24,10.63,4.84.59.27,2.29.54,3.35.84.36.53,1.06.9,1.67.65.04-.02.08-.03.12-.05ZM331.24,370.34c.16,2.26.32,4.53.48,6.79-.39-.06-.84-.07-1.4-.21-3.91-1.01-7.71-3.33-11.37-4.98-7.46-3.37-14.9-7.07-22.72-9.53-.16-3.36-.34-6.71-.51-10.07,5.23,3.7,10.9,6.8,16.6,9.69,5.81,2.94,12.41,7.13,18.86,8.31.03,0,.05,0,.07,0ZM331,367.01c-5.31-3.48-12.09-5.64-17.71-8.47-5.88-2.97-11.71-6.12-17.71-8.83-.2-3.96-.39-7.92-.6-11.88,1.39.81,3.11,1.35,4.25,1.84,2.01.87,4.31,2.26,6.57,2.49-.27.43-.54.85-.83,1.27-.37.54-.32,1.07-.05,1.48,0,.63.52,1.26,1.35,1.09,2.3-.49,4.59-1.04,6.87-1.62.34,1.96.62,3.93.88,5.91.21,1.56,2.53,1.72,2.65.26.43,0,.86-.2,1.16-.7.03-.04.05-.09.08-.13,4.08,2.42,8.29,4.63,12.37,7.06.24,3.41.49,6.82.73,10.24ZM255.75,374.38c.15-.25.23-.57.15-.95-.81-3.86-1.24-7.65-1.36-11.39,3.25,2.32,6.54,4.58,9.87,6.77,3.54,2.32,7.1,5.16,11.11,6.56.26.09.5.08.71.02.24,4.65.48,9.3.74,13.96-3.86-3.34-8.72-6.02-12.81-8.71-2.8-1.83-5.63-3.65-8.55-5.31.16-.27.24-.6.14-.94ZM266.06,365.98c-3.77-2.16-7.64-4.16-11.57-6.02,0-3.39.24-6.74.68-10.05,3.21,2.14,6.47,4.22,9.77,6.22,3.34,2.02,6.86,4.69,10.65,5.75.16,3.5.31,7.01.49,10.51-2.89-2.63-6.66-4.48-10.02-6.41ZM273.94,314.76c-1.13-.75-2.51-1.21-3.75-1.7-1.09-.43-2.19-.84-3.3-1.21,2.21-5.44,4.45-10.87,6.51-16.32.27-.71.53-1.43.79-2.15-.32,7.1-.35,14.24-.24,21.39ZM268.99,315.89c1.58.88,3.19,1.87,5.01,2,.08,3.65.18,7.3.3,10.94-1.51-.77-3.28-1.26-4.67-1.94-2.34-1.14-4.71-2.88-7.23-3.7,1.13-3.04,2.34-6.06,3.55-9.08.99.62,2.01,1.21,3.02,1.77ZM267.94,329.8c1.8,1.01,4.23,2.69,6.5,2.95.12,3.27.24,6.54.36,9.79,0,.17.01.33.02.5-5.06-3.22-10.78-6.03-16.54-7.54.97-3.38,2.09-6.73,3.29-10.06,1.75,1.84,4.24,3.16,6.37,4.35ZM274.9,347.6s.07.03.1.05c.14,3.56.27,7.11.43,10.67-2.67-2.03-5.98-3.47-8.84-5.02-3.64-1.97-7.35-3.87-11.08-5.69.55-3.41,1.31-6.78,2.21-10.12,5.79,3.32,11.58,6.43,17.18,10.11ZM267.39,302.33c-1.19,2.92-2.44,5.9-3.69,8.9-.23.16-.34.45-.31.75-7.75,18.71-15.4,38.88-10.79,58.92-1.31-1.28-2.65-2.53-3.94-3.8-.7-.69-2.06-.42-2.28.6-.55,2.6-.62,5.22-.33,7.83-12.4-24.99.53-51.77,12.02-74.69.47-.94.94-1.89,1.41-2.84,1.31.06,2.25-1.59,1.23-2.51.63-1.3,1.26-2.61,1.88-3.92.82-.31,1.13-1.22.89-1.92,3.78-8.29,6.98-16.84,8.53-25.86,2.37-13.79,1.15-27.79-1.82-41.38-.08-.35-.25-.6-.47-.76.33-.21.65-.42.95-.66.96,1.59,2.55,2.76,4.45,2.95-.04.11-.07.23-.05.35,1.92,13.2,4.22,25.76,2.96,39.18-1.27,13.56-5.53,26.3-10.65,38.85ZM250.34,372.57c-.61-.29-1.23-.57-1.86-.84.04-.29.08-.58.12-.87.58.57,1.16,1.14,1.74,1.71ZM253.86,292.29c1.87-.1,3.75-.23,5.62-.38-.37.78-.76,1.55-1.13,2.33-1.47-.7-2.97-1.34-4.48-1.94ZM276.4,223.93c.38-.05.76-.12,1.12-.24,1.82,1.95,3.94,3.95,6.26,5.82-.03.18-.03.37.03.58,5.8,20.17,23,33.61,32.54,51.75,10.84,20.63,9.34,44.13-.14,64.75-.22-1.4-.48-2.8-.76-4.18-.14-.7-.97-1.09-1.61-.92-1.65.45-3.3.92-4.94,1.4,4.83-8.06,6.66-17.01,6.44-26.05.46-.62.54-1.51-.09-2.11-.24-4.13-.91-8.26-1.9-12.32.56-.65.61-1.73-.33-2.38-.11-.08-.24-.15-.35-.23-1.03-3.69-2.29-7.32-3.77-10.81-.03-.15-.08-.29-.17-.41-7.95-18.57-20.43-34.8-28.66-53.21-.87-3.93-2.08-7.76-3.67-11.45ZM322.89,289.68c1.06,0,2.19.11,3.31.16.64,15.89,1.62,31.78,2.71,47.66-1.51-.77-3.1-1.44-4.69-1.99,4.48-14.81,3.79-31.47-1.34-45.83ZM303.24,283.51c.73,1.49,1.43,3.01,2.11,4.54-1.69,0-3.4.18-5.08.23-2.69.09-5.37.07-8.06.08-.58-9.69-1.29-19.37-2.46-28.99,4.59,7.98,9.41,15.86,13.49,24.14ZM306.56,290.94c.86,2.15,1.65,4.34,2.35,6.55-5.13-2.88-10.9-5.08-16.41-6.56-.05-.01-.1,0-.14,0,0-.15-.02-.31-.03-.46,4.38.91,9.84,1.58,14.22.47ZM310.25,302.15c.92,3.59,1.58,7.22,1.91,10.85-6.11-3.23-12.41-6.08-19.02-8.13-.22-3.95-.44-7.91-.67-11.87,6,2.93,11.83,6.13,17.78,9.15ZM312.4,316.97c.08,3.7-.21,7.38-.94,10.99-5.36-3.21-11.58-5.7-17.45-7.86-.21-3.7-.4-7.4-.62-11.1-.04-.6-.07-1.21-.1-1.82,6.32,3.36,12.77,6.48,19.12,9.79ZM310.63,331.32c-.8,2.78-1.89,5.51-3.3,8.17-1.88-1.62-5.07-2.21-7.27-3.13-1.47-.62-3.49-1.87-5.29-2.01-.21-3.81-.41-7.63-.62-11.44,5.21,3.18,10.81,6.31,16.47,8.41ZM329.97,352.57c-3.41-2.04-7.02-3.83-10.8-5.03,1.6-2.89,2.96-5.92,4.08-9.04,1.88,1.23,3.91,2.29,5.95,3.16.25,3.64.51,7.27.77,10.91ZM327.04,219.69c1.32,1.84,1.07,3.35,1.17,5.56.13,2.99.28,5.98.42,8.97.31,6.31.61,12.62.92,18.93.29,5.98.58,11.95.88,17.93.16,3.23.71,6.74.5,9.96-.13,1.96-.4,4.45-2.3,5.74-.75.51-5.29.29-6.47.44-.06,0-.11.04-.17.06-.1-.26-.2-.51-.3-.77-8.32-20.12-26.89-34.06-34.5-54.45,6.07,4.19,13.09,7.18,19.74,6.53,9.3-.92,14.59-11.84,15.9-20.54,1.87-.24,2.92-.16,4.23,1.66ZM293.42,232.29c5.97,1.57,12.32,1.59,18.19-.29.26.32.64.52,1.04.49-2.9,2.5-6.61,3.77-11.11,2.73-2.78-.64-5.5-1.66-8.12-2.93ZM282.45,214.31c6.12-5.81,11.06-16.16,20.09-17.84,10.82-2.02,18.16,9.25,17.62,18.79-.26,4.68-1.82,9.96-4.6,13.97,1.04-3.32-1.4-7.21-4.85-8.87-8.24-3.94-19.8-2.9-28.58-2.22-.09,0-.16.04-.24.07,0-.39-.02-.79-.11-1.19-.24-1.03-.79-1.97-1.53-2.74.56.53,1.47.72,2.19.03ZM281.58,219.87c.14.11.32.19.55.19,5.24.13,10.49-.03,15.71.46,2.85.27,5.73.63,8.51,1.32,3.23.81,9.64,4.21,5.27,8.35,0,0,0,0,0,0-11.51,1.98-22.41-.46-31.56-8.04.67-.65,1.2-1.43,1.52-2.29ZM273.8,214.82c.08-.06.19-.13.31-.2.07.08.14.15.23.21.83.48,1.51.13,2.4.35,1.02.26,1.99,1.11,2.31,2.12.48,1.52-.59,2.98-1.98,3.54-.23-.02-.44.05-.61.19-.17.04-.35.06-.53.07-1.94.05-3.24-1.76-3.31-3.57-.04-1.06.32-2.04,1.18-2.71ZM229.21,202.78c.93-5.9,3.89-10.2,10.39-10.32,4.68-.09,9.68,1.56,13.87,3.53,8.05,3.79,13.84,9.78,18.91,16.9-1.5.73-2.38,2.17-2.62,3.81-.13.87-.06,1.75.17,2.59-5.1,2.76-11.65,3.24-17.37,3.56-2.95.17-5.9.11-8.81-.51-2.18-.47-7.42-1.79-8.49-4,.13-1.95.26-3.9.39-5.85.68-.12,1.37-.24,2.05-.35,1-.09,2.03-.01,3.04.02,3.29.11,6.58.46,9.84.98,5.85.93,11.42,2.68,16.98,4.67,1.5.54,2.07-1.77.65-2.36-4.26-1.75-42.71-12.52-36.9,1.74,2.31,5.68,10.57,7.86,15.99,8.27,3.47.26,7.83.27,12.05-.34-6.05,2.14-12.66,2.63-18.85.54-10.55-3.56-12.89-12.69-11.29-22.88ZM231.51,289.52c-1.41-10.61-2.17-21.29-2.68-31.98-.24-5.14-.44-10.29-.66-15.44-.11-2.59-.21-5.17-.32-7.76-.11-2.61.28-11.82,4.61-9.17.23.14.44.14.61.08,1.09.81,2.31,1.55,3.68,2.19,10.03,4.71,21.99,2.52,30.97-3.47,3.13,15.21,4.09,30.97.11,46.13-1.7,6.47-4.16,12.66-6.92,18.72-9.8.16-19.6.63-29.41.7ZM237.04,294.3c-.07-.51-.12-1.03-.21-1.54,4.21-.04,8.43-.12,12.65-.28,2.47,1.54,4.95,3.11,7.54,4.45-1.01,2.04-2.03,4.07-3.05,6.1-5.9-2.61-11.45-5.31-16.93-8.73ZM237.46,297.74c4.33,3.72,9.59,6.74,15,8.32-.73,1.46-1.46,2.93-2.17,4.4-.48.98-.95,1.98-1.42,3-1.46-.63-3.03-1.07-4.51-1.64-2.03-.79-4.01-1.68-5.97-2.63-.07-.04-.15-.06-.23-.08-.14-3.79-.33-7.6-.71-11.37ZM238.47,316.71c-.07-1.46-.12-2.94-.18-4.41,2.7,1.95,5.85,3.78,9.09,4.48-1.39,3.15-2.7,6.43-3.9,9.78-.66-.35-1.43-.59-2.04-.84-.77-.32-1.7-.85-2.6-1.01l-.38-7.99ZM239.58,340.34l-.61-12.93c.51.29,1.03.54,1.42.77.69.4,1.4.89,2.13,1.15-1.18,3.61-2.2,7.29-2.95,11ZM240.96,369.39c1.21,3.22,2.85,6.34,5.01,9.31.56.77,1.76.15,1.38-.7.38-.09.71-.38.72-.83.01-1.2.09-2.38.2-3.55,4.25,3.43,8.86,6.4,13.35,9.49,5.01,3.45,10.1,8.15,15.61,10.8,0,.02,0,.05,0,.07.22,3.76.46,7.52.7,11.29-11.48-8.05-23.2-16.84-35.8-22.86-.18-.09-.38-.09-.55-.04l-.62-12.99ZM242.17,394.99c-.17-3.68-.35-7.35-.52-11.03,10.92,10.02,24.29,18,36.59,26.18.25,3.72.5,7.43.76,11.15-10.97-9.49-23.78-17.97-36.74-24.37-.03-.64-.06-1.28-.09-1.93ZM242.41,399.84c11.94,8.62,23.95,17.24,36,25.69.31.21.62.3.92.29.28,3.83.54,7.66.83,11.48-4.33-5.01-11.07-8.98-16.29-12.81-6.74-4.95-13.64-9.74-20.95-13.82-.17-3.61-.35-7.22-.52-10.83ZM243.05,413.17c5.48,4.38,11.14,8.53,16.75,12.74,3.38,2.54,6.74,5.12,10.08,7.72,3.03,2.36,5.96,5.3,9.45,6.91.34.15.73.15,1.09.04.12,1.59.24,3.19.37,4.78.2,2.47.41,4.94.62,7.4-5.11-4.81-11.64-8.55-17.24-12.73-6.35-4.75-12.55-9.99-19.4-14.01-.42-.25-.84-.1-1.08.19-.21-4.35-.42-8.7-.63-13.05ZM256.36,465.62c-3.82-.08-9.02-.13-10.7-4.49-.61-1.58-.83-3.53-.92-5.55,4.56,3.66,9.51,6.86,14.4,10.07-.93-.01-1.85-.02-2.78-.04ZM264.3,465.72c-.06-.43-.29-.85-.74-1.16-5.96-4.03-11.84-8.35-18.18-11.75-.22-.12-.45-.16-.67-.14.01-1.85.07-3.64,0-5.16-.08-1.59-.15-3.17-.23-4.76,4.56,3.87,9.46,7.41,14.31,10.86,5.6,3.99,11.31,8.96,17.47,12.1-3.98.01-7.97.02-11.95,0ZM281.4,464.97c-.7-.42-1.41-.88-2.16-1.2-.01,0-.03,0-.04-.02-4.81-4.79-11.35-8.39-16.93-12.24-5.83-4.02-11.71-8.13-17.93-11.54-.2-4.16-.4-8.33-.6-12.49,5.03,5.48,11.19,9.98,17.1,14.46,6.17,4.67,12.62,10.51,19.64,13.79.4.19.82.18,1.17.04.1,1.14.19,2.27.28,3.41.17,1.96.12,4.23.33,6.36-.25-.22-.56-.39-.86-.57ZM291.9,469c-3.35-.15-4.86-.32-6.14-3.9-1.21-3.38-.71-8.24-1.02-11.84-.67-7.9-1.3-15.79-1.88-23.7-1.15-15.47-2.15-30.96-3-46.46-.85-15.5-1.5-31-2.09-46.51-.6-15.8-.66-31.78-2.09-47.53,0-.03-.01-.04-.02-.07,4.61-14.25,7.35-30.27,5.73-45.44,1.89,4.08,3.99,8.06,6.18,12,.06,17.82,1.72,35.65,2.74,53.43,1.04,18.24,1.98,36.49,2.81,54.75.81,17.92,1.52,35.85,2.13,53.78.12,3.48.21,6.97.32,10.45-.53.3-.7,1.26-.05,1.64.03.02.07.04.1.06.15,4.92.32,9.83.45,14.75.23,8.11-.37,16.75.88,24.81-1.69-.08-3.38-.15-5.07-.23ZM297.08,381.79c4.37,3.55,10.78,5.68,15.6,8.06,6.55,3.23,13.05,6.7,19.78,9.57.27.11.53.16.79.16.25,3.76.49,7.51.73,11.27-5.44-2.76-11.79-4.44-17.27-6.91-3.28-1.48-6.53-3.03-9.76-4.62-2.41-1.18-5.02-2.93-7.67-3.43-.54-.1-1.28.05-1.58.59-.2-4.9-.4-9.79-.61-14.69ZM298.07,398.39c.51.6,2.52,1.72,2.25,1.55,1.53.93,3.14,1.77,4.73,2.6,3.46,1.8,6.99,3.47,10.55,5.04,5.82,2.56,12.25,5.95,18.62,7.06.35,5.36.7,10.71,1.05,16.07-1.99-1.01-4.17-1.71-6.26-2.62-3.54-1.55-7.04-3.19-10.49-4.93-6.86-3.47-13.43-7.46-20.23-11.05-.17-4.66-.35-9.32-.53-13.98.15.15.23.23.31.27ZM300.01,466c.12-2.32.11-4.67.04-7.03,2.13,1.46,4.35,2.82,6.57,4.11,1.27.74,2.56,1.58,3.89,2.33-3.5.14-7.01.32-10.5.59ZM336.93,457.79c-.11,2.73-1.08,5.43-3.73,6.82-1.72.9-5.67.33-7.65.37-3.27.08-6.53.16-9.8.26-.05-.08-.1-.17-.18-.25-2.2-2.07-5.3-3.36-7.96-4.75-2.49-1.3-5.04-2.57-7.64-3.67-.15-3.59-.4-7.18-.54-10.69,4.53,4.1,12.2,6.14,17.61,8.42,5.73,2.41,12.17,6.11,18.38,6.78,1.25.13,1.36-1.53.57-2.11-5.33-3.93-13.11-5.79-19.21-8.37-5.3-2.23-11.61-6.25-17.42-6.58-.12-4.15-.27-8.3-.4-12.45,5.54,3.12,11.19,6.06,16.91,8.85,6.2,3.04,12.89,7.2,19.61,8.85.42.1.77.03,1.04-.14.25,2.88.54,5.81.42,8.66Z"/>
  <g>
    <path class="cls-1" d="M460.86,531.92c-4.75-12.58-17.01-15.41-28.94-11.53-14.55,4.73-26.01,15.7-38.77,23.74-.3-1.04-.76-2-1.46-2.81-2.5-2.91-6.33-3.11-9.76-2.09-2.25-2.84-5.74-4.79-9.46-4.22-1.48.23-2.85.92-3.93,1.91-7.35-4.2-12.64-8.92-16.45-16.66-3.87-7.86-5.81-16.67-10.43-24.17-7.14-11.57-22.21-9.39-32.17-2.61-21.07,14.35-19.89,42.24-4.39,59.34-1.47,4.78-2.83,9.6-4.28,14.38-1.55.02-3.11,0-4.68-.1-4.8-.29-9.55-1.1-14.18-2.41-4.13-1.17-8-2.67-12.31-2.96-.93-.06-1.62.96-1.38,1.81.62,2.17,1.36,4.29,2.32,6.33,1.15,2.43,3.24,4.54,4.29,6.93.74,1.68,2.57,1.01-.65,2.82-1.34.76-3.28.99-4.74,1.43-1.58.48-3.16.95-4.73,1.46-.63.2-1.26.41-1.89.61-.53.17-.88.53-1.05,1.1,0-.01-.01-.02-.02-.03-.05-.05-.09-.1-.14-.15-.18-.19-.48-.21-.7-.09-.09.05-.17.09-.26.14-.24.13-.41.42-.4.7,0,.05,0,.1,0,.15,0,.13.04.26.1.39-.2.35-.17.8.31,1.05,9.06,4.75,18.82,8.11,28.83,9.84-5.51,12.27-8.96,25.74-13.14,38.5-4.34,13.25-8.71,26.49-13.03,39.75-1.92,5.88-3.93,11.73-5.52,17.71-1.23,4.63-3.23,10.86-2.42,15.73.59,3.58,3.19,5.52,6.35,6.9,5.95,2.59,12.48,4.26,18.63,6.31,26.84,8.96,53.68,17.95,80.53,26.87,6.32,2.1,12.61,4.31,18.96,6.29,4.29,1.34,9.39,2.67,13.42-.11,3.67-2.54,4.15-7.13,4.81-11.19,1.13-6.9,2.33-13.79,3.64-20.65,5.73-30.04,13.73-59.36,22.63-88.6.51-1.67-2.03-2.34-2.59-.71-7.86,22.78-14.01,46.29-19.24,69.8-2.62,11.78-4.96,23.63-6.99,35.53-1.09,6.39-1.41,15.37-10.34,13.88-6-1-11.96-3.67-17.72-5.57-12.25-4.04-24.5-8.1-36.75-12.14,2.75-7.5,5.35-15.07,7.88-22.67,5.91,6.46,18.74,8.58,22.83-1.09,1.6-3.8.6-8.86-3.28-10.83-2.57-1.31-5.53-.94-7.67.71-1.52-2.67-4.71-3.73-7.28-2.87,3.78-11.78,7.44-23.6,11.22-35.35,3.45-10.72,6.94-21.44,10.41-32.16.02.02.02.05.04.07,4.97,6.75,16.13,8.81,21.87,1.68,2.51-3.12,2.94-7.64-.29-10.44-2.41-2.09-5.35-2.14-7.97-1.02-.52-2.85-3.11-5.21-6.4-4.99-.64.04-1.73.45-2.87,1.07,2.55-7.95,5.09-15.91,7.56-23.89,1.68,4.53,3.88,8.87,6.56,12.85,10.02,14.93,26.33,24.21,44.01,26.54.91.12,1.46-.95,1.29-1.69-.67-2.91-1.35-5.83-2.02-8.74,5.74-.34,10.8-2.51,15.11-6.51.93-.86.17-2.34-.99-2.39-3.52-.14-6.97-.61-10.34-1.37,2.65-8.06,4.42-16.42,6.06-24.73.02-.09.02-.18.03-.26,7.56-1.96,13.93-7.02,18.25-14.35,6.43-10.91,10.7-27.95,6.08-40.19ZM393.32,551.09c.26.09.56.12.89.04,9.55-2.32,17.54-7.74,25.6-13.15,8.3-5.57,24.35-16.65,32.59-5.14,4.65,6.5-.88,13.46-6.86,16.44-5.16,2.57-11.2,3.89-16.85,4.84-11.87,1.99-23.98,1.45-35.78-.73.15-.75.29-1.52.4-2.3ZM368.99,539.57c1.12-1.32,2.71-2.17,4.61-2.2,2.38-.03,4.25,1.24,5.81,2.85-.43.21-.85.44-1.25.68-1.08.66-.39,2.57.89,2.12,3.82-1.33,10.23-4.27,11.56,3.18.31,1.73-.27,4.9-.51,6.4-.52,3.28-1.92,12.84-6.48,13.04-3.65.16-6.16-3.52-9.55-3.55.2-.27.39-.55.56-.85.76-1.28-1.02-2.68-2.07-1.6-2.25,2.33-6.25,3.85-6.71-.8-.22-2.17-.06-4.48.17-6.64.47-4.32,1.86-8.45,2.95-12.64ZM301.19,506.79c4.34-7.17,11.31-12.93,19.51-15.03,3.71-.95,8.23-1.4,11.91,0,5.02,1.9,7.44,7.33,9.46,11.91,4.99,11.29,10.02,33.09,25.43,34.45-.44.64-.78,1.34-.96,2.09-.21.36-.42.74-.62,1.12-.21-.04-.43,0-.61.14-3.22,2.6-10.4-5.01-12.21-6.99-2.42-2.66-4.46-5.63-6.29-8.71-4-6.74-6.86-14.07-10.69-20.9-2.29-4.07-5.57-9.16-10.75-9.56-4.63-.36-8.17,3.48-9.16,7.7-2.72,11.53,6.65,23.69,14.54,30.89,7.91,7.21,20.61,17.71,32.19,16.3-.67,3.79-.67,7.67.18,11,0,.02.01.03.02.05-.25-.07-.53-.06-.85.05-17.68,6.22-38.84,4.78-52.94-8.63-12.36-11.75-17.35-30.74-8.17-45.9ZM364.73,543.91c-.49,1.21-.9,2.47-1.24,3.76-6.79-1.07-12.34-2.67-18.3-6.44-5.03-3.18-9.83-6.83-14.1-10.99-4.35-4.24-8.23-9.17-10.45-14.87-1.23-3.16-2.22-6.77-1.84-10.17.75-6.77,6.88-8.9,11.62-3.96,4.37,4.55,6.74,11.64,9.44,17.24,2.56,5.33,5.28,10.62,8.94,15.29,2.28,2.9,10.98,12.69,15.92,10.13ZM306.46,554.26c2.05,2.07,4.3,3.96,6.78,5.62,2.48,1.66,5.09,3.03,7.79,4.16-2.01.61-4.04,1.13-6.09,1.57-.71-.62-1.74-.9-2.34-1.71-.8-1.08-.85-2.36-.48-3.61.27-.9-.98-1.69-1.63-.95-1.45,1.65-1.42,3.97-.49,5.89.18.37.44.77.76,1.15-2.39.37-4.8.63-7.22.75,1.36-4.23,2.37-8.48,2.92-12.87ZM263.23,585.64c3.35-.63,6.61-1.66,9.89-2.59,1.87-.53,5.74-.95,6.53-3.3.67-1.97-1.37-3.42-2.43-4.75-2.47-3.09-4.26-6.49-5.54-10.18,4.39.69,8.56,2.49,12.89,3.49,4.36,1,8.83,1.59,13.3,1.76,9.14.35,18.27-1.1,26.86-4.23.17-.06.32-.15.44-.25,12.23,3.89,25.87,3.04,37.95-1.25.47-.17.78-.49.94-.86.38.61.82,1.08,1.31,1.44-11.06,13.7-24.82,23.46-42.22,27.6-20.07,4.77-41.12.96-59.92-6.88ZM288.22,608.87c.49-1.6.95-3.2,1.39-4.81.24.09.51.13.81.08,2.24-.37,4.08.89,4.72,3.02.35,1.15,2.26,1.66,2.82.37,1.7-3.9,6.61-1.61,6.85,1.99.21,3.19-1.99,5.98-4.81,7.17-4.81,2.02-14.1-.71-11.76-7.54.03-.1.01-.19-.03-.28ZM269.6,664.64c1.03,1.18,1.68,2.24,1.55,4.03-.11,1.5,2.06,1.97,2.76.75.56-.98,1.2-2.27,2.11-2.98,2.95-2.31,4.3-.24,4.39,2.27.09,2.49-1.38,5.13-3.17,6.74-3.17,2.86-8.67,3.11-11.01-.59,1.12-3.4,2.24-6.81,3.36-10.21ZM275.57,716.54c-2.39-.68-4.85-1.35-7.24-2.13-1.93-2.12-3.85-4.42-3.98-7.41-.15-3.24,3.58-7.41,6.59-3.22.68.95.87,2.46,1.06,3.58.14.78,1.31,1.3,1.97.8,2.44-1.88,7.35-4.02,8.48.63.9,3.7-2.88,6.15-5.93,6.93-.51.13-.81.45-.94.82ZM296.38,723.25c-5.65-1.83-11.3-3.68-16.94-5.53,4.04-1.9,7.17-5.91,5.2-10.6-2.09-4.99-6.76-4.51-10.54-2.27-1.59-4.55-5.98-8.06-10.54-3.79-3.81,3.57-2.48,8.25.42,11.71-.71-.31-1.41-.65-2.08-1.01-6.37-3.41-3.08-12.35-1.62-17.98,1.4-5.4,3.22-10.69,4.98-15.98,1.32,1.57,3.36,2.58,5.48,2.89,4.52.67,8.9-1.96,11.18-5.81,1.94-3.28,2.71-8.55-.5-11.34-2.9-2.52-5.83-.92-7.97,1.45-.59-1.28-1.59-2.32-3.01-2.92,2.7-8.23,5.4-16.45,8.11-24.68,2.44-7.44,5.24-14.93,7.75-22.49.82,1.74,2.28,3.32,3.77,4.21,4.24,2.52,9.98,2.11,13.88-.86,3.89-2.97,5.7-9.05,2.56-13.21-2.26-3-6.93-3.48-9.65-1.18-1.5-1.96-3.86-2.98-6.48-2.72.38-1.52.74-3.05,1.06-4.58,10.5,1.6,21.26,1.37,31.77-1,7.6-1.72,15.29-4.67,22.32-8.75-1.67,5.72-3.31,11.45-4.93,17.19-1.3-1.34-3.34-2-5.33-1.84-2.77.23-4.76,1.9-6.1,4.08-3.81-4.33-13.7-1.11-11.26,6.77,2.25,7.25,13.59,11.17,18.55,5.82-3.49,12.59-6.96,25.18-10.57,37.74-6.7,23.29-14.39,46.16-22.14,69.1-2.46-.8-4.91-1.61-7.37-2.4ZM330.54,611.52c1.1-4.84,5.22-8.37,9.04-3.88-.57,2.02-1.13,4.03-1.69,6.05-.35-.11-.78-.02-1.05.37-2.5,3.48-6.17,5.14-10.35,3.39-1.72-.72-3.35-1.88-4.32-3.51-4.16-6.94,5.52-8.63,5.18-2.85-.11,1.82,2.79,2.22,3.19.43ZM348.62,703.71c.18,1.27,2,1.27,2.57.34,1.99-3.23,6.5-2.33,7.81,1.02,1.36,3.48-1.21,6.85-4.23,8.22-5.23,2.37-11.09.03-14.44-4.31-.16-.21-.35-.36-.56-.47.78-2.38,1.56-4.77,2.33-7.15,2.29-1.95,6.01-1.25,6.53,2.36ZM370.38,619.06c1.78-.53,6.97-.14,4.95,3.69-.84,1.58,1.1,2.99,2.41,1.86,3.85-3.29,9.76-.65,7.28,4.66-1.07,2.29-4.25,3.55-6.55,3.86-4.09.55-8.27-1.09-10.76-4.41-.57-.76-1.47-.82-2.15-.5.83-2.58,1.66-5.16,2.49-7.74.86-.68,1.97-1.3,2.34-1.41ZM375,588.48c-8.1,24.28-15.69,48.74-23.5,73.12-7.69,24.01-15.94,47.98-22.66,72.29-7.8-2.57-15.59-5.14-23.4-7.69,9.71-21.82,16.4-45.06,23.01-67.95,7.09-24.54,14.22-49.11,20.81-73.79,7.47-4.95,13.99-11.24,18.54-18.74,1.43.03,2.95-.57,4.3-1.61.02,0,.05,0,.07,0,1.35-.3,2.56.02,3.72.58-4.2.54-2.61,12.58-2.34,14.72.35,2.88.95,5.73,1.73,8.54-.12.14-.22.32-.29.53ZM437.13,615.36c-3.57,2.47-7.61,3.71-12.16,3.7-.91,0-1.51.87-1.31,1.72.66,2.8,1.32,5.61,1.98,8.41-13.33-2.29-25.65-8.91-34.69-19.08-5.29-5.96-9.36-13.05-11.87-20.62-.96-2.88-6.43-22.65-1.82-24.03,1.69,1.06,3.34,2.38,5.22,2.82,0,.13,0,.26.04.41,6.2,25.13,29.07,44.17,54.61,46.67ZM428.26,610.92c-20.52-5.45-37.35-21.87-42.99-42.71.09-.03.17-.06.26-.08.06.17.16.33.33.46,5.85,4.6,12.54,8.93,19.63,12.3-.9.59-1.67,1.45-2.25,2.45-2.98,5.11-1.78,13.31,4.08,15.77,6.07,2.54,17.34.13,17.73-7.85.09-1.72-.4-3.2-1.24-4.39.34.06.68.13,1.02.18,3.04.45,5.97.44,8.78.02-1.76,7.96-3.77,15.87-5.36,23.87ZM413.58,588.82c0-.1.01-.2.02-.3.11-.06.21-.13.32-.23,4.75-4.6,10.88,1.48,6.4,6.09-2.5,2.58-7.43,3.14-10.87,2.23-3.12-.83-4.62-3.65-4.72-6.74-.04-1.18.11-2.38.47-3.51.47-2.41,2.22-2.98,5.24-1.72.62,1.32.97,2.72,1.05,4.18.15,1.32,2,1.37,2.09,0ZM413.2,584.07c.42.15.83.3,1.25.44-.34.18-.67.38-.99.62-.06-.36-.15-.72-.25-1.06ZM458.71,550.62c-2.61,14.52-10.1,32.62-27.3,33.39-15.23.67-31.37-9.18-43.8-17.12,2.69-2.37,3.78-6.93,4.51-10.01.11-.48.24-1,.36-1.54,13.82,3.91,28.41,3.99,42.4.73,9.45-2.2,25.04-7.68,22.15-20.47-2.51-11.12-16.26-11.81-24.81-8.24-13.62,5.7-24.02,17.02-38.64,20.68,0-.15.01-.3.01-.45,0,0,0,0,.01,0,12.31-7.23,22.76-17.76,36.13-23.15,7.88-3.17,17.86-4.9,24.37,1.95,6.13,6.46,6.08,16.03,4.61,24.23Z"/>
    <path class="cls-1" d="M313.69,678.4c-2.35-5.13-10.56-5.47-11.84-.52-.79-1.17-2.29-1.88-4-1.88-3.12,0-5.83,2.54-6.84,5.34-2.65,7.36,5.44,12.94,12.05,12.15,6.67-.8,13.86-8.03,10.63-15.09ZM310.24,685.29c-1.49,2.71-4.39,4.47-7.4,4.87-2.74.37-5.63-.46-7.51-2.58-1.41-1.58-1.89-3.75-.9-5.72.77-1.53,5.08-4.89,5.94-.91.2.93,1.53.91,1.86.11.6.35,1.59.07,1.8-.68.74-2.65,4.67-4,6.44-1.31,1.17,1.78.75,4.47-.22,6.22Z"/>
    <path class="cls-1" d="M303.41,638.18c-1.73-3.84-7.64-5.6-11.42-2.28-6.68,5.86-.41,16.78,6.6,18.78,7.04,2.01,16.69-3.27,16.66-11.27-.03-6.89-7.68-8.93-11.83-5.23ZM311.25,646.28c-.73,1.47-2.02,2.88-3.37,3.79-2.87,1.92-6.67,2.52-9.84.96-3.05-1.5-6.77-6.34-5.28-10.08,1.1-2.77,3.11-4.31,5.93-2.99,1.62.75,2.29,1.91,2.67,3.36-.04.1-.08.2-.11.3-.22.71.05,1.23.49,1.52.24.55,1.16.63,1.48.12.35-.15.66-.43.84-.86,3.12-7.61,9.38-.56,7.19,3.89Z"/>
    <path class="cls-1" d="M407.9,641.88c-3.74-4.45-11.45-2.79-11.79,2.69-3.82-2.48-9.63-.37-10.02,5.06-.55,7.63,9.65,11.33,15.65,9.12,6.29-2.31,11.07-11.03,6.17-16.88ZM406.54,649.1c-.67,3.33-3.46,6.1-6.71,6.93-3.05.78-6.48-.14-8.71-2.38-4.45-4.47,1.46-10.06,5.43-5.17.76.93,2.05-.02,1.92-1.02.42-.22.71-.63.67-1.22-.21-2.89,2.72-4.83,5.15-3.4,2.15,1.27,2.71,3.98,2.25,6.26Z"/>
    <path class="cls-1" d="M375.54,668.86c.52-1.71.43-3.51-.79-5.09-2.32-3.01-7.12-2.98-10.32-1.72-8.94,3.54-8.6,15.46-.84,20.01,6.28,3.69,19.38,5,21.33-4.3,1.24-5.92-4.46-10.21-9.38-8.9ZM378.14,681.21c-3.15,1.09-7.65.3-10.66-.81-4.23-1.56-7.64-5.28-6.49-10.08.69-2.9,3.01-5.09,5.91-5.73,3.16-.92,4.92.84,5.28,5.27-.4.75-.85,1.46-1.36,2.13-.74,1.07.76,2.28,1.72,1.6.42.13.89.05,1.31-.38,5.76-5.87,12.23,5.25,4.28,7.99Z"/>
    <path class="cls-1" d="M398.1,700.04c-2.46-5.87-11.09-6-12.53-.24-2.33-3.18-8.75-1.72-9.93,3.15-1.72,7.15,6.34,11.99,12.5,11.25,6.47-.78,12.82-7.33,9.96-14.16ZM394.51,707.23c-1.34,2.09-3.62,3.42-6.04,3.86-2.38.43-4.99.04-7-1.38-1.41-.99-2.4-2.36-2.71-4.06-.58-1.36-.32-2.66.78-3.88,2.49-1.83,4.27-1.26,5.36,1.71.17.88,1.4.6,1.48-.19.87.28,1.98-.16,1.93-1.34-.19-4.33,5.06-4.26,6.73-1.37,1.15,1.99.64,4.8-.54,6.64Z"/>
    <path class="cls-1" d="M386.93,730.97c-2.54-6.39-10-4.38-13.04.23-2.63-2.83-7.94-1.65-9.46,2.44-2.73,7.31,5.55,12.32,11.85,11.85,6.77-.51,13.46-7.45,10.65-14.51ZM384.28,735.62c-.67,3.3-3.43,5.78-6.63,6.56-3,.73-6.9.11-9.11-2.25-1.3-1.4-2.51-4.37-1-6.09,1.52-1.74,3.92-2.19,5.51-.6.07,1.44,2.12,2.38,2.79.82.61-1.42,1.42-2.89,2.87-3.63,3.39-1.71,6.19,2.18,5.58,5.19Z"/>
  </g>
  <g>
    <path class="cls-1" d="M788.37,710.87c-.02-7.59-.2-15.18-.41-22.76-.21-7.26-.48-14.51-.81-21.76-.29-6.47-.14-13.2-1.2-19.6-2.07-12.51-13.98-9.06-23.44-8.37-14.96,1.09-29.96.85-44.9-.47-.01,0-.02,0-.03,0-4.32-3.55-9.36-5.98-14.7-7.46,4.9-.78,10.02-3.3,14.04-5.4,5.75-3.01,11.04-6.98,15.51-11.68,8.74-9.18,15.55-22.02,16.26-34.86.08-.05.16-.09.23-.15,6.54-5.15,12.52-10.93,17.6-17.54.08-.1.14-.21.18-.32.19-.15.35-.37.44-.66,4.5-13.79,6.71-28.57,8.16-42.97.43-4.32,1.61-10-1.09-13.88-3.03-4.34-9.86-4.65-14.61-5.21-5.1-.6-12.31-1.76-17.25.31-4.8,2.01-4.67,7.85-5.34,12.28-2.18,14.55-4.98,30.04-3.92,44.78.04.51.47.86.91.93,3.51,7.53,7.86,14.62,12.12,21.75-.02.05-.03.09-.05.14-2.87,12.74-7.13,24.18-16.51,33.67-4.38,4.43-9.47,8.12-15,10.97-4.51,2.33-9.61,3.3-14.23,5.21,5.42-8.73,6.81-19.68,1.84-29.1-5.9-11.18-17.92-15.63-29.97-13.23-23.89,4.76-42.48,28.99-38.85,53.2-.19-.68-.39-1.33-.65-1.92-1.27-2.89-2.8-5.67-4.46-8.34-2.96-4.76-6.48-9.19-10.12-13.44-6.59-7.69-14.41-16.08-24.78-18.2-7.44-1.52-16.3.42-20.93,6.86-6.01,8.35-2.44,19.45,1.64,27.89-10.04.25-19.74,3.67-27.72,11.58-1.11,1.1-2.18,2.32-3.18,3.64.17-.95-.36-2.04-1.61-2.03-16.87.09-33.75.48-50.63.73-4.3.06-8.6.13-12.9.19-2.79.04-6.08-.34-8.74.71-4.91,1.95-4.95,7.76-5.35,12.23-1.44,15.98-1.79,32.09-2.58,48.11-.42,8.6-.99,17.22-1.19,25.83-.03,1.34.14,4.21,1.27,5.23.02.55.32,1.1.97,1.33,6.89,2.36,15.2,2.52,22.42,3.31,8.01.88,16.04,1.54,24.09,2,7.72.44,15.46.72,23.19.77,6.97.04,14.4.54,21.31-.83.21.61.43,1.21.63,1.81.2.61.85,1.28,1.57,1.2,5.37-.66,10.62-1.88,15.68-3.6.08.04.17.07.26.07,16.58.97,33.89-1.19,50.31-3.4.19-.03.35-.09.48-.18,1.35,5.11,5.55,5.33,10.44,5.2,4.09-.1,12.21.64,13.8-4.25.04-.11.05-.24.08-.35,2.99-3.32,11.35-2.23,15.32-2.42,5.91-.29,11.82-.63,17.72-1,.72-.04,1.45-.1,2.17-.15.29.08.59.06.88-.06,10.47-.67,20.93-1.43,31.38-2.3,22.93-1.91,45.82-4.33,68.65-7.21.63-.08,1.07-.44,1.33-.89.28.14.65.1.89-.26,3.28-4.92,3.36-9.93,3.34-15.69ZM735.5,554.73c-.1-.14-.22-.23-.34-.3,1.81-9.91,2.15-20.15,3.33-30.15.7-5.95,1.47-11.89,2.44-17.8.71-4.37,3.51-5.81,7.57-5.96,2.78-.1,5.58,0,8.35.23,5.97.49,15.82.63,16.04,8.55.14,5.27-.86,10.8-1.56,16.01-1.51,11.21-4.16,22.09-6.55,33.12-.28.05-.55.2-.77.46-4.89,5.7-10.02,10.97-15.81,15.72-4-6.77-7.98-13.57-12.69-19.87ZM784.41,679.33c-.12.07-.23.16-.35.28-3.78,4-10.8,2.72-11.37-3.27-.25-2.66,1.04-5.06,3.47-6.2,2.42-1.14,4.74-.73,7.2-.05.33.09.58-.05.72-.27.12,3.17.23,6.34.32,9.52ZM732.15,641.94c0,.15,0,.3.06.47.73,2.54.51,5.22-.77,7.56-1.11,2.03-2.77,3.05-4.48,4.39-.35-4.65-2.51-9.25-5.84-13.07,3.67.29,7.35.5,11.03.64ZM723.03,649.99c3.11,8.3-1.78,16.13-9.34,19.7-7.36,3.48-16.08,2.88-23.97,2.12-16.32-1.57-31.7-6.23-46.88-12.2.24-.36.45-.73.63-1.11-.05.28.04.56.36.69,13.57,5.76,28.06,8.72,42.74,9.61,6.77.41,29.47,1.66,27.29-10.76-2-11.39-20.17-12.19-28.85-12.24-14.1-.09-27.85,3.21-40.56,9.24.21-2.58-.66-5.16-2.38-7.19,13.43-7.22,27.5-14.7,42.95-15.94,13.85-1.12,32.55,3.53,38,18.08ZM643.7,658.06c.11-.26.21-.51.3-.77.43.52,1.17.82,1.94.45,10.08-4.8,20.93-7.85,32.07-8.78,4.91-.41,9.89-.48,14.81-.04,4.97.44,15.23,1.81,17.51,7.34,5.48,13.26-24.72,9.98-31.27,9.22-11.78-1.36-23.31-4.22-34.64-7.64-.29-.09-.54.03-.72.22ZM641.79,644.5c5.23-12.17,13.49-22.72,24.57-30.16,5.41-3.64,12.7-8.05,19.39-8.31,13.5-.52,3.83,17.47.08,22.72-.27.02-.54.02-.8.04-15.56,1.16-29.71,8.42-43.24,15.71ZM641.86,610.95c5.4-9.39,14.2-16.78,24.35-20.55,11.19-4.15,23.52-3.5,31.17,6.58,7.34,9.67,5.75,22.87-1.56,32.05-2.1-.26-4.22-.38-6.33-.39,3.91-5.84,9.35-15.87,4.9-21.89-4.9-6.63-14.48-2.71-20.37.02-16.19,7.48-29.12,21.82-34.4,38.9l-.03.02c-.16-.1-.31-.2-.47-.3-.58-.32-1.13-.2-1.51.13-.54-.25-1.1-.47-1.67-.67.05-.09.08-.2.07-.33-.02-.16-.03-.33-.04-.49,0-.1,0-.19-.02-.28-1.05-11.37.12-22.71,5.92-32.8ZM637.08,646.81c.04.36.24.71.65.95,4.06,2.42,5.43,7.81,1.82,11.37-2.36,2.32-7.12,2.91-10.23,1.99-4.15-1.22-4.82-6.75-3.63-10.42,1.59-4.87,7.29-4.78,11.4-3.9ZM577.54,603.02c7.64-6.03,18.14-3.42,25.44,1.71,7.69,5.42,14.19,13.44,19.66,20.99,2.87,3.96,5.45,8.1,7.64,12.47.91,1.82,1.41,4.42,2.83,5.97-3.89-.56-7.81.52-9.73,4.6-.5,1.06-.84,2.3-1.01,3.59-9.65-9.45-23.12-17.13-36.91-19.81-.02-.09-.05-.17-.12-.26-1.71-2.26-3.23-4.64-4.42-7.22-.67-1.45-1.89-4.16-2.32-6.61.4-1.96,1.68-3.76,3.55-4.64,3.17-1.49,5.61.05,8.45,1.12.38.25.77.49,1.15.74,2.66,1.73,5.25,3.58,7.73,5.55,8.98,7.1,16.67,15.62,23.02,25.14,1.02,1.52,3.49.1,2.47-1.45-8.94-13.56-21.74-27.5-36.66-34.57-4.83-2.29-10.87-1.91-12.18,4.2-1.35,6.33,2.88,13.08,7.13,17.62-2.1-.32-4.2-.53-6.29-.6-.01-.06-.02-.13-.05-.19-3.25-8.76-8.45-21.2.6-28.34ZM576.93,634.67c17.58.29,31.72,9.86,45.32,19.88.02.91.13,1.82.33,2.7-15.96-3.7-32.88-4.76-49.17-2.86-9.05,1.06-23.33,7.13-18.61,18.97,4.71,11.81,20.41,9,29.9,6.47,7.08-1.89,13.97-4.64,20.54-7.9,4.15-2.05,8.78-4.33,12.91-7.1-12.01,8.29-24.49,16.33-39.02,19.16-15.98,3.11-44.36-1.64-39.03-24.06,3.91-16.46,20.87-25.52,36.83-25.26ZM620.58,660.02c-3.2,1.8-6.24,3.92-9.44,5.68-5.46,3.01-11.13,5.73-16.96,7.95-9.28,3.55-26.48,10.16-34.67,1.5-5.23-5.53-1.11-12.68,4.7-15.55,5.76-2.85,13.13-2.81,19.42-3.03,12.48-.45,24.75.91,36.95,3.44ZM563.82,689.13c3.4,4.04.46,11.79-5.3,10.91-6.74-1.04-8.2-10.61-1.09-12.46.28-.07.43-.3.47-.54,1.84.38,3.7.66,5.56.83-.07.41.02.86.36,1.27ZM500.85,648.62c5.31-.06,10.61-.1,15.92-.15-1.38,3.34-3.19,6.42-7.46,6.61-4.15.19-6.96-3-8.54-6.46.03,0,.05,0,.08,0ZM464.83,698.75c.06-1.11.11-2.22.16-3.33.08.02.15.05.24.06,4.29.25,8.5,3.37,8.16,8.1-.33,4.54-5.02,7.33-9.18,7.12.2-3.98.41-7.96.61-11.94ZM507.61,737.98c-.38-2.31-.06-4.74,1.25-6.7,2.02-3.03,5.97-3.63,9.06-1.9,3.66,2.05,3.77,6.66.85,9.47-3.69,3.56-7.58,1.05-11.16-.88ZM534.05,741.82c-4.44-.06-8.87-.17-13.31-.33.01-.01.03-.02.04-.03,4.16-3.78,4.64-10.46.01-14.06-3.96-3.08-10-3.03-13.53.7-3.27,3.45-3.66,8.6-1.57,12.62-6.32-.42-12.63-.96-18.93-1.62-7.64-.8-15.68-2.83-23.35-2.75-1.66-1.75.3-15.53.42-17.71.1-1.92.2-3.84.29-5.76,5.75,1.25,11.78-2.82,12.41-8.8.64-6.08-5.14-12.09-11.29-11.4-.04,0-.07.03-.11.03.35-7.47.67-14.94,1.12-22.4,1.37,1.36,3.38,2.27,5.08,2.66,5.82,1.3,11.69-2.14,12.52-8.2.83-6.01-3.73-11.1-9.87-10.57-2.86.25-5.23,1.64-6.88,3.65.23-3.81.74-7.8,5.46-8.87,2.88-.65,6.47-.1,9.42-.13,5.46-.06,10.91-.12,16.37-.18.05,5.7,5.95,10.14,11.48,9.71,4.77-.37,10.22-4.86,10.19-9.92,7.17-.07,14.35-.15,21.52-.31.28,0,.52-.07.73-.16-3.64,5.2-6.19,11.63-6.07,17.83-2.61-3.47-7.48-5.15-11.7-3.47-5.24,2.09-8.14,8.88-5.51,14.01,2.53,4.93,9.38,7.13,14.16,4.13,2.68-1.68,4.3-4.71,4.45-7.75.51,1.23,1.15,2.43,1.97,3.57,3.6,5.04,9.07,8.17,15.11,9.94-2.99.66-5.19,3.63-5.37,6.93-.24,4.54,3.27,8.6,7.5,9.84,8.8,2.56,14.56-8.12,10.02-14.92,3.39.1,6.71-.1,9.76-.54,13.05-1.86,24.78-7.88,35.76-15.01-3.96,7.99-9.1,15.29-15.17,21.65-.85-2.38-3.43-4.26-5.73-5.08-3.9-1.39-8.34-.34-10.8,3.08-2.14,2.98-2.38,7.34.32,10.09,1.26,1.28,2.89,2.03,4.54,2.15-9.81,7.15-21.11,12.22-33.25,14.52.89-4.54-1.65-9.64-5.6-11.99-4.89-2.92-11.73-1.75-15.22,2.77-3.23,4.18-3.06,10.71.66,14.55,3.7,3.8,9.67,4.07,13.75.87,2.49,5.56,4.75,11.2,6.78,16.95-6.13-.7-12.46-.18-18.59-.27ZM472.28,657.53c3.92-1.47,8.21.68,8.6,4.99.3,3.39-1.77,6.54-5.1,7.38-1.66.42-3.47.26-5.08-.28-.36-.12-2.38-1.15-3.55-2.23.02-.1.06-.19.05-.31-.14-3.87,1.13-8.07,5.08-9.55ZM533.72,667.76c1.31,3.36,1.12,7.77-2.17,9.97-3.13,2.1-7.86.54-9.63-2.63-2.07-3.69.3-8.82,4.24-10.06,2.81-.89,5.55.23,7.54,2.14-.05.18-.07.37.02.58ZM594.41,696.62c-.02.13-.03.25-.03.37-1.67,1.6-3.4,3.13-5.18,4.59-4.48,1.41-9.09-2.64-6.4-7.2,1.27-2.14,3.51-3.07,5.93-2.82,2.35.25,6.25,2.06,5.68,5.06ZM544.55,722.23c.15.31.28.63.43.95-.05.02-.1.02-.15.04-3.17,1.66-7.3,1.49-10.01-1.02-3.08-2.85-2.91-8.29,0-11.18,2.82-2.8,7.61-3.06,10.77-.73,3.12,2.29,3.55,5.65,3.55,9.18-1.08.16-2.16.31-3.26.42-1.22.13-1.87,1.21-1.34,2.34ZM606.37,738.83c-9.89.75-19.81,1.51-29.58,2.83,8.69-3.71,16.71-8.96,23.68-15.53,9.06-8.52,17.59-20.23,21.17-32.76-.05,7.74.05,15.47.08,23.14.01,3.16-.17,6.51-.26,9.87-1.29-1.17-3.23-1.89-4.93-2.22-3.43-.68-7.05.14-9.6,2.59-3.26,3.14-3.45,9.13-.56,12.06ZM621.49,737.59c-3.58.33-7.18.62-10.79.9-3.46-1.76-4.82-6.04-1.84-9.18,1.28-1.35,3.04-2.06,4.88-2.15,1.6-.08,6.1.54,6.14,2.88.02.89.78,1.43,1.53,1.45.04,2.08.16,4.14.44,6.13-.12-.02-.24-.04-.37-.03ZM621.81,683.17c-5.4,15.14-11.38,28.65-23.28,40.01-11.48,10.97-26.08,18.44-41.82,20.75-2.51-7.21-5.36-14.28-8.55-21.22,29.28-4.03,56.06-23.16,67.74-50.62.28-.66.1-1.29-.28-1.72,2.44-1.65,4.86-3.34,7.24-5.04-.57,5.91-.88,11.87-1.05,17.84ZM623.49,661.13c-1.44,1-2.89,2.01-4.34,3.01,1.66-1.17,3.21-2.44,4.6-3.81.11.18.22.37.34.54-.19.03-.4.12-.6.26ZM641.81,741.82c-1.28.7-5.43.7-7.12.8-4.19.25-9.61.46-10.09-5.18-.28-3.33-.09-6.76-.11-10.1-.03-6.89,0-13.78.05-20.67.12-14.22.88-28.53.28-42.75.07-.05.14-.1.21-.15.44-.32.64-.76.66-1.2.43.33.89.64,1.41.87,4.42,2,11.09,1.09,14.62-2.44.05.05.11.1.17.14-.19.22-.3.52-.28.91.07,1.34.13,2.67.2,4.01-.36,4.04-.16,8.08.55,12.03.38,8.88.7,17.77.94,26.66.18,6.95.33,13.91.44,20.86.06,3.64.1,7.29.14,10.93.02,2.1.12,4.08-2.06,5.27ZM644.49,662.51c4.75,2.37,9.7,4.37,14.76,6.06,0,.01,0,.02,0,.04.1.53.34,1.01.65,1.45-.1.33-.06.69.19,1.02,10.62,13.8,26.08,22.39,43.33,24.16-.24,5.03-.76,10.04-1.72,14.99-.4,2.05-.57,5.49-1.69,7.25-1.5,2.36-4.48,1.85-6.85,1.72-9.46-.52-18.74-3.78-26.56-9.1-12.06-8.21-18.78-20.47-21.46-34.01-.2-4.52-.42-9.05-.66-13.57ZM681.36,685.5c.79-3.83,5.28-7.23,9.06-5.07,3.21,1.83,3.82,6.23,1.87,9.13-.11.16-.17.32-.21.47-3.72-1.16-7.31-2.67-10.71-4.52ZM645.68,689.08c.98,2.27,2.13,4.46,3.41,6.58-1.17,0-2.34.57-3.15,1.41-.08-2.67-.17-5.33-.27-8ZM646.1,702.29c.33-.2.57-.57.47-.99-.22-.93.25-1.77.98-2.33.79-.61,1.53-.6,2.48-.54.28.02.52-.07.71-.21,2.2,3.22,4.74,6.21,7.56,8.9-.52,2.55-1,5.02-3.98,5.97-2.86.91-6.17-.55-7.68-3.03-.09-.14-.21-.22-.34-.26-.06-2.51-.13-5.01-.2-7.52ZM671.09,734.75c-3.12-2.92-1.54-8.3,2.96-8.79,5.01-.55,7.06,3.99,6.93,8.18-3.3.21-6.59.41-9.89.61ZM784.16,724.93c-.25-.4-.7-.66-1.36-.58-1.93.25-3.87.48-5.81.72-.48-2.02-.38-4.13,1.18-5.75,1.71-1.77,4.19-1.78,6.28-.79.31.15.6.19.87.17-.13,2.19-.46,4.31-1.17,6.22ZM776.03,717.17c-1.96,2.17-2.53,5.56-1.23,8.18-24.42,2.99-48.89,5.47-73.42,7.36-5.74.44-11.47.84-17.21,1.22.69-6.52-5.4-12.79-12.23-10.79-5.15,1.51-7.06,7.99-4.19,11.81-2.24.13-4.48.26-6.72.38-1.1.06-9.56,0-13.95,1.74-.02-2.58-.4-5.38-.42-7.47-.05-4.64-.11-9.27-.21-13.91-.02-1.12-.06-2.24-.08-3.37,1.77,3.01,5.21,4.81,8.8,3.84,2.73-.74,5.41-3.44,6.14-6.37,2.25,1.85,4.65,3.5,7.16,4.94,4.66,2.67,9.75,4.66,14.98,5.88,4.6,1.07,11.01,2.45,15.66,1.25,3.68-.94,3.94-4.91,4.7-8.15,1.51-6.49,2.31-13.07,2.56-19.73.03-.82-.68-1.37-1.43-1.43-3.38-.27-6.69-.85-9.93-1.68,3.22-4.49.98-11.68-4.22-13.58-5.23-1.92-10.52,2.11-11.24,7.18-6.44-3.8-12.19-8.79-16.9-14.78,7.38,2.24,14.96,3.82,22.54,4.81,12.21,1.59,27.58,2.99,36.9-6.87,3.22-3.4,4.71-7.26,4.89-11.15.18.06.36.08.56.03,6.11-1.69,9.62-8.5,7.4-14.46,6.26.18,12.53.15,18.8-.11,6.19-.26,12.34-.84,18.51-1.41,3.22-.3,6.6-.51,8.94,2.13,1.95,2.2,1.9,6.12,2.05,8.87.33,5.82.59,11.65.82,17.48,0-.01-.01-.03-.02-.04-2.19-2.76-6.55-2.85-9.52-1.4-3.49,1.7-5.31,5.39-4.9,9.2.77,7.25,9.47,10.78,14.91,6.57.04,1.59.09,3.19.13,4.78.15,5.94.23,11.87.33,17.81.05,2.97.37,6.32.41,9.65-2.96-1.61-7.12-.89-9.38,1.6Z"/>
    <path class="cls-1" d="M485.44,714.86c-5.65-.88-11.4,4.21-10.69,9.99.41,3.34,2.9,6.26,5.94,7.26,4.55,1.94,10.15.13,11.99-4.81,1.96-5.24-1.72-11.59-7.25-12.45ZM489.78,725.75c-.81,2.61-3.67,4.27-6.42,4.36-2.57-.81-4.88-2.76-5.28-5.48-.58-3.85,3.54-7.41,7.29-6.61,3.2.68,5.37,4.65,4.42,7.73Z"/>
    <path class="cls-1" d="M497.68,679.55c-2.41-3.21-6.91-4.36-10.53-3.02-.18-.24-.49-.4-.8-.32-5.45,1.4-7.98,8.11-5.64,13.06,2.46,5.19,9.6,7.38,14.44,4.18,4.43-2.92,5.73-9.64,2.52-13.91ZM493.18,690.83c-3.37,2.03-8.46.14-9.76-3.56-.81-2.3-.28-4.6.9-6.58.25.08.53.06.83-.14,2.89-1.97,7.39-2.28,9.83.65,2.39,2.86,1.32,7.77-1.8,9.64Z"/>
    <path class="cls-1" d="M519.68,689.95c-.1-.33-.36-.59-.79-.53-5.44.69-9.78,5.06-9.04,10.86.69,5.39,5.89,9.59,11.29,9.08,5.56-.53,10.91-5.9,10.72-11.67-.2-6.25-6.91-8.07-12.18-7.74ZM528.29,699.51c-.91,3.54-4.52,6.57-8.21,6.52-8.2-.11-8.61-10.4-2.86-14.02.23.44.65.8,1.18.85,3.98.42,11.5.32,9.88,6.64Z"/>
    <path class="cls-1" d="M727.7,711.42c-3.17-3.25-8.58-3.49-12.1-.92-.02,0-.03,0-.05,0-5.51,1.36-8.7,7.74-5.84,12.88,3.27,5.88,11.7,7.21,16.87,3.08,4.46-3.57,5.22-10.85,1.13-15.05ZM724.22,724.18c-3.57,2.44-9.05,1.73-11.48-2-1.62-2.49-1.05-5.65.68-7.89.44.68,1.42,1.03,2.04.27,2.33-2.88,6.63-4.05,9.63-1.38,3.29,2.92,2.66,8.59-.88,11.01Z"/>
    <path class="cls-1" d="M740.37,676.31c-3.4-3.4-10.51-5.52-13.45-1.06-4,2.08-5.92,7.28-3.91,11.61,2.74,5.92,10,7.16,15.11,3.63,5.03-3.47,6.91-9.53,2.25-14.19ZM734.2,689.19c-4.03,1.41-8.76-1.37-9.17-5.73-.18-1.96.54-3.77,1.71-5.27.55.27,1.31.19,1.69-.43,2.66-4.26,8.73-1.44,10.87,1.94,2.49,3.93-1.48,8.21-5.11,9.49Z"/>
    <path class="cls-1" d="M756.41,649.02c-.23-.37-.6-.66-1.09-.69-4.63-.31-8.88,3.9-8.97,8.49-.1,4.6,3.86,8.96,8.51,9.12,4.51.16,8.69-3.47,9.16-7.95.5-4.69-3.11-8.54-7.61-8.97ZM761.03,657.38c-.15,3.02-3.16,5.62-6.17,5.45-2.92-.17-5.52-3.1-5.4-6.01.15-3.44,3.21-5.26,6.23-5.78.3-.05.5-.19.66-.35,2.72,1.04,4.84,3.69,4.68,6.7Z"/>
    <path class="cls-1" d="M762.51,694.02s0,0,0,0c-4.56-.76-8.5,3.44-9.07,8.15-.69,5.68,3.01,11.12,8.93,11.48,5.43.33,11.06-3.58,11.17-9.32.1-5.19-5.28-12.08-11.02-10.31ZM763.44,710.5c-9.05.51-8.6-13.3-1.64-14.63.14.25.37.45.72.53,3.85.91,7.44,2.47,7.9,6.98.4,4.02-3.21,6.9-6.97,7.12Z"/>
    <path class="cls-1" d="M763.55,509.39c-2.28,11.59-4.29,23.29-4.74,35.12-.02.53.86.67.95.13,1.98-11.58,3.3-23.27,5.18-34.87.15-.9-1.21-1.3-1.39-.38Z"/>
    <path class="cls-1" d="M755.57,508.12c-1.99,11.34-3.68,22.84-5.3,34.24-.13.94,1.21,1.39,1.47.41,2.95-11.07,4.93-22.96,5.5-34.42.05-.94-1.51-1.18-1.67-.23Z"/>
    <path class="cls-1" d="M748.16,506.19c-3.21,10.55-4.15,22.43-5.44,33.37-.1.87,1.36,1.07,1.54.21,2.25-10.77,5.13-22.36,5.44-33.37.02-.9-1.28-1.04-1.54-.21Z"/>
    <path class="cls-1" d="M754.82,549.76c-2.69-1.25-6.82-2.37-8.72.76-.84,1.38-.35,3.36.76,4.39-1.45,1.21-2.21,3.21-1.66,5.16.18.64.82,1.18,1.51,1.15,3.42-.15,7.32-1.22,9.64-3.92,2.28-2.65,1.67-6.05-1.53-7.54Z"/>
  </g>
</svg>