<svg width="29" height="32" viewBox="0 0 29 32" fill="none" xmlns="http://www.w3.org/2000/svg">
<path d="M27.8851 30.72H27.885H1.11487C1.01748 30.7199 0.918321 30.6916 0.826888 30.6329C0.734916 30.5739 0.652427 30.4851 0.592745 30.3703C0.532977 30.2554 0.499968 30.1217 0.5 29.983C0.500032 29.8444 0.533103 29.7107 0.592919 29.5958C2.66409 25.6258 5.8443 22.7992 9.53473 21.4621L10.4706 21.123L9.63985 20.5747C7.84628 19.3909 6.44346 17.5803 5.65676 15.4134C4.86998 13.2461 4.74614 10.85 5.30557 8.59546C5.86497 6.34108 7.07417 4.36182 8.73762 2.95636C10.4 1.55177 12.4245 0.796875 14.4997 0.796875C16.5748 0.796875 18.5993 1.55177 20.2617 2.95636C21.9251 4.36182 23.1343 6.34108 23.6937 8.59546C24.2532 10.85 24.1293 13.2461 23.3425 15.4134C22.5558 17.5803 21.153 19.3909 19.3594 20.5747L18.5287 21.123L19.4646 21.4621C23.1551 22.7992 26.3354 25.626 28.4066 29.5961L28.4067 29.5963C28.4666 29.7111 28.4998 29.8449 28.5 29.9836C28.5002 30.1222 28.4673 30.2559 28.4077 30.3709C28.3479 30.4856 28.2653 30.5743 28.1733 30.6332C28.0818 30.6918 27.9826 30.72 27.8851 30.72Z" stroke="#820263"/>
</svg>
