<svg width="574" height="31" viewBox="0 0 574 31" fill="none" xmlns="http://www.w3.org/2000/svg">
<path d="M2.168 23.6481C1.784 23.6481 1.448 23.5361 1.16 23.3121C0.872 23.0881 0.728 22.6081 0.728 21.8721C0.728 21.5361 0.848 21.0001 1.088 20.2641C1.328 19.5281 1.648 18.6641 2.048 17.6721C2.464 16.6641 2.928 15.6001 3.44 14.4801C3.952 13.3601 4.488 12.2481 5.048 11.1441C5.608 10.0401 6.152 9.01612 6.68 8.07212C7.208 7.12812 7.696 6.32812 8.144 5.67212C8.608 5.00012 8.984 4.55212 9.272 4.32812C9.688 4.02412 10.104 3.87212 10.52 3.87212C10.744 3.87212 10.96 3.89612 11.168 3.94412C11.392 3.99212 11.576 4.07212 11.72 4.18412C12.056 4.39212 12.352 4.79212 12.608 5.38412C12.88 5.96012 13.12 6.65612 13.328 7.47212C13.552 8.28812 13.736 9.16812 13.88 10.1121C14.04 11.0401 14.176 11.9601 14.288 12.8721C14.896 12.7921 15.312 12.7521 15.536 12.7521C16.016 12.7521 16.44 12.8241 16.808 12.9681C17.176 13.0961 17.368 13.3681 17.384 13.7841C17.416 14.1841 17.288 14.5201 17 14.7921C16.728 15.0641 16.376 15.2641 15.944 15.3921C15.752 15.4561 15.288 15.5601 14.552 15.7041C14.6 16.5201 14.624 17.2081 14.624 17.7681C14.624 19.1921 14.544 20.2961 14.384 21.0801C14.24 21.8641 14.048 22.4241 13.808 22.7601C13.584 23.0961 13.344 23.2961 13.088 23.3601C12.848 23.4401 12.632 23.4801 12.44 23.4801C12.424 23.4801 12.408 23.4801 12.392 23.4801C11.928 23.4801 11.584 23.3601 11.36 23.1201C11.152 22.8801 11.048 22.4801 11.048 21.9201V20.2161C11.048 19.6881 11.04 19.0961 11.024 18.4401C11.008 17.7841 10.976 17.0881 10.928 16.3521C9.984 16.5121 9.04 16.6721 8.096 16.8321C7.168 16.9761 6.368 17.1041 5.696 17.2161C5.392 17.9361 5.128 18.5841 4.904 19.1601C4.68 19.7201 4.528 20.1601 4.448 20.4801C4.208 21.2641 3.984 21.8801 3.776 22.3281C3.568 22.7601 3.368 23.0641 3.176 23.2401C3 23.4321 2.832 23.5441 2.672 23.5761C2.512 23.6241 2.344 23.6481 2.168 23.6481ZM7.016 14.2641C7.688 14.1041 8.336 13.9601 8.96 13.8321C9.584 13.6881 10.176 13.5601 10.736 13.4481C10.656 12.4561 10.56 11.4881 10.448 10.5441C10.336 9.60012 10.208 8.76012 10.064 8.02412C9.648 8.82412 9.16 9.78412 8.6 10.9041C8.056 12.0081 7.528 13.1281 7.016 14.2641ZM35.4243 29.9121C34.2243 29.9121 33.3123 29.8241 32.6883 29.6481C32.0803 29.4721 31.6643 29.2401 31.4403 28.9521C31.2163 28.6801 31.1043 28.4001 31.1043 28.1121C31.1043 27.7121 31.2323 27.3841 31.4883 27.1281C31.7603 26.8721 32.1123 26.7441 32.5443 26.7441C32.8323 26.7441 33.2483 26.7841 33.7923 26.8641C34.3363 26.9441 34.8803 26.9841 35.4243 26.9841C37.0243 26.9841 38.3443 26.6001 39.3843 25.8321C40.4243 25.0801 41.2403 23.9361 41.8323 22.4001C42.4243 20.8481 42.8323 18.8961 43.0563 16.5441C41.9523 18.3521 40.7283 19.8001 39.3843 20.8881C38.0563 21.9761 36.6723 22.5201 35.2323 22.5201C33.5363 22.5201 32.6883 21.6881 32.6883 20.0241C32.6883 19.2241 32.9043 18.3841 33.3363 17.5041C33.7683 16.6241 34.3443 15.7521 35.0643 14.8881C35.7843 14.0241 36.5763 13.2081 37.4403 12.4401C38.3043 11.6561 39.1683 10.9681 40.0323 10.3761C40.9123 9.78412 41.7283 9.32012 42.4803 8.98412C43.2323 8.63212 43.8403 8.45612 44.3043 8.45612C44.6723 8.45612 44.9923 8.52012 45.2643 8.64812C45.5523 8.77612 45.7763 9.03212 45.9363 9.41612C46.0963 9.78412 46.1763 10.3281 46.1763 11.0481C46.1763 13.0481 46.1043 14.9841 45.9603 16.8561C45.8163 18.7121 45.5363 20.4321 45.1203 22.0161C44.7043 23.6001 44.0963 24.9841 43.2963 26.1681C42.5123 27.3521 41.4803 28.2721 40.2003 28.9281C38.9203 29.5841 37.3283 29.9121 35.4243 29.9121ZM35.7603 19.5441C35.7603 19.6561 35.8083 19.7121 35.9043 19.7121C36.2243 19.7121 36.6563 19.5441 37.2003 19.2081C37.7443 18.8561 38.3283 18.3921 38.9523 17.8161C39.5923 17.2241 40.2163 16.5681 40.8243 15.8481C41.4323 15.1121 41.9683 14.3521 42.4323 13.5681C42.9123 12.7841 43.2563 12.0241 43.4643 11.2881C42.6323 11.7681 41.7683 12.3281 40.8723 12.9681C39.9923 13.5921 39.1603 14.2641 38.3763 14.9841C37.6083 15.7041 36.9763 16.4561 36.4803 17.2401C36.0003 18.0081 35.7603 18.7761 35.7603 19.5441ZM53.9441 23.7921C52.8081 23.7921 51.8961 23.3921 51.2081 22.5921C50.5201 21.7761 50.1761 20.6881 50.1761 19.3281C50.1761 18.8961 50.2321 18.4561 50.3441 18.0081C50.4721 17.5601 50.6241 17.1441 50.8001 16.7601C50.7041 16.6161 50.6241 16.4321 50.5601 16.2081C50.5121 15.9681 50.4881 15.6881 50.4881 15.3681C50.4881 14.3281 50.6721 13.3761 51.0401 12.5121C51.4081 11.6321 51.9041 10.8721 52.5281 10.2321C53.1521 9.59212 53.8401 9.09612 54.5921 8.74412C55.3441 8.39212 56.1041 8.21612 56.8721 8.21612C58.1841 8.21612 59.2561 8.65612 60.0881 9.53612C60.9361 10.4161 61.3601 11.7841 61.3601 13.6401C61.3601 14.5681 61.2161 15.5121 60.9281 16.4721C60.6401 17.4321 60.2481 18.3521 59.7521 19.2321C59.2721 20.0961 58.7121 20.8721 58.0721 21.5601C57.4481 22.2481 56.7761 22.7921 56.0561 23.1921C55.3521 23.5921 54.6481 23.7921 53.9441 23.7921ZM53.5601 15.6801C53.6401 15.8561 53.6801 16.0641 53.6801 16.3041C53.6801 16.5441 53.6321 16.7921 53.5361 17.0481C53.4401 17.3041 53.3441 17.6481 53.2481 18.0801C53.1521 18.4961 53.1041 19.0961 53.1041 19.8801C53.1041 20.0881 53.1281 20.2641 53.1761 20.4081C53.2401 20.5361 53.3761 20.6001 53.5841 20.6001C54.1281 20.6001 54.6401 20.4241 55.1201 20.0721C55.6161 19.7201 56.0561 19.2561 56.4401 18.6801C56.8401 18.1041 57.1761 17.4641 57.4481 16.7601C57.7361 16.0401 57.9521 15.3121 58.0961 14.5761C58.2561 13.8241 58.3361 13.1281 58.3361 12.4881C58.3361 12.0721 58.2561 11.7841 58.0961 11.6241C57.9361 11.4641 57.6561 11.3841 57.2561 11.3841C56.7121 11.3841 56.1521 11.5601 55.5761 11.9121C55.0161 12.2481 54.5441 12.7121 54.1601 13.3041C53.7761 13.8801 53.5841 14.5361 53.5841 15.2721C53.5841 15.4161 53.5761 15.5521 53.5601 15.6801ZM67.8894 23.7921C66.7534 23.7921 65.8414 23.3921 65.1534 22.5921C64.4654 21.7761 64.1214 20.6881 64.1214 19.3281C64.1214 18.8961 64.1774 18.4561 64.2894 18.0081C64.4174 17.5601 64.5694 17.1441 64.7454 16.7601C64.6494 16.6161 64.5694 16.4321 64.5054 16.2081C64.4574 15.9681 64.4334 15.6881 64.4334 15.3681C64.4334 14.3281 64.6174 13.3761 64.9854 12.5121C65.3534 11.6321 65.8494 10.8721 66.4734 10.2321C67.0974 9.59212 67.7854 9.09612 68.5374 8.74412C69.2894 8.39212 70.0494 8.21612 70.8174 8.21612C72.1294 8.21612 73.2014 8.65612 74.0334 9.53612C74.8814 10.4161 75.3054 11.7841 75.3054 13.6401C75.3054 14.5681 75.1614 15.5121 74.8734 16.4721C74.5854 17.4321 74.1934 18.3521 73.6974 19.2321C73.2174 20.0961 72.6574 20.8721 72.0174 21.5601C71.3934 22.2481 70.7214 22.7921 70.0014 23.1921C69.2974 23.5921 68.5934 23.7921 67.8894 23.7921ZM67.5054 15.6801C67.5854 15.8561 67.6254 16.0641 67.6254 16.3041C67.6254 16.5441 67.5774 16.7921 67.4814 17.0481C67.3854 17.3041 67.2894 17.6481 67.1934 18.0801C67.0974 18.4961 67.0494 19.0961 67.0494 19.8801C67.0494 20.0881 67.0734 20.2641 67.1214 20.4081C67.1854 20.5361 67.3214 20.6001 67.5294 20.6001C68.0734 20.6001 68.5854 20.4241 69.0654 20.0721C69.5614 19.7201 70.0014 19.2561 70.3854 18.6801C70.7854 18.1041 71.1214 17.4641 71.3934 16.7601C71.6814 16.0401 71.8974 15.3121 72.0414 14.5761C72.2014 13.8241 72.2814 13.1281 72.2814 12.4881C72.2814 12.0721 72.2014 11.7841 72.0414 11.6241C71.8814 11.4641 71.6014 11.3841 71.2014 11.3841C70.6574 11.3841 70.0974 11.5601 69.5214 11.9121C68.9614 12.2481 68.4894 12.7121 68.1054 13.3041C67.7214 13.8801 67.5294 14.5361 67.5294 15.2721C67.5294 15.4161 67.5214 15.5521 67.5054 15.6801ZM88.2299 10.1601C89.1099 8.06412 89.8859 5.90412 90.5579 3.68012C90.6859 3.23212 90.8699 2.88812 91.1099 2.64812C91.3659 2.40812 91.7179 2.28812 92.1659 2.28812C92.5339 2.28812 92.8139 2.40012 93.0059 2.62412C93.1979 2.83212 93.2939 3.12012 93.2939 3.48812C93.2939 3.79212 93.1659 4.33612 92.9099 5.12012C92.6539 5.88812 92.3419 6.86412 91.9739 8.04812C91.6059 9.23212 91.2379 10.6001 90.8699 12.1521C90.5019 13.7041 90.1899 15.4081 89.9339 17.2641C89.6779 19.1201 89.5499 21.1041 89.5499 23.2161C89.5499 23.7921 89.4379 24.2641 89.2139 24.6321C89.0059 25.0161 88.6379 25.2081 88.1099 25.2081C87.5339 25.2081 87.1099 25.0081 86.8379 24.6081C86.5819 24.2081 86.4539 23.6961 86.4539 23.0721C86.4539 21.8401 86.4939 20.8161 86.5739 20.0001C86.6699 19.1681 86.7659 18.4561 86.8619 17.8641C86.0779 19.2081 85.2459 20.3681 84.3659 21.3441C83.5019 22.3041 82.6699 23.0401 81.8699 23.5521C81.0699 24.0801 80.3819 24.3441 79.8059 24.3441C78.8619 24.3441 78.0939 24.0801 77.5019 23.5521C76.9099 23.0241 76.6139 22.2241 76.6139 21.1521C76.6139 20.3201 76.8139 19.4641 77.2139 18.5841C77.6139 17.6881 78.1419 16.8081 78.7979 15.9441C79.4539 15.0801 80.1739 14.2721 80.9579 13.5201C81.7579 12.7521 82.5579 12.0801 83.3579 11.5041C84.1579 10.9121 84.9019 10.4481 85.5899 10.1121C86.2779 9.77612 86.8379 9.60812 87.2699 9.60812C87.7499 9.60812 88.0699 9.79212 88.2299 10.1601ZM87.6779 11.4561C87.5819 11.5201 87.4779 11.5841 87.3659 11.6481C87.2699 11.6961 87.1739 11.7521 87.0779 11.8161C86.4699 12.2001 85.8219 12.6641 85.1339 13.2081C84.4459 13.7361 83.7659 14.3281 83.0939 14.9841C82.4219 15.6241 81.8059 16.2961 81.2459 17.0001C80.7019 17.6881 80.2619 18.3761 79.9259 19.0641C79.6059 19.7361 79.4459 20.3841 79.4459 21.0081C79.4459 21.1201 79.4939 21.2001 79.5899 21.2481C79.6859 21.2961 79.7739 21.3201 79.8539 21.3201C80.4139 21.3201 81.0139 21.0721 81.6539 20.5761C82.3099 20.0801 82.9739 19.3921 83.6459 18.5121C84.3339 17.6161 85.0139 16.5681 85.6859 15.3681C86.3739 14.1681 87.0379 12.8641 87.6779 11.4561ZM109.135 29.9121C107.935 29.9121 107.023 29.8241 106.399 29.6481C105.791 29.4721 105.375 29.2401 105.151 28.9521C104.927 28.6801 104.815 28.4001 104.815 28.1121C104.815 27.7121 104.943 27.3841 105.199 27.1281C105.471 26.8721 105.823 26.7441 106.255 26.7441C106.543 26.7441 106.959 26.7841 107.503 26.8641C108.047 26.9441 108.591 26.9841 109.135 26.9841C110.735 26.9841 112.055 26.6001 113.095 25.8321C114.135 25.0801 114.951 23.9361 115.543 22.4001C116.135 20.8481 116.543 18.8961 116.767 16.5441C115.663 18.3521 114.439 19.8001 113.095 20.8881C111.767 21.9761 110.383 22.5201 108.943 22.5201C107.247 22.5201 106.399 21.6881 106.399 20.0241C106.399 19.2241 106.615 18.3841 107.047 17.5041C107.479 16.6241 108.055 15.7521 108.775 14.8881C109.495 14.0241 110.287 13.2081 111.151 12.4401C112.015 11.6561 112.879 10.9681 113.743 10.3761C114.623 9.78412 115.439 9.32012 116.191 8.98412C116.943 8.63212 117.551 8.45612 118.015 8.45612C118.383 8.45612 118.703 8.52012 118.975 8.64812C119.263 8.77612 119.487 9.03212 119.647 9.41612C119.807 9.78412 119.887 10.3281 119.887 11.0481C119.887 13.0481 119.815 14.9841 119.671 16.8561C119.527 18.7121 119.247 20.4321 118.831 22.0161C118.415 23.6001 117.807 24.9841 117.007 26.1681C116.223 27.3521 115.191 28.2721 113.911 28.9281C112.631 29.5841 111.039 29.9121 109.135 29.9121ZM109.471 19.5441C109.471 19.6561 109.519 19.7121 109.615 19.7121C109.935 19.7121 110.367 19.5441 110.911 19.2081C111.455 18.8561 112.039 18.3921 112.663 17.8161C113.303 17.2241 113.927 16.5681 114.535 15.8481C115.143 15.1121 115.679 14.3521 116.143 13.5681C116.623 12.7841 116.967 12.0241 117.175 11.2881C116.343 11.7681 115.479 12.3281 114.583 12.9681C113.703 13.5921 112.871 14.2641 112.087 14.9841C111.319 15.7041 110.687 16.4561 110.191 17.2401C109.711 18.0081 109.471 18.7761 109.471 19.5441ZM125.231 23.3601C124.783 23.3601 124.383 23.2081 124.031 22.9041C123.695 22.6001 123.527 22.1041 123.527 21.4161C123.527 21.0481 123.575 20.5281 123.671 19.8561C123.783 19.1841 123.927 18.4561 124.103 17.6721C124.279 16.8721 124.471 16.0801 124.679 15.2961C124.903 14.5121 125.119 13.8161 125.327 13.2081C125.535 12.5841 125.719 12.1201 125.879 11.8161C126.087 11.4481 126.279 11.2241 126.455 11.1441C126.647 11.0481 126.831 11.0001 127.007 11.0001C127.327 11.0001 127.623 11.0961 127.895 11.2881C128.183 11.4801 128.327 11.9041 128.327 12.5601C128.327 12.8161 128.279 13.2321 128.183 13.8081C128.087 14.3681 127.967 15.0241 127.823 15.7761C127.679 16.5281 127.519 17.3041 127.343 18.1041C127.183 18.9041 127.023 19.6641 126.863 20.3841C126.719 21.0881 126.599 21.6801 126.503 22.1601C126.423 22.5601 126.255 22.8561 125.999 23.0481C125.759 23.2561 125.503 23.3601 125.231 23.3601ZM127.991 8.62412C127.463 8.62412 126.975 8.47212 126.527 8.16812C126.079 7.84812 125.855 7.36012 125.855 6.70412C125.855 6.16012 125.991 5.72012 126.263 5.38412C126.535 5.04812 126.855 4.80812 127.223 4.66412C127.607 4.50412 127.943 4.42412 128.231 4.42412C128.519 4.42412 128.839 4.48812 129.191 4.61612C129.543 4.72812 129.847 4.94412 130.103 5.26412C130.375 5.56812 130.511 6.00812 130.511 6.58412C130.511 6.96812 130.375 7.32012 130.103 7.64012C129.831 7.94412 129.495 8.18412 129.095 8.36012C128.711 8.53612 128.343 8.62412 127.991 8.62412ZM133.73 25.6881C133.33 25.6881 132.986 25.5681 132.698 25.3281C132.41 25.1041 132.282 24.6401 132.314 23.9361C132.346 23.1521 132.402 22.3361 132.482 21.4881C132.562 20.6401 132.65 19.8481 132.746 19.1121C132.954 17.4961 133.002 16.2481 132.89 15.3681C132.794 14.4721 132.546 13.8321 132.146 13.4481C131.762 13.0641 131.242 12.8081 130.586 12.6801C130.266 12.6161 130.01 12.4961 129.818 12.3201C129.626 12.1281 129.53 11.8801 129.53 11.5761C129.53 11.1761 129.69 10.9121 130.01 10.7841C130.314 10.6561 130.706 10.5921 131.186 10.5921C131.554 10.5921 132.026 10.6161 132.602 10.6641C133.194 10.6961 133.826 10.7201 134.498 10.7361C135.058 8.89612 135.69 7.37612 136.394 6.17612C137.098 4.97612 137.866 4.03212 138.698 3.34412C139.53 2.64012 140.41 2.15212 141.338 1.88012C142.266 1.59212 143.226 1.44812 144.218 1.44812C145.45 1.44812 146.066 1.88812 146.066 2.76812C146.066 3.20012 145.858 3.52812 145.442 3.75212C145.026 3.97612 144.394 4.16012 143.546 4.30412C142.538 4.48012 141.65 4.80812 140.882 5.28812C140.13 5.76812 139.466 6.44812 138.89 7.32812C138.33 8.20812 137.834 9.34412 137.402 10.7361C139.626 10.6881 141.45 10.5681 142.874 10.3761C144.298 10.1841 145.394 10.0001 146.162 9.82412C146.946 9.63212 147.49 9.53612 147.794 9.53612C148.226 9.53612 148.49 9.64012 148.586 9.84812C148.698 10.0561 148.754 10.2801 148.754 10.5201C148.754 10.7921 148.498 11.0721 147.986 11.3601C147.65 11.5521 147.114 11.7681 146.378 12.0081C145.642 12.2321 144.778 12.4561 143.786 12.6801C142.794 12.8881 141.746 13.0641 140.642 13.2081C139.554 13.3361 138.49 13.4001 137.45 13.4001C137.194 13.4001 136.962 13.4001 136.754 13.4001C136.578 14.3281 136.402 15.3121 136.226 16.3521C136.066 17.3761 135.922 18.3761 135.794 19.3521C135.666 20.3281 135.554 21.2161 135.458 22.0161C135.378 22.8161 135.33 23.4561 135.314 23.9361C135.298 24.5281 135.146 24.9681 134.858 25.2561C134.57 25.5441 134.194 25.6881 133.73 25.6881ZM158.05 7.78412C158.066 7.97612 158.01 8.14412 157.882 8.28812C157.754 8.41612 157.602 8.54412 157.426 8.67212C157.202 8.81612 156.81 9.00812 156.25 9.24812C155.69 9.47212 155.034 9.72012 154.282 9.99212C153.53 10.2481 152.746 10.4881 151.93 10.7121C151.114 10.9361 150.346 11.1121 149.626 11.2401C149.21 12.7601 148.786 14.3201 148.354 15.9201C147.938 17.5201 147.514 19.0961 147.082 20.6481C146.922 21.2081 146.73 21.6321 146.506 21.9201C146.282 22.2241 145.898 22.3761 145.354 22.3761C144.762 22.3761 144.362 22.1841 144.154 21.8001C143.962 21.4321 143.938 20.9281 144.082 20.2881C144.386 19.0081 144.674 17.7921 144.946 16.6401C145.218 15.4721 145.466 14.4321 145.69 13.5201C145.914 12.5921 146.098 11.8401 146.242 11.2641C146.386 10.6721 146.474 10.3121 146.506 10.1841C146.698 9.35212 146.938 8.44812 147.226 7.47212C147.514 6.49612 147.818 5.55212 148.138 4.64012C148.474 3.71212 148.794 2.89612 149.098 2.19212C149.418 1.47212 149.698 0.960121 149.938 0.656121C150.098 0.448121 150.306 0.288121 150.562 0.176121C150.834 0.0641208 151.106 0.00812054 151.378 0.00812054C151.714 0.00812054 151.986 0.128121 152.194 0.368122C152.402 0.608121 152.506 0.888121 152.506 1.20812C152.506 1.33612 152.498 1.47212 152.482 1.61612C152.466 1.74412 152.434 1.87212 152.386 2.00012C152.082 2.80012 151.754 3.77612 151.402 4.92812C151.066 6.06412 150.706 7.31212 150.322 8.67212C151.106 8.54412 151.93 8.38412 152.794 8.19212C153.658 8.00012 154.458 7.80812 155.194 7.61612C155.93 7.42412 156.498 7.24812 156.898 7.08812L156.826 7.11212C157.146 6.95212 157.426 6.94412 157.666 7.08812C157.906 7.21612 158.034 7.44812 158.05 7.78412ZM188.763 22.4481C188.667 23.3121 188.155 23.7441 187.227 23.7441C186.747 23.7441 186.363 23.6001 186.075 23.3121C185.803 23.0241 185.667 22.6081 185.667 22.0641C185.667 21.1361 185.707 20.1441 185.787 19.0881C185.883 18.0161 185.995 16.9361 186.123 15.8481C186.267 14.7601 186.403 13.7201 186.531 12.7281C185.955 13.5601 185.347 14.4161 184.707 15.2961C184.067 16.1761 183.427 17.0321 182.787 17.8641C182.147 18.6961 181.531 19.4481 180.939 20.1201C180.363 20.7761 179.835 21.3041 179.355 21.7041C178.875 22.0881 178.475 22.2801 178.155 22.2801C177.387 22.2801 176.723 22.0001 176.163 21.4401C175.603 20.8641 175.323 20.1361 175.323 19.2561C175.323 18.9521 175.355 18.5441 175.419 18.0321C175.483 17.5041 175.563 16.9441 175.659 16.3521C175.755 15.7601 175.835 15.2001 175.899 14.6721C175.963 14.1441 175.995 13.7281 175.995 13.4241C175.995 13.4241 175.995 13.4081 175.995 13.3761C176.011 13.2961 175.995 13.2561 175.947 13.2561C175.883 13.2561 175.707 13.4721 175.419 13.9041C175.131 14.3201 174.779 14.8641 174.363 15.5361C173.947 16.2081 173.507 16.9121 173.043 17.6481C172.595 18.3841 172.171 19.0721 171.771 19.7121C171.387 20.3521 171.067 20.8481 170.811 21.2001C170.459 21.7441 170.131 22.0881 169.827 22.2321C169.523 22.3761 169.171 22.4481 168.771 22.4481C168.211 22.4481 167.771 22.2641 167.451 21.8961C167.147 21.5121 166.995 20.9761 166.995 20.2881C166.995 20.0001 167.043 19.5521 167.139 18.9441C167.251 18.3361 167.387 17.6641 167.547 16.9281C167.707 16.1761 167.867 15.4481 168.027 14.7441C168.203 14.0241 168.355 13.4161 168.483 12.9201C168.627 12.2641 168.827 11.8081 169.083 11.5521C169.355 11.2801 169.699 11.1441 170.115 11.1441C171.091 11.1441 171.579 11.6241 171.579 12.5841C171.579 12.7601 171.523 13.0481 171.411 13.4481C171.299 13.8481 171.163 14.3121 171.003 14.8401C170.843 15.3681 170.675 15.9121 170.499 16.4721C170.323 17.0161 170.179 17.5281 170.067 18.0081C170.451 17.3361 170.867 16.6161 171.315 15.8481C171.763 15.0801 172.219 14.3281 172.683 13.5921C173.163 12.8561 173.635 12.1841 174.099 11.5761C174.579 10.9681 175.051 10.4881 175.515 10.1361C175.979 9.76812 176.419 9.58412 176.835 9.58412C177.251 9.58412 177.659 9.73612 178.059 10.0401C178.459 10.3281 178.787 10.7041 179.043 11.1681C179.315 11.6161 179.451 12.0961 179.451 12.6081C179.451 13.0881 179.387 13.6641 179.259 14.3361C179.131 15.0081 178.987 15.7121 178.827 16.4481C178.667 17.1841 178.555 17.9041 178.491 18.6081C179.035 18.0001 179.611 17.3121 180.219 16.5441C180.827 15.7601 181.451 14.9521 182.091 14.1201C182.731 13.2881 183.355 12.4801 183.963 11.6961C184.587 10.9121 185.163 10.2001 185.691 9.56012C186.235 8.92012 186.715 8.41612 187.131 8.04812C187.547 7.66412 187.867 7.47212 188.091 7.47212C188.747 7.47212 189.259 7.64812 189.627 8.00012C190.011 8.33612 190.203 8.92812 190.203 9.77612C190.203 10.3041 190.163 10.9921 190.083 11.8401C190.019 12.6881 189.923 13.6081 189.795 14.6001C189.683 15.5761 189.555 16.5681 189.411 17.5761C189.283 18.5681 189.163 19.4881 189.051 20.3361C188.939 21.1841 188.843 21.8881 188.763 22.4481ZM195.262 23.9121C194.75 23.9121 194.286 23.7681 193.87 23.4801C193.454 23.2081 193.126 22.8481 192.886 22.4001C192.646 21.9361 192.526 21.4401 192.526 20.9121C192.526 19.9201 192.742 18.9521 193.174 18.0081C193.622 17.0641 194.206 16.1681 194.926 15.3201C195.646 14.4721 196.43 13.6961 197.278 12.9921C198.142 12.2721 198.998 11.6561 199.846 11.1441C200.71 10.6321 201.494 10.2321 202.198 9.94412C202.918 9.65612 203.478 9.51212 203.878 9.51212C204.342 9.51212 204.718 9.61612 205.006 9.82412C205.31 10.0161 205.462 10.3201 205.462 10.7361C205.462 10.8641 205.43 10.9681 205.366 11.0481C205.574 11.0961 205.742 11.2161 205.87 11.4081C205.998 11.6001 206.062 11.8881 206.062 12.2721C206.062 12.4321 206.022 12.8481 205.942 13.5201C205.862 14.1921 205.774 15.0081 205.678 15.9681C205.598 16.9281 205.558 17.9281 205.558 18.9681C205.558 19.1281 205.582 19.2721 205.63 19.4001C205.678 19.5121 205.782 19.5681 205.942 19.5681C206.582 19.5681 207.23 19.4401 207.886 19.1841C208.558 18.9121 209.206 18.5841 209.83 18.2001C210.47 17.8001 211.046 17.4081 211.558 17.0241C212.086 16.6241 212.526 16.2961 212.878 16.0401C213.246 15.7681 213.486 15.6321 213.598 15.6321C214.142 15.6321 214.414 15.9041 214.414 16.4481C214.414 16.5921 214.238 16.8961 213.886 17.3601C213.55 17.8081 213.086 18.3281 212.494 18.9201C211.902 19.4961 211.238 20.0721 210.502 20.6481C209.782 21.2081 209.03 21.6721 208.246 22.0401C207.478 22.4081 206.734 22.5921 206.014 22.5921C205.134 22.5921 204.462 22.3841 203.998 21.9681C203.55 21.5521 203.23 20.9921 203.038 20.2881C202.862 19.5681 202.766 18.7601 202.75 17.8641C201.934 19.0321 201.086 20.0721 200.206 20.9841C199.342 21.8801 198.486 22.5921 197.638 23.1201C196.79 23.6481 195.998 23.9121 195.262 23.9121ZM203.758 11.8881C202.19 12.6401 200.782 13.5041 199.534 14.4801C198.286 15.4401 197.294 16.4481 196.558 17.5041C195.838 18.5601 195.478 19.5761 195.478 20.5521C195.478 20.8241 195.606 20.9601 195.862 20.9601C196.166 20.9601 196.566 20.7841 197.062 20.4321C197.574 20.0801 198.126 19.6161 198.718 19.0401C199.31 18.4481 199.902 17.7921 200.494 17.0721C201.086 16.3361 201.638 15.5841 202.15 14.8161C202.662 14.0481 203.07 13.3121 203.374 12.6081C203.486 12.3521 203.614 12.1121 203.758 11.8881ZM225.316 24.7521C224.228 24.7521 223.22 24.5201 222.292 24.0561C221.364 23.6081 220.516 23.0161 219.748 22.2801C218.98 21.5281 218.292 20.7121 217.684 19.8321C217.092 18.9361 216.588 18.0561 216.172 17.1921C215.98 18.0721 215.804 18.8241 215.644 19.4481C215.5 20.0721 215.38 20.5921 215.284 21.0081C215.204 21.3281 215.116 21.6401 215.02 21.9441C214.94 22.2481 214.812 22.4961 214.636 22.6881C214.46 22.8801 214.212 22.9761 213.892 22.9761C213.204 22.9761 212.764 22.7441 212.572 22.2801C212.38 21.8001 212.284 21.1921 212.284 20.4561C212.284 19.8001 212.388 18.9361 212.596 17.8641C212.82 16.7921 213.116 15.5921 213.484 14.2641C213.852 12.9361 214.276 11.5681 214.756 10.1601C215.252 8.73612 215.78 7.35212 216.34 6.00812C216.9 4.64812 217.46 3.41612 218.02 2.31212C218.372 1.64012 218.684 1.21612 218.956 1.04012C219.228 0.848121 219.548 0.752121 219.916 0.752121C220.284 0.752121 220.564 0.848121 220.756 1.04012C220.948 1.23212 221.044 1.48812 221.044 1.80812C221.044 2.01612 220.996 2.22412 220.9 2.43212C220.804 2.64012 220.7 2.89612 220.588 3.20012C220.22 4.01612 219.836 4.96812 219.436 6.05612C219.036 7.12812 218.652 8.24012 218.284 9.39212C217.916 10.5281 217.588 11.6081 217.3 12.6321C218.084 12.1681 218.956 11.7201 219.916 11.2881C220.876 10.8401 221.844 10.4401 222.82 10.0881C223.812 9.72012 224.74 9.43212 225.604 9.22412C226.468 9.01612 227.196 8.91212 227.788 8.91212C228.252 8.91212 228.604 9.04812 228.844 9.32012C229.084 9.59212 229.204 9.88812 229.204 10.2081C229.204 10.4481 229.132 10.6881 228.988 10.9281C228.844 11.1681 228.54 11.3761 228.076 11.5521C226.54 12.0641 225.012 12.5841 223.492 13.1121C221.988 13.6401 220.316 14.2641 218.476 14.9841C218.86 15.7361 219.308 16.5121 219.82 17.3121C220.332 18.0961 220.884 18.8321 221.476 19.5201C222.068 20.1921 222.676 20.7441 223.3 21.1761C223.924 21.5921 224.54 21.8001 225.148 21.8001C226.044 21.8001 226.908 21.6241 227.74 21.2721C228.572 20.9041 229.34 20.4641 230.044 19.9521C230.748 19.4241 231.364 18.9121 231.892 18.4161C232.436 17.9201 232.86 17.5361 233.164 17.2641C233.34 17.0881 233.508 16.9601 233.668 16.8801C233.844 16.8001 234.06 16.7601 234.316 16.7601C234.62 16.7601 234.852 16.8561 235.012 17.0481C235.188 17.2241 235.268 17.4561 235.252 17.7441C235.236 18.0161 235.1 18.2881 234.844 18.5601C234.636 18.7841 234.308 19.1441 233.86 19.6401C233.428 20.1201 232.9 20.6561 232.276 21.2481C231.668 21.8241 230.988 22.3841 230.236 22.9281C229.5 23.4561 228.716 23.8881 227.884 24.2241C227.052 24.5761 226.196 24.7521 225.316 24.7521ZM236.602 23.8161C235.61 23.8161 234.81 23.4721 234.202 22.7841C233.594 22.0801 233.29 20.9521 233.29 19.4001C233.29 18.4081 233.402 17.4161 233.626 16.4241C233.866 15.4161 234.194 14.4641 234.61 13.5681C235.042 12.6561 235.538 11.8481 236.098 11.1441C236.674 10.4401 237.306 9.88812 237.993 9.48812C238.682 9.07212 239.394 8.86412 240.13 8.86412C241.378 8.86412 242.354 9.20012 243.057 9.87212C243.762 10.5441 244.114 11.4001 244.114 12.4401C244.114 13.2401 243.89 13.9681 243.442 14.6241C243.01 15.2641 242.418 15.8401 241.666 16.3521C240.914 16.8641 240.074 17.3281 239.146 17.7441C238.218 18.1601 237.266 18.5361 236.29 18.8721C236.21 19.4481 236.17 19.9601 236.17 20.4081C236.17 20.6801 236.322 20.8161 236.626 20.8161C237.346 20.8161 238.114 20.7041 238.93 20.4801C239.762 20.2401 240.602 19.9361 241.45 19.5681C242.298 19.1841 243.114 18.7921 243.898 18.3921C244.682 17.9761 245.394 17.5841 246.034 17.2161C246.69 16.8321 247.226 16.5281 247.642 16.3041C248.074 16.0641 248.354 15.9441 248.482 15.9441C248.834 15.9441 249.09 16.0481 249.25 16.2561C249.41 16.4641 249.49 16.6881 249.49 16.9281C249.49 17.0401 249.274 17.2881 248.842 17.6721C248.426 18.0561 247.85 18.5121 247.114 19.0401C246.394 19.5521 245.578 20.0881 244.666 20.6481C243.77 21.1921 242.834 21.7121 241.858 22.2081C240.898 22.6881 239.962 23.0721 239.05 23.3601C238.154 23.6641 237.338 23.8161 236.602 23.8161ZM236.698 16.7361C237.354 16.3521 238.002 15.9521 238.642 15.5361C239.298 15.1041 239.842 14.6241 240.274 14.0961C240.706 13.5521 240.922 12.9201 240.922 12.2001C240.922 11.9921 240.866 11.8561 240.754 11.7921C240.642 11.7121 240.482 11.6721 240.274 11.6721C239.714 11.6721 239.202 11.9201 238.738 12.4161C238.29 12.9121 237.89 13.5521 237.538 14.3361C237.202 15.1041 236.922 15.9041 236.698 16.7361ZM250.266 24.2241C249.578 24.2241 249.09 24.1281 248.802 23.9361C248.53 23.7441 248.394 23.4641 248.394 23.0961C248.394 22.7761 248.506 22.5041 248.73 22.2801C248.954 22.0401 249.45 21.8001 250.218 21.5601C251.114 21.2881 251.962 20.9761 252.762 20.6241C253.578 20.2561 254.242 19.8561 254.754 19.4241C255.282 18.9921 255.546 18.5361 255.546 18.0561C255.546 17.7361 255.434 17.5041 255.21 17.3601C255.002 17.2161 254.754 17.1441 254.466 17.1441C254.226 17.1441 253.874 17.1841 253.41 17.2641C252.962 17.3281 252.466 17.4161 251.922 17.5281C251.378 17.6241 250.85 17.7121 250.338 17.7921C249.842 17.8561 249.418 17.8881 249.066 17.8881C248.234 17.8881 247.618 17.7041 247.218 17.3361C246.818 16.9521 246.618 16.4641 246.618 15.8721C246.618 15.5521 246.786 15.1121 247.122 14.5521C247.458 13.9921 247.906 13.3761 248.466 12.7041C249.026 12.0321 249.65 11.3601 250.338 10.6881C251.026 10.0161 251.722 9.40012 252.426 8.84012C253.146 8.26412 253.826 7.80812 254.466 7.47212C255.106 7.12012 255.65 6.94412 256.098 6.94412C256.61 6.94412 257.018 7.10412 257.322 7.42412C257.642 7.74412 257.802 8.17612 257.802 8.72012C257.802 8.97612 257.778 9.25612 257.73 9.56012C257.682 9.84812 257.562 10.1121 257.37 10.3521C257.178 10.5761 256.882 10.7361 256.482 10.8321C256.082 10.9281 255.538 10.9121 254.85 10.7841C254.306 11.1841 253.738 11.6241 253.146 12.1041C252.57 12.5681 252.026 13.0561 251.514 13.5681C251.002 14.0641 250.578 14.5521 250.242 15.0321C250.834 14.8401 251.506 14.6881 252.258 14.5761C253.01 14.4481 253.77 14.3841 254.538 14.3841C255.466 14.3841 256.218 14.5521 256.794 14.8881C257.386 15.2081 257.818 15.6401 258.09 16.1841C258.378 16.7281 258.522 17.3281 258.522 17.9841C258.522 18.7201 258.282 19.4561 257.802 20.1921C257.322 20.9281 256.682 21.6001 255.882 22.2081C255.082 22.8161 254.194 23.3041 253.218 23.6721C252.242 24.0401 251.258 24.2241 250.266 24.2241ZM276.937 23.8161C275.945 23.8161 275.145 23.4721 274.537 22.7841C273.929 22.0801 273.625 20.9521 273.625 19.4001C273.625 18.4081 273.737 17.4161 273.961 16.4241C274.201 15.4161 274.529 14.4641 274.945 13.5681C275.377 12.6561 275.873 11.8481 276.433 11.1441C277.009 10.4401 277.641 9.88812 278.329 9.48812C279.017 9.07212 279.729 8.86412 280.465 8.86412C281.713 8.86412 282.689 9.20012 283.393 9.87212C284.097 10.5441 284.449 11.4001 284.449 12.4401C284.449 13.2401 284.225 13.9681 283.777 14.6241C283.345 15.2641 282.753 15.8401 282.001 16.3521C281.249 16.8641 280.409 17.3281 279.481 17.7441C278.553 18.1601 277.601 18.5361 276.625 18.8721C276.545 19.4481 276.505 19.9601 276.505 20.4081C276.505 20.6801 276.657 20.8161 276.961 20.8161C277.681 20.8161 278.449 20.7041 279.265 20.4801C280.097 20.2401 280.937 19.9361 281.785 19.5681C282.633 19.1841 283.449 18.7921 284.233 18.3921C285.017 17.9761 285.729 17.5841 286.369 17.2161C287.025 16.8321 287.561 16.5281 287.977 16.3041C288.409 16.0641 288.689 15.9441 288.817 15.9441C289.169 15.9441 289.425 16.0481 289.585 16.2561C289.745 16.4641 289.825 16.6881 289.825 16.9281C289.825 17.0401 289.609 17.2881 289.177 17.6721C288.761 18.0561 288.185 18.5121 287.449 19.0401C286.729 19.5521 285.913 20.0881 285.001 20.6481C284.105 21.1921 283.169 21.7121 282.193 22.2081C281.233 22.6881 280.297 23.0721 279.385 23.3601C278.489 23.6641 277.673 23.8161 276.937 23.8161ZM277.033 16.7361C277.689 16.3521 278.337 15.9521 278.977 15.5361C279.633 15.1041 280.177 14.6241 280.609 14.0961C281.041 13.5521 281.257 12.9201 281.257 12.2001C281.257 11.9921 281.201 11.8561 281.089 11.7921C280.977 11.7121 280.817 11.6721 280.609 11.6721C280.049 11.6721 279.537 11.9201 279.073 12.4161C278.625 12.9121 278.225 13.5521 277.873 14.3361C277.537 15.1041 277.257 15.9041 277.033 16.7361ZM291.439 22.9761C291.023 22.9761 290.655 22.7761 290.335 22.3761C290.031 21.9761 289.799 21.3601 289.639 20.5281C289.511 19.8241 289.399 19.0241 289.303 18.1281C289.207 17.2321 289.119 16.3521 289.039 15.4881C288.975 14.6081 288.927 13.8401 288.895 13.1841C288.863 12.5281 288.847 12.0801 288.847 11.8401C288.847 10.9761 288.999 10.2641 289.303 9.70412C289.607 9.12812 290.191 8.84012 291.055 8.84012C291.423 8.84012 291.703 9.00012 291.895 9.32012C292.087 9.62412 292.183 10.0481 292.183 10.5921C292.183 10.9281 292.183 11.3521 292.183 11.8641C292.199 12.3601 292.215 12.9201 292.231 13.5441C292.247 14.2321 292.263 14.9761 292.279 15.7761C292.311 16.5601 292.327 17.3441 292.327 18.1281C292.887 17.2481 293.487 16.3121 294.127 15.3201C294.767 14.3121 295.391 13.3361 295.999 12.3921C296.623 11.4481 297.183 10.6161 297.679 9.89612C298.175 9.16012 298.551 8.64012 298.807 8.33612C299.031 8.06412 299.303 7.83212 299.623 7.64012C299.943 7.43212 300.279 7.32812 300.631 7.32812C301.015 7.32812 301.335 7.48012 301.591 7.78412C301.847 8.08812 301.975 8.44012 301.975 8.84012C301.975 9.14412 301.911 9.43212 301.783 9.70412C301.671 9.97612 301.527 10.2321 301.351 10.4721C300.871 11.1441 300.303 11.9281 299.647 12.8241C299.007 13.7201 298.335 14.6641 297.631 15.6561C296.927 16.6321 296.239 17.5761 295.567 18.4881C294.911 19.4001 294.327 20.2081 293.815 20.9121C293.399 21.5041 293.063 21.9521 292.807 22.2561C292.551 22.5441 292.319 22.7361 292.111 22.8321C291.919 22.9281 291.695 22.9761 291.439 22.9761ZM314.605 12.6081C314.605 13.6481 314.013 14.6801 312.829 15.7041C311.661 16.7121 309.845 17.6081 307.381 18.3921C307.381 18.4081 307.381 18.4321 307.381 18.4641C307.381 18.9921 307.445 19.4161 307.573 19.7361C307.701 20.0401 307.981 20.1921 308.413 20.1921C309.053 20.1921 309.765 20.0001 310.549 19.6161C311.349 19.2161 312.173 18.7121 313.021 18.1041C313.885 17.4801 314.725 16.8241 315.541 16.1361C316.357 15.4481 317.109 14.8001 317.797 14.1921C318.501 13.5681 319.093 13.0641 319.573 12.6801C320.069 12.2801 320.397 12.0801 320.557 12.0801C320.893 12.0801 321.173 12.2081 321.397 12.4641C321.637 12.7201 321.757 13.1041 321.757 13.6161C321.757 13.9041 321.741 14.2481 321.709 14.6481C322.413 13.4321 323.229 12.4321 324.157 11.6481C325.085 10.8481 325.997 10.2561 326.893 9.87212C327.805 9.47212 328.581 9.27212 329.221 9.27212C329.941 9.27212 330.429 9.41612 330.685 9.70412C330.941 9.97612 331.069 10.2641 331.069 10.5681C331.069 10.7441 331.029 10.9201 330.949 11.0961C330.885 11.2561 330.709 11.4321 330.421 11.6241C330.149 11.8161 329.693 12.0401 329.053 12.2961C328.205 12.6161 327.397 12.9921 326.629 13.4241C325.877 13.8561 325.181 14.4481 324.541 15.2001C323.917 15.9361 323.349 16.9281 322.837 18.1761C322.341 19.4081 321.925 20.9921 321.589 22.9281C321.477 23.4721 321.301 23.8401 321.061 24.0321C320.821 24.2401 320.541 24.3441 320.221 24.3441C320.189 24.3441 320.133 24.3441 320.053 24.3441C319.909 24.3601 319.757 24.3441 319.597 24.2961C319.453 24.2641 319.309 24.1281 319.165 23.8881C319.037 23.6641 318.933 23.2721 318.853 22.7121C318.773 22.1521 318.733 21.3521 318.733 20.3121C318.733 19.6881 318.757 19.0321 318.805 18.3441C318.869 17.6401 318.949 16.9121 319.045 16.1601C318.229 16.9601 317.357 17.7681 316.429 18.5841C315.501 19.4001 314.541 20.1521 313.549 20.8401C312.573 21.5121 311.613 22.0561 310.669 22.4721C309.741 22.8881 308.877 23.0961 308.077 23.0961C307.005 23.0961 306.125 22.7521 305.437 22.0641C304.765 21.3601 304.429 20.2801 304.429 18.8241C304.429 17.3841 304.621 16.0801 305.005 14.9121C305.405 13.7281 305.917 12.7121 306.541 11.8641C307.165 11.0161 307.829 10.3681 308.533 9.92012C309.253 9.45612 309.925 9.22412 310.549 9.22412C311.877 9.22412 312.885 9.54412 313.573 10.1841C314.261 10.8081 314.605 11.6161 314.605 12.6081ZM307.693 16.2561C308.109 16.0481 308.549 15.8081 309.013 15.5361C309.493 15.2481 309.941 14.9521 310.357 14.6481C310.773 14.3281 311.109 14.0161 311.365 13.7121C311.637 13.4081 311.773 13.1201 311.773 12.8481C311.773 12.4001 311.645 12.1281 311.389 12.0321C311.149 11.9201 310.821 11.8641 310.405 11.8641C309.973 11.8641 309.581 12.0961 309.229 12.5601C308.877 13.0081 308.573 13.5681 308.317 14.2401C308.061 14.9121 307.853 15.5841 307.693 16.2561ZM334.266 29.6001C333.37 29.6001 332.554 29.5441 331.818 29.4321C331.082 29.3361 330.362 29.1761 329.658 28.9521C328.954 28.7281 328.194 28.4321 327.378 28.0641C327.042 27.9041 326.762 27.7361 326.538 27.5601C326.314 27.3841 326.202 27.1201 326.202 26.7681C326.202 26.2561 326.362 25.8641 326.682 25.5921C326.986 25.3361 327.41 25.2081 327.954 25.2081C328.242 25.2081 328.61 25.3041 329.058 25.4961C329.506 25.7041 330.018 25.9361 330.594 26.1921C331.186 26.4641 331.842 26.6961 332.562 26.8881C333.282 27.0961 334.058 27.2001 334.89 27.2001C335.738 27.2001 336.53 26.8481 337.266 26.1441C338.002 25.4401 338.594 24.4481 339.042 23.1681C339.506 21.9041 339.738 20.4081 339.738 18.6801C339.738 18.2801 339.73 17.8481 339.714 17.3841C339.698 16.9041 339.682 16.4001 339.666 15.8721C339.09 16.9601 338.466 17.9761 337.794 18.9201C337.122 19.8641 336.426 20.6321 335.706 21.2241C335.002 21.8001 334.29 22.0881 333.57 22.0881C332.69 22.0881 332.05 21.8801 331.65 21.4641C331.266 21.0321 331.074 20.3521 331.074 19.4241C331.074 18.6401 331.13 17.7841 331.242 16.8561C331.37 15.9121 331.538 14.9601 331.746 14.0001C331.954 13.0401 332.194 12.1281 332.466 11.2641C332.754 10.3841 333.058 9.62412 333.378 8.98412C333.618 8.52012 333.986 8.28812 334.482 8.28812C334.802 8.28812 335.122 8.44012 335.442 8.74412C335.778 9.04812 335.946 9.45612 335.946 9.96812C335.946 10.2561 335.874 10.6721 335.73 11.2161C335.586 11.7601 335.41 12.3761 335.202 13.0641C335.01 13.7361 334.81 14.4481 334.602 15.2001C334.394 15.9361 334.218 16.6641 334.074 17.3841C333.93 18.0881 333.858 18.7281 333.858 19.3041C333.858 19.3681 333.906 19.4001 334.002 19.4001C334.194 19.4001 334.45 19.2401 334.77 18.9201C335.106 18.5841 335.474 18.1521 335.874 17.6241C336.29 17.0801 336.706 16.4881 337.122 15.8481C337.554 15.1921 337.97 14.5441 338.37 13.9041C338.77 13.2641 339.13 12.6801 339.45 12.1521C339.402 11.8961 339.37 11.6721 339.354 11.4801C339.354 11.2721 339.354 11.0961 339.354 10.9521C339.354 10.2961 339.466 9.75212 339.69 9.32012C339.93 8.88812 340.394 8.67212 341.082 8.67212C341.53 8.67212 341.874 8.84012 342.114 9.17612C342.354 9.49612 342.474 9.95212 342.474 10.5441C342.474 10.8001 342.434 11.0961 342.354 11.4321C342.274 11.7521 342.114 12.2641 341.874 12.9681L342.138 12.2241C342.282 13.6641 342.402 14.9441 342.498 16.0641C342.61 17.1841 342.666 18.2961 342.666 19.4001C342.666 21.4801 342.314 23.2801 341.61 24.8001C340.922 26.3361 339.946 27.5201 338.682 28.3521C337.434 29.1841 335.962 29.6001 334.266 29.6001ZM380.528 22.4481C380.432 23.3121 379.92 23.7441 378.992 23.7441C378.512 23.7441 378.128 23.6001 377.84 23.3121C377.568 23.0241 377.432 22.6081 377.432 22.0641C377.432 21.1361 377.472 20.1441 377.552 19.0881C377.648 18.0161 377.76 16.9361 377.888 15.8481C378.032 14.7601 378.168 13.7201 378.296 12.7281C377.72 13.5601 377.112 14.4161 376.472 15.2961C375.832 16.1761 375.192 17.0321 374.552 17.8641C373.912 18.6961 373.296 19.4481 372.704 20.1201C372.128 20.7761 371.6 21.3041 371.12 21.7041C370.64 22.0881 370.24 22.2801 369.92 22.2801C369.152 22.2801 368.488 22.0001 367.928 21.4401C367.368 20.8641 367.088 20.1361 367.088 19.2561C367.088 18.9521 367.12 18.5441 367.184 18.0321C367.248 17.5041 367.328 16.9441 367.424 16.3521C367.52 15.7601 367.6 15.2001 367.664 14.6721C367.728 14.1441 367.76 13.7281 367.76 13.4241C367.76 13.4241 367.76 13.4081 367.76 13.3761C367.776 13.2961 367.76 13.2561 367.712 13.2561C367.648 13.2561 367.472 13.4721 367.184 13.9041C366.896 14.3201 366.544 14.8641 366.128 15.5361C365.712 16.2081 365.272 16.9121 364.808 17.6481C364.36 18.3841 363.936 19.0721 363.536 19.7121C363.152 20.3521 362.832 20.8481 362.576 21.2001C362.224 21.7441 361.896 22.0881 361.592 22.2321C361.288 22.3761 360.936 22.4481 360.536 22.4481C359.976 22.4481 359.536 22.2641 359.216 21.8961C358.912 21.5121 358.76 20.9761 358.76 20.2881C358.76 20.0001 358.808 19.5521 358.904 18.9441C359.016 18.3361 359.152 17.6641 359.312 16.9281C359.472 16.1761 359.632 15.4481 359.792 14.7441C359.968 14.0241 360.12 13.4161 360.248 12.9201C360.392 12.2641 360.592 11.8081 360.848 11.5521C361.12 11.2801 361.464 11.1441 361.88 11.1441C362.856 11.1441 363.344 11.6241 363.344 12.5841C363.344 12.7601 363.288 13.0481 363.176 13.4481C363.064 13.8481 362.928 14.3121 362.768 14.8401C362.608 15.3681 362.44 15.9121 362.264 16.4721C362.088 17.0161 361.944 17.5281 361.832 18.0081C362.216 17.3361 362.632 16.6161 363.08 15.8481C363.528 15.0801 363.984 14.3281 364.448 13.5921C364.928 12.8561 365.4 12.1841 365.864 11.5761C366.344 10.9681 366.816 10.4881 367.28 10.1361C367.744 9.76812 368.184 9.58412 368.6 9.58412C369.016 9.58412 369.424 9.73612 369.824 10.0401C370.224 10.3281 370.552 10.7041 370.808 11.1681C371.08 11.6161 371.216 12.0961 371.216 12.6081C371.216 13.0881 371.152 13.6641 371.024 14.3361C370.896 15.0081 370.752 15.7121 370.592 16.4481C370.432 17.1841 370.32 17.9041 370.256 18.6081C370.8 18.0001 371.376 17.3121 371.984 16.5441C372.592 15.7601 373.216 14.9521 373.856 14.1201C374.496 13.2881 375.12 12.4801 375.728 11.6961C376.352 10.9121 376.928 10.2001 377.456 9.56012C378 8.92012 378.48 8.41612 378.896 8.04812C379.312 7.66412 379.632 7.47212 379.856 7.47212C380.512 7.47212 381.024 7.64812 381.392 8.00012C381.776 8.33612 381.968 8.92812 381.968 9.77612C381.968 10.3041 381.928 10.9921 381.848 11.8401C381.784 12.6881 381.688 13.6081 381.56 14.6001C381.448 15.5761 381.32 16.5681 381.176 17.5761C381.048 18.5681 380.928 19.4881 380.816 20.3361C380.704 21.1841 380.608 21.8881 380.528 22.4481ZM389.171 23.7921C388.035 23.7921 387.123 23.3921 386.435 22.5921C385.747 21.7761 385.403 20.6881 385.403 19.3281C385.403 18.8961 385.459 18.4561 385.571 18.0081C385.699 17.5601 385.851 17.1441 386.027 16.7601C385.931 16.6161 385.851 16.4321 385.787 16.2081C385.739 15.9681 385.715 15.6881 385.715 15.3681C385.715 14.3281 385.899 13.3761 386.267 12.5121C386.635 11.6321 387.131 10.8721 387.755 10.2321C388.379 9.59212 389.067 9.09612 389.819 8.74412C390.571 8.39212 391.331 8.21612 392.099 8.21612C393.411 8.21612 394.483 8.65612 395.315 9.53612C396.163 10.4161 396.587 11.7841 396.587 13.6401C396.587 14.5681 396.443 15.5121 396.155 16.4721C395.867 17.4321 395.475 18.3521 394.979 19.2321C394.499 20.0961 393.939 20.8721 393.299 21.5601C392.675 22.2481 392.003 22.7921 391.283 23.1921C390.579 23.5921 389.875 23.7921 389.171 23.7921ZM388.787 15.6801C388.867 15.8561 388.907 16.0641 388.907 16.3041C388.907 16.5441 388.859 16.7921 388.763 17.0481C388.667 17.3041 388.571 17.6481 388.475 18.0801C388.379 18.4961 388.331 19.0961 388.331 19.8801C388.331 20.0881 388.355 20.2641 388.403 20.4081C388.467 20.5361 388.603 20.6001 388.811 20.6001C389.355 20.6001 389.867 20.4241 390.347 20.0721C390.843 19.7201 391.283 19.2561 391.667 18.6801C392.067 18.1041 392.403 17.4641 392.675 16.7601C392.963 16.0401 393.179 15.3121 393.323 14.5761C393.483 13.8241 393.563 13.1281 393.563 12.4881C393.563 12.0721 393.483 11.7841 393.323 11.6241C393.163 11.4641 392.883 11.3841 392.483 11.3841C391.939 11.3841 391.379 11.5601 390.803 11.9121C390.243 12.2481 389.771 12.7121 389.387 13.3041C389.003 13.8801 388.811 14.5361 388.811 15.2721C388.811 15.4161 388.803 15.5521 388.787 15.6801ZM421.028 22.4481C420.932 23.3121 420.42 23.7441 419.492 23.7441C419.012 23.7441 418.628 23.6001 418.34 23.3121C418.068 23.0241 417.932 22.6081 417.932 22.0641C417.932 21.1361 417.972 20.1441 418.052 19.0881C418.148 18.0161 418.26 16.9361 418.388 15.8481C418.532 14.7601 418.668 13.7201 418.796 12.7281C418.22 13.5601 417.612 14.4161 416.972 15.2961C416.332 16.1761 415.692 17.0321 415.052 17.8641C414.412 18.6961 413.796 19.4481 413.204 20.1201C412.628 20.7761 412.1 21.3041 411.62 21.7041C411.14 22.0881 410.74 22.2801 410.42 22.2801C409.652 22.2801 408.988 22.0001 408.428 21.4401C407.868 20.8641 407.588 20.1361 407.588 19.2561C407.588 18.9521 407.62 18.5441 407.684 18.0321C407.748 17.5041 407.828 16.9441 407.924 16.3521C408.02 15.7601 408.1 15.2001 408.164 14.6721C408.228 14.1441 408.26 13.7281 408.26 13.4241C408.26 13.4241 408.26 13.4081 408.26 13.3761C408.276 13.2961 408.26 13.2561 408.212 13.2561C408.148 13.2561 407.972 13.4721 407.684 13.9041C407.396 14.3201 407.044 14.8641 406.628 15.5361C406.212 16.2081 405.772 16.9121 405.308 17.6481C404.86 18.3841 404.436 19.0721 404.036 19.7121C403.652 20.3521 403.332 20.8481 403.076 21.2001C402.724 21.7441 402.396 22.0881 402.092 22.2321C401.788 22.3761 401.436 22.4481 401.036 22.4481C400.476 22.4481 400.036 22.2641 399.716 21.8961C399.412 21.5121 399.26 20.9761 399.26 20.2881C399.26 20.0001 399.308 19.5521 399.404 18.9441C399.516 18.3361 399.652 17.6641 399.812 16.9281C399.972 16.1761 400.132 15.4481 400.292 14.7441C400.468 14.0241 400.62 13.4161 400.748 12.9201C400.892 12.2641 401.092 11.8081 401.348 11.5521C401.62 11.2801 401.964 11.1441 402.38 11.1441C403.356 11.1441 403.844 11.6241 403.844 12.5841C403.844 12.7601 403.788 13.0481 403.676 13.4481C403.564 13.8481 403.428 14.3121 403.268 14.8401C403.108 15.3681 402.94 15.9121 402.764 16.4721C402.588 17.0161 402.444 17.5281 402.332 18.0081C402.716 17.3361 403.132 16.6161 403.58 15.8481C404.028 15.0801 404.484 14.3281 404.948 13.5921C405.428 12.8561 405.9 12.1841 406.364 11.5761C406.844 10.9681 407.316 10.4881 407.78 10.1361C408.244 9.76812 408.684 9.58412 409.1 9.58412C409.516 9.58412 409.924 9.73612 410.324 10.0401C410.724 10.3281 411.052 10.7041 411.308 11.1681C411.58 11.6161 411.716 12.0961 411.716 12.6081C411.716 13.0881 411.652 13.6641 411.524 14.3361C411.396 15.0081 411.252 15.7121 411.092 16.4481C410.932 17.1841 410.82 17.9041 410.756 18.6081C411.3 18.0001 411.876 17.3121 412.484 16.5441C413.092 15.7601 413.716 14.9521 414.356 14.1201C414.996 13.2881 415.62 12.4801 416.228 11.6961C416.852 10.9121 417.428 10.2001 417.956 9.56012C418.5 8.92012 418.98 8.41612 419.396 8.04812C419.812 7.66412 420.132 7.47212 420.356 7.47212C421.012 7.47212 421.524 7.64812 421.892 8.00012C422.276 8.33612 422.468 8.92812 422.468 9.77612C422.468 10.3041 422.428 10.9921 422.348 11.8401C422.284 12.6881 422.188 13.6081 422.06 14.6001C421.948 15.5761 421.82 16.5681 421.676 17.5761C421.548 18.5681 421.428 19.4881 421.316 20.3361C421.204 21.1841 421.108 21.8881 421.028 22.4481ZM429.328 23.8161C428.336 23.8161 427.536 23.4721 426.928 22.7841C426.32 22.0801 426.016 20.9521 426.016 19.4001C426.016 18.4081 426.128 17.4161 426.352 16.4241C426.592 15.4161 426.92 14.4641 427.336 13.5681C427.768 12.6561 428.264 11.8481 428.824 11.1441C429.4 10.4401 430.032 9.88812 430.72 9.48812C431.408 9.07212 432.12 8.86412 432.856 8.86412C434.104 8.86412 435.08 9.20012 435.784 9.87212C436.488 10.5441 436.84 11.4001 436.84 12.4401C436.84 13.2401 436.616 13.9681 436.168 14.6241C435.736 15.2641 435.144 15.8401 434.392 16.3521C433.64 16.8641 432.8 17.3281 431.872 17.7441C430.944 18.1601 429.992 18.5361 429.016 18.8721C428.936 19.4481 428.896 19.9601 428.896 20.4081C428.896 20.6801 429.048 20.8161 429.352 20.8161C430.072 20.8161 430.84 20.7041 431.656 20.4801C432.488 20.2401 433.328 19.9361 434.176 19.5681C435.024 19.1841 435.84 18.7921 436.624 18.3921C437.408 17.9761 438.12 17.5841 438.76 17.2161C439.416 16.8321 439.952 16.5281 440.368 16.3041C440.8 16.0641 441.08 15.9441 441.208 15.9441C441.56 15.9441 441.816 16.0481 441.976 16.2561C442.136 16.4641 442.216 16.6881 442.216 16.9281C442.216 17.0401 442 17.2881 441.568 17.6721C441.152 18.0561 440.576 18.5121 439.84 19.0401C439.12 19.5521 438.304 20.0881 437.392 20.6481C436.496 21.1921 435.56 21.7121 434.584 22.2081C433.624 22.6881 432.688 23.0721 431.776 23.3601C430.88 23.6641 430.064 23.8161 429.328 23.8161ZM429.424 16.7361C430.08 16.3521 430.728 15.9521 431.368 15.5361C432.024 15.1041 432.568 14.6241 433 14.0961C433.432 13.5521 433.648 12.9201 433.648 12.2001C433.648 11.9921 433.592 11.8561 433.48 11.7921C433.368 11.7121 433.208 11.6721 433 11.6721C432.44 11.6721 431.928 11.9201 431.464 12.4161C431.016 12.9121 430.616 13.5521 430.264 14.3361C429.928 15.1041 429.648 15.9041 429.424 16.7361ZM442.858 23.0001C442.474 23.0001 442.09 22.8721 441.706 22.6161C441.338 22.3441 441.034 21.9601 440.794 21.4641C440.554 20.9521 440.434 20.3361 440.434 19.6161C440.434 18.6561 440.562 17.6321 440.818 16.5441C441.09 15.4561 441.418 14.3681 441.802 13.2801C442.186 12.1921 442.562 11.1681 442.93 10.2081C443.106 9.74412 443.322 9.43212 443.578 9.27212C443.834 9.09612 444.17 9.00812 444.586 9.00812C445.53 9.00812 446.002 9.48012 446.002 10.4241C446.002 10.5841 445.93 10.8961 445.786 11.3601C445.642 11.8081 445.45 12.3601 445.21 13.0161C444.986 13.6721 444.746 14.3841 444.49 15.1521C444.25 15.9041 444.026 16.6721 443.818 17.4561C443.626 18.2241 443.474 18.9521 443.362 19.6401C443.73 19.0801 444.138 18.3841 444.586 17.5521C445.05 16.7041 445.538 15.8161 446.05 14.8881C446.578 13.9601 447.106 13.0961 447.634 12.2961C448.162 11.4801 448.682 10.8161 449.194 10.3041C449.706 9.79212 450.194 9.53612 450.658 9.53612C451.058 9.53612 451.434 9.61612 451.786 9.77612C452.154 9.92012 452.474 10.2081 452.746 10.6401C453.018 11.0561 453.226 11.6561 453.37 12.4401C453.53 13.2241 453.61 14.2561 453.61 15.5361C453.61 16.1761 453.666 16.8001 453.778 17.4081C453.906 18.0001 454.114 18.4961 454.402 18.8961C454.69 19.2801 455.098 19.4721 455.626 19.4721C456.538 19.4721 457.354 19.3041 458.074 18.9681C458.794 18.6321 459.426 18.2401 459.97 17.7921C460.514 17.3441 460.97 16.9521 461.338 16.6161C461.562 16.3921 461.754 16.2161 461.914 16.0881C462.09 15.9601 462.234 15.8961 462.346 15.8961C462.682 15.8961 462.922 15.9841 463.066 16.1601C463.226 16.3361 463.306 16.5761 463.306 16.8801C463.306 17.0401 463.17 17.3361 462.898 17.7681C462.626 18.2001 462.242 18.6961 461.746 19.2561C461.266 19.8001 460.714 20.3281 460.09 20.8401C459.466 21.3521 458.794 21.7761 458.074 22.1121C457.354 22.4481 456.618 22.6161 455.866 22.6161C454.602 22.6161 453.554 22.3921 452.722 21.9441C451.906 21.4801 451.298 20.7121 450.898 19.6401C450.498 18.5521 450.298 17.0721 450.298 15.2001C450.298 15.1521 450.298 15.0721 450.298 14.9601C450.298 14.4641 450.29 14.0241 450.274 13.6401C450.274 13.2561 450.25 12.9441 450.202 12.7041C449.93 13.2001 449.602 13.7921 449.218 14.4801C448.85 15.1681 448.45 15.9041 448.018 16.6881C447.586 17.4561 447.138 18.2161 446.674 18.9681C446.21 19.7041 445.746 20.3761 445.282 20.9841C444.834 21.5921 444.402 22.0801 443.986 22.4481C443.57 22.8161 443.194 23.0001 442.858 23.0001ZM478.794 10.9041C478.794 11.0961 478.73 11.2641 478.602 11.4081C478.474 11.5521 478.314 11.6641 478.122 11.7441C477.85 11.8561 477.378 12.0001 476.706 12.1761C476.034 12.3521 475.218 12.5521 474.258 12.7761C473.314 13.0001 472.298 13.2321 471.21 13.4721C470.122 13.6961 469.034 13.9121 467.946 14.1201C467.53 15.6561 467.106 17.2401 466.674 18.8721C466.242 20.4881 465.81 22.0801 465.378 23.6481C465.218 24.2081 465.026 24.6321 464.802 24.9201C464.578 25.2241 464.194 25.3761 463.65 25.3761C463.058 25.3761 462.658 25.1841 462.45 24.8001C462.258 24.4321 462.234 23.9281 462.378 23.2881C462.794 21.5441 463.178 19.9201 463.53 18.4161C463.898 16.9121 464.194 15.6961 464.418 14.7681C463.458 14.9281 462.618 15.0561 461.898 15.1521C461.178 15.2321 460.666 15.2641 460.362 15.2481C460.026 15.2161 459.746 15.0801 459.522 14.8401C459.298 14.6001 459.194 14.3041 459.21 13.9521C459.242 13.6321 459.386 13.3601 459.642 13.1361C459.898 12.8961 460.202 12.7521 460.554 12.7041C461.05 12.6561 461.69 12.5841 462.474 12.4881C463.258 12.3921 464.122 12.2801 465.066 12.1521C465.274 11.3361 465.514 10.4961 465.786 9.63212C466.058 8.75212 466.338 7.91212 466.626 7.11212C466.93 6.29612 467.218 5.58412 467.49 4.97612C467.762 4.36812 468.01 3.92812 468.234 3.65612C468.41 3.44812 468.626 3.28812 468.882 3.17612C469.154 3.06412 469.418 3.00812 469.674 3.00812C470.01 3.00812 470.282 3.12812 470.49 3.36812C470.698 3.60812 470.802 3.88812 470.802 4.20812C470.802 4.33612 470.794 4.47212 470.778 4.61612C470.762 4.74412 470.73 4.87212 470.682 5.00012C470.378 5.80012 470.05 6.76812 469.698 7.90412C469.362 9.04012 469.01 10.2881 468.642 11.6481C469.842 11.4721 471.018 11.2961 472.17 11.1201C473.338 10.9281 474.394 10.7521 475.338 10.5921C476.298 10.4161 477.066 10.2641 477.642 10.1361C477.962 10.0241 478.234 10.0481 478.458 10.2081C478.682 10.3521 478.794 10.5841 478.794 10.9041ZM488.542 24.8721C487.806 24.8721 487.278 24.6641 486.958 24.2481C486.638 23.8321 486.478 23.2241 486.478 22.4241C486.478 21.6881 486.614 20.7281 486.886 19.5441C487.174 18.3441 487.55 17.0081 488.014 15.5361C488.494 14.0481 489.03 12.5201 489.622 10.9521C490.214 9.36812 490.83 7.81612 491.47 6.29612C492.11 4.76012 492.734 3.35212 493.342 2.07212C493.63 1.51212 493.934 1.12812 494.254 0.920122C494.574 0.712121 494.926 0.608121 495.31 0.608121C495.678 0.608121 495.99 0.712121 496.246 0.920122C496.502 1.11212 496.63 1.42412 496.63 1.85612C496.63 1.95212 496.502 2.32012 496.246 2.96012C495.99 3.58412 495.654 4.40012 495.238 5.40812C494.822 6.40012 494.366 7.52012 493.87 8.76812C493.374 10.0001 492.878 11.2881 492.382 12.6321C491.886 13.9601 491.438 15.2721 491.038 16.5681C490.638 17.8641 490.318 19.0641 490.078 20.1681C490.638 19.4161 491.238 18.5841 491.878 17.6721C492.534 16.7441 493.198 15.8241 493.87 14.9121C494.558 13.9841 495.23 13.1361 495.886 12.3681C496.558 11.6001 497.182 10.9841 497.758 10.5201C498.334 10.0561 498.838 9.82412 499.27 9.82412C500.07 9.82412 500.71 10.0481 501.19 10.4961C501.686 10.9281 501.934 11.6801 501.934 12.7521C501.934 13.2481 501.838 13.8481 501.646 14.5521C501.454 15.2401 501.222 15.9681 500.95 16.7361C500.694 17.4881 500.47 18.2161 500.278 18.9201C500.086 19.6241 499.99 20.2401 499.99 20.7681C499.99 21.0561 500.126 21.2001 500.398 21.2001C501.182 21.2001 501.974 21.0321 502.774 20.6961C503.59 20.3601 504.366 19.9441 505.102 19.4481C505.854 18.9361 506.534 18.4321 507.142 17.9361C507.766 17.4241 508.27 17.0001 508.654 16.6641C508.926 16.4081 509.174 16.2401 509.398 16.1601C509.622 16.0641 509.83 16.0161 510.022 16.0161C510.678 16.0161 511.006 16.3441 511.006 17.0001C511.006 17.1281 510.982 17.2881 510.934 17.4801C510.886 17.6561 510.734 17.8801 510.478 18.1521C510.222 18.4241 509.838 18.8081 509.326 19.3041C508.814 19.8001 508.214 20.3281 507.526 20.8881C506.854 21.4481 506.118 21.9841 505.318 22.4961C504.534 22.9921 503.726 23.4001 502.894 23.7201C502.062 24.0401 501.254 24.2001 500.47 24.2001C499.286 24.2001 498.374 23.8641 497.734 23.1921C497.094 22.5361 496.774 21.6401 496.774 20.5041C496.774 19.7201 496.934 18.7361 497.254 17.5521C497.574 16.3521 497.934 15.1281 498.334 13.8801C497.774 14.4241 497.19 15.0721 496.582 15.8241C495.974 16.5601 495.358 17.3441 494.734 18.1761C494.11 18.9921 493.494 19.8001 492.886 20.6001C492.294 21.3841 491.726 22.1041 491.182 22.7601C490.638 23.4001 490.142 23.9121 489.694 24.2961C489.246 24.6801 488.862 24.8721 488.542 24.8721ZM510.239 23.9121C509.727 23.9121 509.263 23.7681 508.847 23.4801C508.431 23.2081 508.103 22.8481 507.863 22.4001C507.623 21.9361 507.503 21.4401 507.503 20.9121C507.503 19.9201 507.719 18.9521 508.151 18.0081C508.599 17.0641 509.183 16.1681 509.903 15.3201C510.623 14.4721 511.407 13.6961 512.255 12.9921C513.119 12.2721 513.975 11.6561 514.823 11.1441C515.687 10.6321 516.471 10.2321 517.175 9.94412C517.895 9.65612 518.455 9.51212 518.855 9.51212C519.319 9.51212 519.695 9.61612 519.983 9.82412C520.287 10.0161 520.439 10.3201 520.439 10.7361C520.439 10.8641 520.407 10.9681 520.343 11.0481C520.551 11.0961 520.719 11.2161 520.847 11.4081C520.975 11.6001 521.039 11.8881 521.039 12.2721C521.039 12.4321 520.999 12.8481 520.919 13.5201C520.839 14.1921 520.751 15.0081 520.655 15.9681C520.575 16.9281 520.535 17.9281 520.535 18.9681C520.535 19.1281 520.559 19.2721 520.607 19.4001C520.655 19.5121 520.759 19.5681 520.919 19.5681C521.559 19.5681 522.207 19.4401 522.863 19.1841C523.535 18.9121 524.183 18.5841 524.807 18.2001C525.447 17.8001 526.023 17.4081 526.535 17.0241C527.063 16.6241 527.503 16.2961 527.855 16.0401C528.223 15.7681 528.463 15.6321 528.575 15.6321C529.119 15.6321 529.391 15.9041 529.391 16.4481C529.391 16.5921 529.215 16.8961 528.863 17.3601C528.527 17.8081 528.063 18.3281 527.471 18.9201C526.879 19.4961 526.215 20.0721 525.479 20.6481C524.759 21.2081 524.007 21.6721 523.223 22.0401C522.455 22.4081 521.711 22.5921 520.991 22.5921C520.111 22.5921 519.439 22.3841 518.975 21.9681C518.527 21.5521 518.207 20.9921 518.015 20.2881C517.839 19.5681 517.743 18.7601 517.727 17.8641C516.911 19.0321 516.063 20.0721 515.183 20.9841C514.319 21.8801 513.463 22.5921 512.615 23.1201C511.767 23.6481 510.975 23.9121 510.239 23.9121ZM518.735 11.8881C517.167 12.6401 515.759 13.5041 514.511 14.4801C513.263 15.4401 512.271 16.4481 511.535 17.5041C510.815 18.5601 510.455 19.5761 510.455 20.5521C510.455 20.8241 510.583 20.9601 510.839 20.9601C511.143 20.9601 511.543 20.7841 512.039 20.4321C512.551 20.0801 513.103 19.6161 513.695 19.0401C514.287 18.4481 514.879 17.7921 515.471 17.0721C516.063 16.3361 516.615 15.5841 517.127 14.8161C517.639 14.0481 518.047 13.3121 518.351 12.6081C518.463 12.3521 518.591 12.1121 518.735 11.8881ZM527.921 30.7041C527.473 30.7041 527.121 30.5441 526.865 30.2241C526.625 29.9201 526.505 29.4481 526.505 28.8081C526.505 27.9281 526.585 26.8801 526.745 25.6641C526.905 24.4481 527.121 23.1601 527.393 21.8001C527.665 20.4401 527.961 19.1041 528.281 17.7921C528.665 16.2881 529.041 14.9201 529.409 13.6881C529.793 12.4561 530.177 11.4721 530.561 10.7361C530.961 9.98412 531.361 9.60812 531.761 9.60812C532.129 9.60812 532.449 9.74412 532.721 10.0161C533.009 10.2721 533.153 10.6561 533.153 11.1681C533.153 11.5361 533.057 12.0641 532.865 12.7521C532.673 13.4241 532.433 14.2641 532.145 15.2721C532.689 14.3761 533.249 13.4961 533.825 12.6321C534.417 11.7681 535.017 10.9841 535.625 10.2801C536.233 9.57612 536.825 9.01612 537.401 8.60012C537.977 8.18412 538.521 7.97612 539.033 7.97612C539.641 7.97612 540.177 8.15212 540.641 8.50412C541.121 8.85612 541.497 9.33612 541.769 9.94412C542.041 10.5521 542.177 11.2401 542.177 12.0081C542.177 13.4321 541.921 14.8161 541.409 16.1601C540.897 17.4881 540.185 18.6801 539.273 19.7361C538.377 20.7921 537.329 21.6321 536.129 22.2561C534.929 22.8641 533.633 23.1681 532.241 23.1681C531.841 23.1681 531.473 23.1281 531.137 23.0481C530.817 22.9841 530.521 22.9041 530.249 22.8081C530.057 23.8321 529.873 24.8801 529.697 25.9521C529.537 27.0401 529.369 28.1841 529.193 29.3841C529.001 30.2641 528.577 30.7041 527.921 30.7041ZM539.273 10.8081C538.921 10.8081 538.473 11.0481 537.929 11.5281C537.401 12.0081 536.825 12.6401 536.201 13.4241C535.577 14.1921 534.945 15.0321 534.305 15.9441C533.681 16.8401 533.081 17.7201 532.505 18.5841C531.945 19.4481 531.465 20.2001 531.065 20.8401C532.281 20.7121 533.353 20.3921 534.281 19.8801C535.209 19.3521 536.001 18.7121 536.657 17.9601C537.313 17.2081 537.841 16.4161 538.241 15.5841C538.657 14.7361 538.961 13.9121 539.153 13.1121C539.345 12.3121 539.441 11.6161 539.441 11.0241C539.441 10.8801 539.385 10.8081 539.273 10.8081ZM544.913 30.7041C544.465 30.7041 544.113 30.5441 543.857 30.2241C543.617 29.9201 543.497 29.4481 543.497 28.8081C543.497 27.9281 543.577 26.8801 543.737 25.6641C543.897 24.4481 544.113 23.1601 544.385 21.8001C544.657 20.4401 544.953 19.1041 545.273 17.7921C545.657 16.2881 546.033 14.9201 546.401 13.6881C546.785 12.4561 547.169 11.4721 547.553 10.7361C547.953 9.98412 548.353 9.60812 548.753 9.60812C549.121 9.60812 549.441 9.74412 549.713 10.0161C550.001 10.2721 550.145 10.6561 550.145 11.1681C550.145 11.5361 550.049 12.0641 549.857 12.7521C549.665 13.4241 549.425 14.2641 549.137 15.2721C549.681 14.3761 550.241 13.4961 550.817 12.6321C551.409 11.7681 552.009 10.9841 552.617 10.2801C553.225 9.57612 553.817 9.01612 554.393 8.60012C554.969 8.18412 555.513 7.97612 556.025 7.97612C556.633 7.97612 557.169 8.15212 557.633 8.50412C558.113 8.85612 558.489 9.33612 558.761 9.94412C559.033 10.5521 559.169 11.2401 559.169 12.0081C559.169 13.4321 558.913 14.8161 558.401 16.1601C557.889 17.4881 557.177 18.6801 556.265 19.7361C555.369 20.7921 554.321 21.6321 553.121 22.2561C551.921 22.8641 550.625 23.1681 549.233 23.1681C548.833 23.1681 548.465 23.1281 548.129 23.0481C547.809 22.9841 547.513 22.9041 547.241 22.8081C547.049 23.8321 546.865 24.8801 546.689 25.9521C546.529 27.0401 546.361 28.1841 546.185 29.3841C545.993 30.2641 545.569 30.7041 544.913 30.7041ZM556.265 10.8081C555.913 10.8081 555.465 11.0481 554.921 11.5281C554.393 12.0081 553.817 12.6401 553.193 13.4241C552.569 14.1921 551.937 15.0321 551.297 15.9441C550.673 16.8401 550.073 17.7201 549.497 18.5841C548.937 19.4481 548.457 20.2001 548.057 20.8401C549.273 20.7121 550.345 20.3921 551.273 19.8801C552.201 19.3521 552.993 18.7121 553.649 17.9601C554.305 17.2081 554.833 16.4161 555.233 15.5841C555.649 14.7361 555.953 13.9121 556.145 13.1121C556.337 12.3121 556.433 11.6161 556.433 11.0241C556.433 10.8801 556.377 10.8081 556.265 10.8081ZM565.523 29.6001C564.627 29.6001 563.811 29.5441 563.075 29.4321C562.339 29.3361 561.619 29.1761 560.915 28.9521C560.211 28.7281 559.451 28.4321 558.635 28.0641C558.299 27.9041 558.019 27.7361 557.795 27.5601C557.571 27.3841 557.459 27.1201 557.459 26.7681C557.459 26.2561 557.619 25.8641 557.939 25.5921C558.243 25.3361 558.667 25.2081 559.211 25.2081C559.499 25.2081 559.867 25.3041 560.315 25.4961C560.763 25.7041 561.275 25.9361 561.851 26.1921C562.443 26.4641 563.099 26.6961 563.819 26.8881C564.539 27.0961 565.315 27.2001 566.147 27.2001C566.995 27.2001 567.787 26.8481 568.523 26.1441C569.259 25.4401 569.851 24.4481 570.299 23.1681C570.763 21.9041 570.995 20.4081 570.995 18.6801C570.995 18.2801 570.987 17.8481 570.971 17.3841C570.955 16.9041 570.939 16.4001 570.923 15.8721C570.347 16.9601 569.723 17.9761 569.051 18.9201C568.379 19.8641 567.683 20.6321 566.963 21.2241C566.259 21.8001 565.547 22.0881 564.827 22.0881C563.947 22.0881 563.307 21.8801 562.907 21.4641C562.523 21.0321 562.331 20.3521 562.331 19.4241C562.331 18.6401 562.387 17.7841 562.499 16.8561C562.627 15.9121 562.795 14.9601 563.003 14.0001C563.211 13.0401 563.451 12.1281 563.723 11.2641C564.011 10.3841 564.315 9.62412 564.635 8.98412C564.875 8.52012 565.243 8.28812 565.739 8.28812C566.059 8.28812 566.379 8.44012 566.699 8.74412C567.035 9.04812 567.203 9.45612 567.203 9.96812C567.203 10.2561 567.131 10.6721 566.987 11.2161C566.843 11.7601 566.667 12.3761 566.459 13.0641C566.267 13.7361 566.067 14.4481 565.859 15.2001C565.651 15.9361 565.475 16.6641 565.331 17.3841C565.187 18.0881 565.115 18.7281 565.115 19.3041C565.115 19.3681 565.163 19.4001 565.259 19.4001C565.451 19.4001 565.707 19.2401 566.027 18.9201C566.363 18.5841 566.731 18.1521 567.131 17.6241C567.547 17.0801 567.963 16.4881 568.379 15.8481C568.811 15.1921 569.227 14.5441 569.627 13.9041C570.027 13.2641 570.387 12.6801 570.707 12.1521C570.659 11.8961 570.627 11.6721 570.611 11.4801C570.611 11.2721 570.611 11.0961 570.611 10.9521C570.611 10.2961 570.723 9.75212 570.947 9.32012C571.187 8.88812 571.651 8.67212 572.339 8.67212C572.787 8.67212 573.131 8.84012 573.371 9.17612C573.611 9.49612 573.731 9.95212 573.731 10.5441C573.731 10.8001 573.691 11.0961 573.611 11.4321C573.531 11.7521 573.371 12.2641 573.131 12.9681L573.395 12.2241C573.539 13.6641 573.659 14.9441 573.755 16.0641C573.867 17.1841 573.923 18.2961 573.923 19.4001C573.923 21.4801 573.571 23.2801 572.867 24.8001C572.179 26.3361 571.203 27.5201 569.939 28.3521C568.691 29.1841 567.219 29.6001 565.523 29.6001Z" fill="#00A2B8"/>
</svg>
