<svg width="21" height="24" viewBox="0 0 21 24" fill="none" xmlns="http://www.w3.org/2000/svg">
<path d="M8 9.5V18.5M13 9.5V18.5M7 5H1V5.25L1.24 6.3C2.40961 11.4169 2.99999 16.6491 3 21.898V23H18V21.898C18 16.649 18.59 11.418 19.76 6.3L20 5.25V5H14M7 5V4.5C7 4.04037 7.09053 3.58525 7.26642 3.16061C7.44231 2.73597 7.70012 2.35013 8.02513 2.02513C8.35013 1.70012 8.73597 1.44231 9.16061 1.26642C9.58525 1.09053 10.0404 1 10.5 1C10.9596 1 11.4148 1.09053 11.8394 1.26642C12.264 1.44231 12.6499 1.70012 12.9749 2.02513C13.2999 2.35013 13.5577 2.73597 13.7336 3.16061C13.9095 3.58525 14 4.04037 14 4.5V5M7 5H14" stroke="#820263"/>
</svg>
