<svg width="29" height="32" viewBox="0 0 29 32" fill="none" xmlns="http://www.w3.org/2000/svg">
<path d="M27.26 9.3175H20.1274C20.792 8.99125 21.4092 8.55704 21.9588 8.02911C22.3399 7.65272 22.6469 7.19293 22.8605 6.67857C23.0741 6.16421 23.1896 5.60638 23.2 5.04007C23.2164 4.41248 23.1173 3.78779 22.9085 3.2043C22.6998 2.62081 22.386 2.09083 21.9863 1.64687C21.5866 1.20292 21.1094 0.854343 20.584 0.622534C20.0587 0.390725 19.4962 0.280569 18.9312 0.298824C18.4213 0.310321 17.9191 0.438709 17.456 0.675935C16.9929 0.913161 16.5789 1.25411 16.24 1.67739C15.383 2.75158 14.8436 4.15109 14.5 5.49261C14.1593 4.15109 13.6198 2.7548 12.76 1.67739C12.4211 1.25411 12.0071 0.913161 11.544 0.675935C11.0809 0.438709 10.5787 0.310321 10.0688 0.298824C9.50375 0.280569 8.9413 0.390725 8.41596 0.622534C7.89061 0.854343 7.41344 1.20292 7.01372 1.64687C6.61401 2.09083 6.30016 2.62081 6.09145 3.2043C5.88274 3.78779 5.78356 4.41248 5.8 5.04007C5.81035 5.60638 5.92595 6.16421 6.13953 6.67857C6.35312 7.19293 6.66009 7.65272 7.0412 8.02911C7.59077 8.55704 8.20797 8.99125 8.87255 9.3175H1.74C1.27852 9.3175 0.835948 9.52111 0.509634 9.88353C0.183321 10.246 0 10.7375 0 11.2501V16.4036C0 16.9161 0.183321 17.4077 0.509634 17.7701C0.835948 18.1326 1.27852 18.3362 1.74 18.3362H2.32V29.2874C2.32 29.8 2.50332 30.2915 2.82963 30.6539C3.15595 31.0164 3.59852 31.22 4.06 31.22H24.94C25.4015 31.22 25.8441 31.0164 26.1704 30.6539C26.4967 30.2915 26.68 29.8 26.68 29.2874V18.3362H27.26C27.7215 18.3362 28.1641 18.1326 28.4904 17.7701C28.8167 17.4077 29 16.9161 29 16.4036V11.2501C29 10.7375 28.8167 10.246 28.4904 9.88353C28.1641 9.52111 27.7215 9.3175 27.26 9.3175ZM17.11 2.53095C17.3442 2.24017 17.6299 2.00626 17.9493 1.84386C18.2687 1.68146 18.6148 1.59409 18.966 1.58721H19.0544C19.4539 1.58768 19.8492 1.67704 20.2171 1.85003C20.5849 2.02301 20.9178 2.27611 21.1961 2.59437C21.4744 2.91263 21.6925 3.2896 21.8374 3.70302C21.9823 4.11644 22.0512 4.55793 22.04 5.00142C22.0337 5.39147 21.955 5.77588 21.8088 6.13059C21.6626 6.4853 21.452 6.80267 21.1903 7.06283C19.4373 8.78604 16.3951 9.19027 15.1003 9.28368C15.1902 7.85679 15.5527 4.48606 17.11 2.53095ZM6.96 5.00142C6.94876 4.55793 7.01765 4.11644 7.1626 3.70302C7.30754 3.2896 7.5256 2.91263 7.80391 2.59437C8.08221 2.27611 8.41511 2.02301 8.78294 1.85003C9.15078 1.67704 9.5461 1.58768 9.94555 1.58721H10.034C10.3852 1.59409 10.7313 1.68146 11.0507 1.84386C11.3701 2.00626 11.6558 2.24017 11.89 2.53095C13.4429 4.47801 13.8055 7.85679 13.8896 9.29495C12.6005 9.20154 9.5584 8.79731 7.79955 7.0741C7.53842 6.81166 7.32903 6.49202 7.18454 6.13531C7.04005 5.7786 6.9636 5.39254 6.96 5.00142ZM1.16 16.4036V11.2501C1.16 11.0792 1.22111 10.9154 1.32988 10.7946C1.43865 10.6737 1.58617 10.6059 1.74 10.6059H13.92V17.0478H1.74C1.58617 17.0478 1.43865 16.9799 1.32988 16.8591C1.22111 16.7383 1.16 16.5744 1.16 16.4036ZM3.48 29.2874V18.3362H13.92V29.9316H4.06C3.90617 29.9316 3.75865 29.8637 3.64988 29.7429C3.54111 29.6221 3.48 29.4583 3.48 29.2874ZM25.52 29.2874C25.52 29.4583 25.4589 29.6221 25.3501 29.7429C25.2414 29.8637 25.0938 29.9316 24.94 29.9316H15.08V18.3362H25.52V29.2874ZM27.84 16.4036C27.84 16.5744 27.7789 16.7383 27.6701 16.8591C27.5614 16.9799 27.4138 17.0478 27.26 17.0478H15.08V10.6059H27.26C27.4138 10.6059 27.5614 10.6737 27.6701 10.7946C27.7789 10.9154 27.84 11.0792 27.84 11.2501V16.4036Z" fill="#820263"/>
</svg>
