<?xml version="1.0" encoding="utf-8"?>
<!-- Generator: Adobe Illustrator 28.3.0, SVG Export Plug-In . SVG Version: 6.00 Build 0)  -->
<svg version="1.1" id="Layer_1" xmlns="http://www.w3.org/2000/svg" xmlns:xlink="http://www.w3.org/1999/xlink" x="0px" y="0px"
	 viewBox="0 0 29 32" style="enable-background:new 0 0 29 32;" xml:space="preserve">
<style type="text/css">
	.st0{fill:#FFFFFF;}
</style>
<path class="st0" d="M27.3,9.3h-7.1C20.8,9,21.4,8.6,22,8c0.4-0.4,0.7-0.8,0.9-1.4s0.3-1.1,0.3-1.6c0-0.6-0.1-1.3-0.3-1.8
	c-0.2-0.6-0.5-1.1-0.9-1.6c-0.4-0.4-0.9-0.8-1.4-1c-0.5-0.2-1.1-0.3-1.7-0.3c-0.5,0-1,0.1-1.5,0.4c-0.5,0.2-0.9,0.6-1.2,1
	c-0.9,1.1-1.4,2.5-1.7,3.8c-0.3-1.3-0.9-2.7-1.7-3.8c-0.3-0.4-0.8-0.8-1.2-1c-0.5-0.2-1-0.4-1.5-0.4c-0.6,0-1.1,0.1-1.7,0.3
	c-0.5,0.2-1,0.6-1.4,1c-0.4,0.4-0.7,1-0.9,1.6C5.9,3.8,5.8,4.4,5.8,5c0,0.6,0.1,1.1,0.3,1.6C6.4,7.2,6.7,7.7,7,8
	c0.5,0.5,1.2,1,1.8,1.3H1.7c-0.5,0-0.9,0.2-1.2,0.6C0.2,10.2,0,10.7,0,11.3v5.2c0,0.5,0.2,1,0.5,1.4c0.3,0.4,0.8,0.6,1.2,0.6h0.6v11
	c0,0.5,0.2,1,0.5,1.4c0.3,0.4,0.8,0.6,1.2,0.6h20.9c0.5,0,0.9-0.2,1.2-0.6c0.3-0.4,0.5-0.9,0.5-1.4v-11h0.6c0.5,0,0.9-0.2,1.2-0.6
	c0.3-0.4,0.5-0.9,0.5-1.4v-5.2c0-0.5-0.2-1-0.5-1.4C28.2,9.5,27.7,9.3,27.3,9.3z M17.1,2.5c0.2-0.3,0.5-0.5,0.8-0.7
	c0.3-0.2,0.7-0.2,1-0.3h0.1c0.4,0,0.8,0.1,1.2,0.3c0.4,0.2,0.7,0.4,1,0.7s0.5,0.7,0.6,1.1C22,4.1,22.1,4.6,22,5
	c0,0.4-0.1,0.8-0.2,1.1s-0.4,0.7-0.6,0.9c-1.8,1.7-4.8,2.1-6.1,2.2C15.2,7.9,15.6,4.5,17.1,2.5z M7,5c0-0.4,0.1-0.9,0.2-1.3
	c0.1-0.4,0.4-0.8,0.6-1.1c0.3-0.3,0.6-0.6,1-0.7c0.4-0.2,0.8-0.3,1.2-0.3H10c0.4,0,0.7,0.1,1,0.3s0.6,0.4,0.8,0.7
	c1.6,1.9,1.9,5.3,2,6.8c-1.3-0.1-4.3-0.5-6.1-2.2C7.5,6.8,7.3,6.5,7.2,6.1C7,5.8,7,5.4,7,5z M1.2,16.4v-5.2c0-0.2,0.1-0.3,0.2-0.5
	c0.1-0.1,0.3-0.2,0.4-0.2h12.2V17H1.7c-0.2,0-0.3-0.1-0.4-0.2S1.2,16.6,1.2,16.4z M3.5,29.3v-11h10.4v11.6H4.1
	c-0.2,0-0.3-0.1-0.4-0.2C3.5,29.6,3.5,29.5,3.5,29.3z M25.5,29.3c0,0.2-0.1,0.3-0.2,0.5c-0.1,0.1-0.3,0.2-0.4,0.2h-9.9V18.3h10.4
	V29.3z M27.8,16.4c0,0.2-0.1,0.3-0.2,0.5C27.6,17,27.4,17,27.3,17H15.1v-6.4h12.2c0.2,0,0.3,0.1,0.4,0.2c0.1,0.1,0.2,0.3,0.2,0.5
	V16.4z"/>
</svg>
