<?xml version="1.0" encoding="UTF-8"?>
<svg id="Layer_1" data-name="Layer 1" xmlns="http://www.w3.org/2000/svg" viewBox="0 0 20 23">
  <defs>
    <style>
      .cls-1 {
        fill: none;
        stroke: #fff;
      }
    </style>
  </defs>
  <path class="cls-1" d="M7.5,9v9M12.5,9v9M6.5,4.5H.5v.25l.24,1.05c1.17,5.12,1.76,10.35,1.76,15.6v1.1h15v-1.1c0-5.25.59-10.48,1.76-15.6l.24-1.05v-.25h-6M6.5,4.5v-.5c0-.46.09-.91.27-1.34s.43-.81.76-1.14c.32-.33.71-.58,1.14-.76.42-.18.88-.27,1.34-.27s.91.09,1.34.27c.42.18.81.43,1.14.76.32.33.58.71.76,1.14.18.42.27.88.27,1.34v.5M6.5,4.5h7"/>
</svg>